<?xml version="1.0" encoding="UTF-8"?>
<svg id="Layer_2" data-name="Layer 2" xmlns="http://www.w3.org/2000/svg" viewBox="0 0 240 140">
  <defs>
    <style>
      .cls-1 {
        fill: #faa31b;
      }

      .cls-1, .cls-2 {
        stroke-width: 0px;
      }

      .cls-2 {
        fill: #003049;
      }
    </style>
  </defs>
  <g id="Layer_3" data-name="Layer 3">
    <g>
      <rect class="cls-2" width="240" height="140"/>
      <polygon class="cls-1" points="7.18 18.26 7.18 82.64 26 82.64 26 48.75 45.58 34.83 45.58 18.26 26.38 31.06 26.38 18.26 7.18 18.26"/>
      <polygon class="cls-1" points="48.78 18.26 48.78 34.83 65.53 48.94 65.53 82.64 81.72 82.64 81.72 39.15 48.78 18.26"/>
      <polygon class="cls-1" points="119.18 18.26 88.4 38.59 88.4 82.64 110.71 93.65 122.85 82.64 105.62 73.04 105.62 43.95 119.18 34.35 119.18 18.26"/>
      <polygon class="cls-1" points="122.72 18.26 122.72 34.35 139.38 45.93 151.8 35.77 122.72 18.26"/>
      <polygon class="cls-1" points="141.03 70.02 98.21 111.07 109.24 123.71 153.55 80.75 141.03 70.02"/>
      <polygon class="cls-1" points="155.68 35.77 165.28 45.93 187.02 30.12 187.02 14.31 155.68 35.77"/>
      <polygon class="cls-1" points="190.13 14.31 190.13 30.12 213.57 51.86 233.05 51.86 190.13 14.31"/>
      <polygon class="cls-1" points="233.05 55.4 213.57 55.4 190.13 76.3 190.13 94.65 233.05 55.4"/>
      <polygon class="cls-1" points="187.02 76.58 187.02 95.5 171.35 86.04 171.35 114.98 157.38 124.71 157.38 59.2 187.02 76.58"/>
      <polygon class="cls-1" points="7.18 18.26 7.18 82.64 26 82.64 26 48.75 45.58 34.83 45.58 18.26 26.38 31.06 26.38 18.26 7.18 18.26"/>
      <polygon class="cls-1" points="48.78 18.26 48.78 34.83 65.53 48.94 65.53 82.64 81.72 82.64 81.72 39.15 48.78 18.26"/>
      <polygon class="cls-1" points="119.18 18.26 88.4 38.59 88.4 82.64 110.71 93.65 122.85 82.64 105.62 73.04 105.62 43.95 119.18 34.35 119.18 18.26"/>
      <polygon class="cls-1" points="122.72 18.26 122.72 34.35 139.38 45.93 151.8 35.77 122.72 18.26"/>
      <polygon class="cls-1" points="141.03 70.02 98.21 111.07 109.24 123.71 153.55 80.75 141.03 70.02"/>
      <polygon class="cls-1" points="155.68 35.77 165.28 45.93 187.02 30.12 187.02 14.31 155.68 35.77"/>
      <polygon class="cls-1" points="190.13 14.31 190.13 30.12 213.57 51.86 233.05 51.86 190.13 14.31"/>
      <polygon class="cls-1" points="233.05 55.4 213.57 55.4 190.13 76.3 190.13 94.65 233.05 55.4"/>
      <polygon class="cls-1" points="187.02 76.58 187.02 95.5 171.35 86.04 171.35 114.98 157.38 124.71 157.38 59.2 187.02 76.58"/>
      <polygon class="cls-1" points="7.18 18.26 7.18 82.64 26 82.64 26 48.75 45.58 34.83 45.58 18.26 26.38 31.06 26.38 18.26 7.18 18.26"/>
      <polygon class="cls-1" points="48.78 18.26 48.78 34.83 65.53 48.94 65.53 82.64 81.72 82.64 81.72 39.15 48.78 18.26"/>
      <polygon class="cls-1" points="119.18 18.26 88.4 38.59 88.4 82.64 110.71 93.65 122.85 82.64 105.62 73.04 105.62 43.95 119.18 34.35 119.18 18.26"/>
      <polygon class="cls-1" points="122.72 18.26 122.72 34.35 139.38 45.93 151.8 35.77 122.72 18.26"/>
      <polygon class="cls-1" points="141.03 70.02 98.21 111.07 109.24 123.71 153.55 80.75 141.03 70.02"/>
      <polygon class="cls-1" points="155.68 35.77 165.28 45.93 187.02 30.12 187.02 14.31 155.68 35.77"/>
      <polygon class="cls-1" points="190.13 14.31 190.13 30.12 213.57 51.86 233.05 51.86 190.13 14.31"/>
      <polygon class="cls-1" points="233.05 55.4 213.57 55.4 190.13 76.3 190.13 94.65 233.05 55.4"/>
      <polygon class="cls-1" points="187.02 76.58 187.02 95.5 171.35 86.04 171.35 114.98 157.38 124.71 157.38 59.2 187.02 76.58"/>
      <polygon class="cls-1" points="7.18 18.26 7.18 82.64 26 82.64 26 48.75 45.58 34.83 45.58 18.26 26.38 31.06 26.38 18.26 7.18 18.26"/>
      <polygon class="cls-1" points="48.78 18.26 48.78 34.83 65.53 48.94 65.53 82.64 81.72 82.64 81.72 39.15 48.78 18.26"/>
      <polygon class="cls-1" points="119.18 18.26 88.4 38.59 88.4 82.64 110.71 93.65 122.85 82.64 105.62 73.04 105.62 43.95 119.18 34.35 119.18 18.26"/>
      <polygon class="cls-1" points="122.72 18.26 122.72 34.35 139.38 45.93 151.8 35.77 122.72 18.26"/>
      <polygon class="cls-1" points="141.03 70.02 98.21 111.07 109.24 123.71 153.55 80.75 141.03 70.02"/>
      <polygon class="cls-1" points="155.68 35.77 165.28 45.93 187.02 30.12 187.02 14.31 155.68 35.77"/>
      <polygon class="cls-1" points="190.13 14.31 190.13 30.12 213.57 51.86 233.05 51.86 190.13 14.31"/>
      <polygon class="cls-1" points="233.05 55.4 213.57 55.4 190.13 76.3 190.13 94.65 233.05 55.4"/>
      <polygon class="cls-1" points="187.02 76.58 187.02 95.5 171.35 86.04 171.35 114.98 157.38 124.71 157.38 59.2 187.02 76.58"/>
    </g>
  </g>
</svg>