<?xml version="1.0" encoding="UTF-8"?>
<svg id="Layer_2" data-name="Layer 2" xmlns="http://www.w3.org/2000/svg" viewBox="0 0 241 141">
  <defs>
    <style>
      .cls-1 {
        fill: #fff;
      }

      .cls-1, .cls-2 {
        stroke: #231f20;
        stroke-miterlimit: 10;
      }

      .cls-2 {
        fill: #231f20;
      }
    </style>
  </defs>
  <g id="Layer_3" data-name="Layer 3">
    <rect class="cls-1" x=".5" y=".5" width="240" height="140"/>
    <polygon class="cls-2" points="7.56 19.75 7.56 84.13 26.39 84.13 26.39 50.25 45.96 36.32 45.96 19.75 26.76 32.55 26.76 19.75 7.56 19.75"/>
    <polygon class="cls-2" points="49.16 19.75 49.16 36.32 65.92 50.43 65.92 84.13 82.11 84.13 82.11 40.65 49.16 19.75"/>
    <polygon class="cls-2" points="119.56 19.75 88.79 40.08 88.79 84.13 111.09 95.14 123.24 84.13 106.01 74.53 106.01 45.45 119.56 35.85 119.56 19.75"/>
    <polygon class="cls-2" points="123.11 19.75 123.11 35.85 139.76 47.42 152.19 37.26 123.11 19.75"/>
    <polygon class="cls-2" points="140.41 71.51 97.6 112.56 108.62 125.2 152.94 82.24 140.41 71.51"/>
    <polygon class="cls-2" points="156.07 37.26 165.67 47.42 187.41 31.61 187.41 15.8 156.07 37.26"/>
    <polygon class="cls-2" points="190.52 15.8 190.52 31.61 213.95 53.35 233.44 53.35 190.52 15.8"/>
    <polygon class="cls-2" points="233.44 55.89 213.95 55.89 190.52 76.79 190.52 95.14 233.44 55.89"/>
    <polygon class="cls-2" points="187.41 77.07 187.41 95.99 171.74 86.53 171.74 115.47 157.76 125.2 157.76 59.69 187.41 77.07"/>
    <polygon class="cls-2" points="7.56 19.75 7.56 84.13 26.39 84.13 26.39 50.25 45.96 36.32 45.96 19.75 26.76 32.55 26.76 19.75 7.56 19.75"/>
    <polygon class="cls-2" points="49.16 19.75 49.16 36.32 65.92 50.43 65.92 84.13 82.11 84.13 82.11 40.65 49.16 19.75"/>
    <polygon class="cls-2" points="119.56 19.75 88.79 40.08 88.79 84.13 111.09 95.14 123.24 84.13 106.01 74.53 106.01 45.45 119.56 35.85 119.56 19.75"/>
    <polygon class="cls-2" points="123.11 19.75 123.11 35.85 139.76 47.42 152.19 37.26 123.11 19.75"/>
    <polygon class="cls-2" points="140.41 71.51 97.6 112.56 108.62 125.2 152.94 82.24 140.41 71.51"/>
    <polygon class="cls-2" points="156.07 37.26 165.67 47.42 187.41 31.61 187.41 15.8 156.07 37.26"/>
    <polygon class="cls-2" points="190.52 15.8 190.52 31.61 213.95 53.35 233.44 53.35 190.52 15.8"/>
    <polygon class="cls-2" points="233.44 55.89 213.95 55.89 190.52 76.79 190.52 95.14 233.44 55.89"/>
    <polygon class="cls-2" points="187.41 77.07 187.41 95.99 171.74 86.53 171.74 115.47 157.76 125.2 157.76 59.69 187.41 77.07"/>
    <polygon class="cls-2" points="7.56 19.75 7.56 84.13 26.39 84.13 26.39 50.25 45.96 36.32 45.96 19.75 26.76 32.55 26.76 19.75 7.56 19.75"/>
    <polygon class="cls-2" points="49.16 19.75 49.16 36.32 65.92 50.43 65.92 84.13 82.11 84.13 82.11 40.65 49.16 19.75"/>
    <polygon class="cls-2" points="119.56 19.75 88.79 40.08 88.79 84.13 111.09 95.14 123.24 84.13 106.01 74.53 106.01 45.45 119.56 35.85 119.56 19.75"/>
    <polygon class="cls-2" points="123.11 19.75 123.11 35.85 139.76 47.42 152.19 37.26 123.11 19.75"/>
    <polygon class="cls-2" points="140.41 71.51 97.6 112.56 108.62 125.2 152.94 82.24 140.41 71.51"/>
    <polygon class="cls-2" points="156.07 37.26 165.67 47.42 187.41 31.61 187.41 15.8 156.07 37.26"/>
    <polygon class="cls-2" points="190.52 15.8 190.52 31.61 213.95 53.35 233.44 53.35 190.52 15.8"/>
    <polygon class="cls-2" points="233.44 55.89 213.95 55.89 190.52 76.79 190.52 95.14 233.44 55.89"/>
    <polygon class="cls-2" points="187.41 77.07 187.41 95.99 171.74 86.53 171.74 115.47 157.76 125.2 157.76 59.69 187.41 77.07"/>
    <polygon class="cls-2" points="7.56 19.75 7.56 84.13 26.39 84.13 26.39 50.25 45.96 36.32 45.96 19.75 26.76 32.55 26.76 19.75 7.56 19.75"/>
    <polygon class="cls-2" points="49.16 19.75 49.16 36.32 65.92 50.43 65.92 84.13 82.11 84.13 82.11 40.65 49.16 19.75"/>
    <polygon class="cls-2" points="119.56 19.75 88.79 40.08 88.79 84.13 111.09 95.14 123.24 84.13 106.01 74.53 106.01 45.45 119.56 35.85 119.56 19.75"/>
    <polygon class="cls-2" points="123.11 19.75 123.11 35.85 139.76 47.42 152.19 37.26 123.11 19.75"/>
    <polygon class="cls-2" points="140.41 71.51 97.6 112.56 108.62 125.2 152.94 82.24 140.41 71.51"/>
    <polygon class="cls-2" points="156.07 37.26 165.67 47.42 187.41 31.61 187.41 15.8 156.07 37.26"/>
    <polygon class="cls-2" points="190.52 15.8 190.52 31.61 213.95 53.35 233.44 53.35 190.52 15.8"/>
    <polygon class="cls-2" points="233.44 55.89 213.95 55.89 190.52 76.79 190.52 95.14 233.44 55.89"/>
    <polygon class="cls-2" points="187.41 77.07 187.41 95.99 171.74 86.53 171.74 115.47 157.76 125.2 157.76 59.69 187.41 77.07"/>
  </g>
</svg>