<?xml version="1.0" encoding="UTF-8"?>
<svg id="Layer_2" data-name="Layer 2" xmlns="http://www.w3.org/2000/svg" viewBox="0 0 241 141">
  <defs>
    <style>
      .cls-1 {
        fill: #fff;
      }

      .cls-1, .cls-2 {
        stroke: #fff;
        stroke-miterlimit: 10;
      }

      .cls-2 {
        fill: #231f20;
      }
    </style>
  </defs>
  <g id="Layer_3" data-name="Layer 3">
    <g>
      <rect class="cls-2" x=".5" y=".5" width="240" height="140"/>
      <polygon class="cls-1" points="7.56 18.25 7.56 82.63 26.39 82.63 26.39 48.75 45.96 34.82 45.96 18.25 26.76 31.05 26.76 18.25 7.56 18.25"/>
      <polygon class="cls-1" points="49.16 18.25 49.16 34.82 65.92 48.93 65.92 82.63 82.11 82.63 82.11 39.15 49.16 18.25"/>
      <polygon class="cls-1" points="119.56 18.25 88.79 38.58 88.79 82.63 111.09 93.64 123.24 82.63 106.01 73.03 106.01 43.95 119.56 34.35 119.56 18.25"/>
      <polygon class="cls-1" points="123.11 18.25 123.11 34.35 139.76 45.92 152.19 35.76 123.11 18.25"/>
      <polygon class="cls-1" points="141.41 70.01 98.6 111.06 109.62 123.7 153.94 80.74 141.41 70.01"/>
      <polygon class="cls-1" points="156.07 35.76 165.67 45.92 187.41 30.11 187.41 14.3 156.07 35.76"/>
      <polygon class="cls-1" points="190.52 14.3 190.52 30.11 213.95 51.85 233.44 51.85 190.52 14.3"/>
      <polygon class="cls-1" points="233.44 55.39 213.95 55.39 190.52 76.29 190.52 94.64 233.44 55.39"/>
      <polygon class="cls-1" points="187.41 76.57 187.41 95.49 171.74 86.03 171.74 114.97 157.76 124.7 157.76 59.19 187.41 76.57"/>
      <polygon class="cls-1" points="7.56 18.25 7.56 82.63 26.39 82.63 26.39 48.75 45.96 34.82 45.96 18.25 26.76 31.05 26.76 18.25 7.56 18.25"/>
      <polygon class="cls-1" points="49.16 18.25 49.16 34.82 65.92 48.93 65.92 82.63 82.11 82.63 82.11 39.15 49.16 18.25"/>
      <polygon class="cls-1" points="119.56 18.25 88.79 38.58 88.79 82.63 111.09 93.64 123.24 82.63 106.01 73.03 106.01 43.95 119.56 34.35 119.56 18.25"/>
      <polygon class="cls-1" points="123.11 18.25 123.11 34.35 139.76 45.92 152.19 35.76 123.11 18.25"/>
      <polygon class="cls-1" points="141.41 70.01 98.6 111.06 109.62 123.7 153.94 80.74 141.41 70.01"/>
      <polygon class="cls-1" points="156.07 35.76 165.67 45.92 187.41 30.11 187.41 14.3 156.07 35.76"/>
      <polygon class="cls-1" points="190.52 14.3 190.52 30.11 213.95 51.85 233.44 51.85 190.52 14.3"/>
      <polygon class="cls-1" points="233.44 55.39 213.95 55.39 190.52 76.29 190.52 94.64 233.44 55.39"/>
      <polygon class="cls-1" points="187.41 76.57 187.41 95.49 171.74 86.03 171.74 114.97 157.76 124.7 157.76 59.19 187.41 76.57"/>
      <polygon class="cls-1" points="7.56 18.25 7.56 82.63 26.39 82.63 26.39 48.75 45.96 34.82 45.96 18.25 26.76 31.05 26.76 18.25 7.56 18.25"/>
      <polygon class="cls-1" points="49.16 18.25 49.16 34.82 65.92 48.93 65.92 82.63 82.11 82.63 82.11 39.15 49.16 18.25"/>
      <polygon class="cls-1" points="119.56 18.25 88.79 38.58 88.79 82.63 111.09 93.64 123.24 82.63 106.01 73.03 106.01 43.95 119.56 34.35 119.56 18.25"/>
      <polygon class="cls-1" points="123.11 18.25 123.11 34.35 139.76 45.92 152.19 35.76 123.11 18.25"/>
      <polygon class="cls-1" points="141.41 70.01 98.6 111.06 109.62 123.7 153.94 80.74 141.41 70.01"/>
      <polygon class="cls-1" points="156.07 35.76 165.67 45.92 187.41 30.11 187.41 14.3 156.07 35.76"/>
      <polygon class="cls-1" points="190.52 14.3 190.52 30.11 213.95 51.85 233.44 51.85 190.52 14.3"/>
      <polygon class="cls-1" points="233.44 55.39 213.95 55.39 190.52 76.29 190.52 94.64 233.44 55.39"/>
      <polygon class="cls-1" points="187.41 76.57 187.41 95.49 171.74 86.03 171.74 114.97 157.76 124.7 157.76 59.19 187.41 76.57"/>
      <polygon class="cls-1" points="7.56 18.25 7.56 82.63 26.39 82.63 26.39 48.75 45.96 34.82 45.96 18.25 26.76 31.05 26.76 18.25 7.56 18.25"/>
      <polygon class="cls-1" points="49.16 18.25 49.16 34.82 65.92 48.93 65.92 82.63 82.11 82.63 82.11 39.15 49.16 18.25"/>
      <polygon class="cls-1" points="119.56 18.25 88.79 38.58 88.79 82.63 111.09 93.64 123.24 82.63 106.01 73.03 106.01 43.95 119.56 34.35 119.56 18.25"/>
      <polygon class="cls-1" points="123.11 18.25 123.11 34.35 139.76 45.92 152.19 35.76 123.11 18.25"/>
      <polygon class="cls-1" points="141.41 70.01 98.6 111.06 109.62 123.7 153.94 80.74 141.41 70.01"/>
      <polygon class="cls-1" points="156.07 35.76 165.67 45.92 187.41 30.11 187.41 14.3 156.07 35.76"/>
      <polygon class="cls-1" points="190.52 14.3 190.52 30.11 213.95 51.85 233.44 51.85 190.52 14.3"/>
      <polygon class="cls-1" points="233.44 55.39 213.95 55.39 190.52 76.29 190.52 94.64 233.44 55.39"/>
      <polygon class="cls-1" points="187.41 76.57 187.41 95.49 171.74 86.03 171.74 114.97 157.76 124.7 157.76 59.19 187.41 76.57"/>
    </g>
  </g>
</svg>