<?xml version="1.0" encoding="UTF-8"?>
<svg id="Layer_2" data-name="Layer 2" xmlns="http://www.w3.org/2000/svg" viewBox="0 0 240 140">
  <defs>
    <style>
      .cls-1 {
        fill: #faa31b;
      }

      .cls-1, .cls-2 {
        stroke-width: 0px;
      }

      .cls-2 {
        fill: #003049;
      }
    </style>
  </defs>
  <g id="Layer_3" data-name="Layer 3">
    <g>
      <rect class="cls-1" width="240" height="140"/>
      <polygon class="cls-2" points="7.06 18.75 7.06 83.13 25.89 83.13 25.89 49.25 45.46 35.32 45.46 18.75 26.26 31.55 26.26 18.75 7.06 18.75"/>
      <polygon class="cls-2" points="48.66 18.75 48.66 35.32 65.42 49.43 65.42 83.13 81.61 83.13 81.61 39.65 48.66 18.75"/>
      <polygon class="cls-2" points="119.06 18.75 88.29 39.08 88.29 83.13 110.59 94.14 122.74 83.13 105.51 73.53 105.51 44.45 119.06 34.85 119.06 18.75"/>
      <polygon class="cls-2" points="122.61 18.75 122.61 34.85 139.26 46.42 151.69 36.26 122.61 18.75"/>
      <polygon class="cls-2" points="140.91 70.51 98.1 111.56 109.12 124.2 153.44 81.24 140.91 70.51"/>
      <polygon class="cls-2" points="155.57 36.26 165.17 46.42 186.91 30.61 186.91 14.8 155.57 36.26"/>
      <polygon class="cls-2" points="190.02 14.8 190.02 30.61 213.45 52.35 232.94 52.35 190.02 14.8"/>
      <polygon class="cls-2" points="232.94 55.89 213.45 55.89 190.02 76.79 190.02 95.14 232.94 55.89"/>
      <polygon class="cls-2" points="186.91 77.07 186.91 95.99 171.24 86.53 171.24 115.47 157.26 125.2 157.26 59.69 186.91 77.07"/>
      <polygon class="cls-2" points="7.06 18.75 7.06 83.13 25.89 83.13 25.89 49.25 45.46 35.32 45.46 18.75 26.26 31.55 26.26 18.75 7.06 18.75"/>
      <polygon class="cls-2" points="48.66 18.75 48.66 35.32 65.42 49.43 65.42 83.13 81.61 83.13 81.61 39.65 48.66 18.75"/>
      <polygon class="cls-2" points="119.06 18.75 88.29 39.08 88.29 83.13 110.59 94.14 122.74 83.13 105.51 73.53 105.51 44.45 119.06 34.85 119.06 18.75"/>
      <polygon class="cls-2" points="122.61 18.75 122.61 34.85 139.26 46.42 151.69 36.26 122.61 18.75"/>
      <polygon class="cls-2" points="140.91 70.51 98.1 111.56 109.12 124.2 153.44 81.24 140.91 70.51"/>
      <polygon class="cls-2" points="155.57 36.26 165.17 46.42 186.91 30.61 186.91 14.8 155.57 36.26"/>
      <polygon class="cls-2" points="190.02 14.8 190.02 30.61 213.45 52.35 232.94 52.35 190.02 14.8"/>
      <polygon class="cls-2" points="232.94 55.89 213.45 55.89 190.02 76.79 190.02 95.14 232.94 55.89"/>
      <polygon class="cls-2" points="186.91 77.07 186.91 95.99 171.24 86.53 171.24 115.47 157.26 125.2 157.26 59.69 186.91 77.07"/>
      <polygon class="cls-2" points="7.06 18.75 7.06 83.13 25.89 83.13 25.89 49.25 45.46 35.32 45.46 18.75 26.26 31.55 26.26 18.75 7.06 18.75"/>
      <polygon class="cls-2" points="48.66 18.75 48.66 35.32 65.42 49.43 65.42 83.13 81.61 83.13 81.61 39.65 48.66 18.75"/>
      <polygon class="cls-2" points="119.06 18.75 88.29 39.08 88.29 83.13 110.59 94.14 122.74 83.13 105.51 73.53 105.51 44.45 119.06 34.85 119.06 18.75"/>
      <polygon class="cls-2" points="122.61 18.75 122.61 34.85 139.26 46.42 151.69 36.26 122.61 18.75"/>
      <polygon class="cls-2" points="140.91 70.51 98.1 111.56 109.12 124.2 153.44 81.24 140.91 70.51"/>
      <polygon class="cls-2" points="155.57 36.26 165.17 46.42 186.91 30.61 186.91 14.8 155.57 36.26"/>
      <polygon class="cls-2" points="190.02 14.8 190.02 30.61 213.45 52.35 232.94 52.35 190.02 14.8"/>
      <polygon class="cls-2" points="232.94 55.89 213.45 55.89 190.02 76.79 190.02 95.14 232.94 55.89"/>
      <polygon class="cls-2" points="186.91 77.07 186.91 95.99 171.24 86.53 171.24 115.47 157.26 125.2 157.26 59.69 186.91 77.07"/>
      <polygon class="cls-2" points="7.06 18.75 7.06 83.13 25.89 83.13 25.89 49.25 45.46 35.32 45.46 18.75 26.26 31.55 26.26 18.75 7.06 18.75"/>
      <polygon class="cls-2" points="48.66 18.75 48.66 35.32 65.42 49.43 65.42 83.13 81.61 83.13 81.61 39.65 48.66 18.75"/>
      <polygon class="cls-2" points="119.06 18.75 88.29 39.08 88.29 83.13 110.59 94.14 122.74 83.13 105.51 73.53 105.51 44.45 119.06 34.85 119.06 18.75"/>
      <polygon class="cls-2" points="122.61 18.75 122.61 34.85 139.26 46.42 151.69 36.26 122.61 18.75"/>
      <polygon class="cls-2" points="140.91 70.51 98.1 111.56 109.12 124.2 153.44 81.24 140.91 70.51"/>
      <polygon class="cls-2" points="155.57 36.26 165.17 46.42 186.91 30.61 186.91 14.8 155.57 36.26"/>
      <polygon class="cls-2" points="190.02 14.8 190.02 30.61 213.45 52.35 232.94 52.35 190.02 14.8"/>
      <polygon class="cls-2" points="232.94 55.89 213.45 55.89 190.02 76.79 190.02 95.14 232.94 55.89"/>
      <polygon class="cls-2" points="186.91 77.07 186.91 95.99 171.24 86.53 171.24 115.47 157.26 125.2 157.26 59.69 186.91 77.07"/>
    </g>
  </g>
</svg>