<?xml version="1.0" encoding="UTF-8"?>
<svg id="Layer_2" data-name="Layer 2" xmlns="http://www.w3.org/2000/svg" viewBox="0 0 240 140">
  <defs>
    <style>
      .cls-1 {
        fill: #faa31e;
      }

      .cls-1, .cls-2 {
        stroke-width: 0px;
      }

      .cls-2 {
        fill: #003049;
      }
    </style>
  </defs>
  <g id="Layer_3" data-name="Layer 3">
    <g>
      <rect class="cls-2" width="240" height="140"/>
      <polygon class="cls-1" points="19.85 92.79 19.85 116.5 26.63 116.5 26.63 103.51 34.82 99.56 34.82 92.79 27.34 96.74 27.34 92.79 19.85 92.79"/>
      <polygon class="cls-1" points="36.79 92.79 36.79 99.28 43.01 104.64 43.01 116.5 48.09 116.5 48.09 99.84 36.79 92.79"/>
      <rect class="cls-1" x="50.91" y="99.84" width="6.49" height="16.66"/>
      <polygon class="cls-1" points="61.36 94.81 61.36 116.5 67.29 116.5 67.29 104.64 77.45 99.84 77.45 94.81 67.57 99.84 67.57 94.81 61.36 94.81"/>
      <polygon class="cls-1" points="92.42 94.81 79.99 99.84 79.99 110.86 89.31 118.48 89.59 110.86 85.08 108.17 84.79 103.23 92.42 99.84 92.42 94.81"/>
      <polygon class="cls-1" points="94.68 94.81 94.68 99.84 99.19 104.64 99.19 109.44 92.42 111.42 92.42 118.48 99.19 115.37 99.19 118.48 105.6 118.48 105.6 94.81 100.61 94.81 100.61 99.84 94.68 94.81"/>
      <polygon class="cls-1" points="109.92 94.81 109.92 118.48 116.42 118.48 116.42 108.17 125.98 104.64 125.98 97.02 116.42 99.84 116.42 94.81 109.92 94.81"/>
      <polygon class="cls-1" points="150.02 99.84 150.02 137.11 155.95 130.34 155.95 99.84 150.02 99.84"/>
      <polygon class="cls-1" points="147.76 128.36 147.76 137.11 135.34 126.39 141.55 122.71 147.76 128.36"/>
      <polygon class="cls-1" points="127.99 104.64 135.34 109.73 135.34 123.84 141.55 120.17 141.55 104.64 127.99 96.46 127.99 104.64"/>
      <polygon class="cls-1" points="158.77 102.39 158.77 112.27 168.27 120.17 168.27 112.55 164.98 110.15 164.98 105.66 168.27 103.51 168.27 96.46 158.77 102.39"/>
      <polygon class="cls-1" points="170.48 96.46 170.48 103.51 175.28 106.65 175.28 110.15 170.48 112.55 170.48 120.17 178.35 116.5 178.35 120.17 184.03 120.17 184.03 96.46 178.35 96.46 178.35 100.97 170.48 96.46"/>
      <polygon class="cls-1" points="187.85 96.46 187.85 120.17 194.35 120.17 194.35 108.31 201.97 104.64 201.97 98.43 194.91 101.26 194.91 96.46 187.85 96.46"/>
      <polygon class="cls-1" points="204.51 104.64 209.31 108.17 209.31 120.17 216.09 120.17 216.09 104.64 204.51 97.87 204.51 104.64"/>
      <polygon class="cls-1" points="57.15 94.76 53.72 96.74 50.3 94.76 50.3 90.81 53.72 88.83 57.15 90.81 57.15 94.76"/>
      <polygon class="cls-1" points="156.41 94.76 152.98 96.74 149.56 94.76 149.56 90.81 152.98 88.83 156.41 90.81 156.41 94.76"/>
      <polygon class="cls-1" points="35.55 6.05 35.55 54.19 49.63 54.19 49.63 28.85 64.26 18.44 64.26 6.05 49.91 15.62 49.91 6.05 35.55 6.05"/>
      <polygon class="cls-1" points="66.66 6.05 66.66 18.44 79.19 28.99 79.19 54.19 91.29 54.19 91.29 21.68 66.66 6.05"/>
      <polygon class="cls-1" points="119.3 6.05 96.29 21.25 96.29 54.19 112.97 62.42 122.05 54.19 109.17 47.01 109.17 25.26 119.3 18.09 119.3 6.05"/>
      <polygon class="cls-1" points="121.95 6.05 121.95 18.09 134.41 26.74 143.7 19.14 121.95 6.05"/>
      <polygon class="cls-1" points="135.64 44.75 103.62 75.45 111.87 84.9 145 52.78 135.64 44.75"/>
      <polygon class="cls-1" points="146.6 19.14 153.78 26.74 170.03 14.92 170.03 3.1 146.6 19.14"/>
      <polygon class="cls-1" points="172.36 3.1 172.36 14.92 189.88 31.18 204.45 31.18 172.36 3.1"/>
      <polygon class="cls-1" points="204.45 33.82 189.88 33.82 172.36 49.45 172.36 63.17 204.45 33.82"/>
      <polygon class="cls-1" points="170.03 49.66 170.03 63.81 158.32 56.73 158.32 78.37 147.87 85.65 147.87 36.67 170.03 49.66"/>
      <polygon class="cls-1" points="35.55 6.05 35.55 54.19 49.63 54.19 49.63 28.85 64.26 18.44 64.26 6.05 49.91 15.62 49.91 6.05 35.55 6.05"/>
      <polygon class="cls-1" points="66.66 6.05 66.66 18.44 79.19 28.99 79.19 54.19 91.29 54.19 91.29 21.68 66.66 6.05"/>
      <polygon class="cls-1" points="119.3 6.05 96.29 21.25 96.29 54.19 112.97 62.42 122.05 54.19 109.17 47.01 109.17 25.26 119.3 18.09 119.3 6.05"/>
      <polygon class="cls-1" points="121.95 6.05 121.95 18.09 134.41 26.74 143.7 19.14 121.95 6.05"/>
      <polygon class="cls-1" points="135.64 44.75 103.62 75.45 111.87 84.9 145 52.78 135.64 44.75"/>
      <polygon class="cls-1" points="146.6 19.14 153.78 26.74 170.03 14.92 170.03 3.1 146.6 19.14"/>
      <polygon class="cls-1" points="172.36 3.1 172.36 14.92 189.88 31.18 204.45 31.18 172.36 3.1"/>
      <polygon class="cls-1" points="204.45 33.82 189.88 33.82 172.36 49.45 172.36 63.17 204.45 33.82"/>
      <polygon class="cls-1" points="170.03 49.66 170.03 63.81 158.32 56.73 158.32 78.37 147.87 85.65 147.87 36.67 170.03 49.66"/>
      <polygon class="cls-1" points="35.55 6.05 35.55 54.19 49.63 54.19 49.63 28.85 64.26 18.44 64.26 6.05 49.91 15.62 49.91 6.05 35.55 6.05"/>
      <polygon class="cls-1" points="66.66 6.05 66.66 18.44 79.19 28.99 79.19 54.19 91.29 54.19 91.29 21.68 66.66 6.05"/>
      <polygon class="cls-1" points="119.3 6.05 96.29 21.25 96.29 54.19 112.97 62.42 122.05 54.19 109.17 47.01 109.17 25.26 119.3 18.09 119.3 6.05"/>
      <polygon class="cls-1" points="121.95 6.05 121.95 18.09 134.41 26.74 143.7 19.14 121.95 6.05"/>
      <polygon class="cls-1" points="135.64 44.75 103.62 75.45 111.87 84.9 145 52.78 135.64 44.75"/>
      <polygon class="cls-1" points="146.6 19.14 153.78 26.74 170.03 14.92 170.03 3.1 146.6 19.14"/>
      <polygon class="cls-1" points="172.36 3.1 172.36 14.92 189.88 31.18 204.45 31.18 172.36 3.1"/>
      <polygon class="cls-1" points="204.45 33.82 189.88 33.82 172.36 49.45 172.36 63.17 204.45 33.82"/>
      <polygon class="cls-1" points="170.03 49.66 170.03 63.81 158.32 56.73 158.32 78.37 147.87 85.65 147.87 36.67 170.03 49.66"/>
      <polygon class="cls-1" points="35.55 6.05 35.55 54.19 49.63 54.19 49.63 28.85 64.26 18.44 64.26 6.05 49.91 15.62 49.91 6.05 35.55 6.05"/>
      <polygon class="cls-1" points="66.66 6.05 66.66 18.44 79.19 28.99 79.19 54.19 91.29 54.19 91.29 21.68 66.66 6.05"/>
      <polygon class="cls-1" points="119.3 6.05 96.29 21.25 96.29 54.19 112.97 62.42 122.05 54.19 109.17 47.01 109.17 25.26 119.3 18.09 119.3 6.05"/>
      <polygon class="cls-1" points="121.95 6.05 121.95 18.09 134.41 26.74 143.7 19.14 121.95 6.05"/>
      <polygon class="cls-1" points="135.64 44.75 103.62 75.45 111.87 84.9 145 52.78 135.64 44.75"/>
      <polygon class="cls-1" points="146.6 19.14 153.78 26.74 170.03 14.92 170.03 3.1 146.6 19.14"/>
      <polygon class="cls-1" points="172.36 3.1 172.36 14.92 189.88 31.18 204.45 31.18 172.36 3.1"/>
      <polygon class="cls-1" points="204.45 33.82 189.88 33.82 172.36 49.45 172.36 63.17 204.45 33.82"/>
      <polygon class="cls-1" points="170.03 49.66 170.03 63.81 158.32 56.73 158.32 78.37 147.87 85.65 147.87 36.67 170.03 49.66"/>
    </g>
  </g>
</svg>