<?xml version="1.0" encoding="UTF-8"?>
<svg id="Layer_2" data-name="Layer 2" xmlns="http://www.w3.org/2000/svg" viewBox="0 0 227.7 112.46">
  <defs>
    <style>
      .cls-1 {
        fill: #fff;
        stroke: #231f20;
        stroke-miterlimit: 10;
      }
    </style>
  </defs>
  <g id="Layer_3" data-name="Layer 3">
    <g>
      <polygon class="cls-1" points=".5 5.05 .5 69.43 19.32 69.43 19.32 35.55 38.9 21.62 38.9 5.05 19.7 17.85 19.7 5.05 .5 5.05"/>
      <polygon class="cls-1" points="42.1 5.05 42.1 21.62 58.85 35.74 58.85 69.43 75.04 69.43 75.04 25.95 42.1 5.05"/>
      <polygon class="cls-1" points="112.5 5.05 81.72 25.38 81.72 69.43 104.03 80.44 116.17 69.43 98.95 59.83 98.95 30.75 112.5 21.15 112.5 5.05"/>
      <polygon class="cls-1" points="116.04 5.05 116.04 21.15 132.7 32.73 145.12 22.56 116.04 5.05"/>
      <polygon class="cls-1" points="134.35 56.81 91.53 97.86 102.56 110.51 146.87 67.55 134.35 56.81"/>
      <polygon class="cls-1" points="149.01 22.56 158.61 32.73 180.35 16.91 180.35 1.1 149.01 22.56"/>
      <polygon class="cls-1" points="183.45 1.1 183.45 16.91 206.89 38.65 226.37 38.65 183.45 1.1"/>
      <polygon class="cls-1" points="226.37 42.2 206.89 42.2 183.45 63.09 183.45 81.44 226.37 42.2"/>
      <polygon class="cls-1" points="180.35 63.37 180.35 82.29 164.68 72.83 164.68 101.77 150.7 111.51 150.7 46 180.35 63.37"/>
      <polygon class="cls-1" points=".5 5.05 .5 69.43 19.32 69.43 19.32 35.55 38.9 21.62 38.9 5.05 19.7 17.85 19.7 5.05 .5 5.05"/>
      <polygon class="cls-1" points="42.1 5.05 42.1 21.62 58.85 35.74 58.85 69.43 75.04 69.43 75.04 25.95 42.1 5.05"/>
      <polygon class="cls-1" points="112.5 5.05 81.72 25.38 81.72 69.43 104.03 80.44 116.17 69.43 98.95 59.83 98.95 30.75 112.5 21.15 112.5 5.05"/>
      <polygon class="cls-1" points="116.04 5.05 116.04 21.15 132.7 32.73 145.12 22.56 116.04 5.05"/>
      <polygon class="cls-1" points="134.35 56.81 91.53 97.86 102.56 110.51 146.87 67.55 134.35 56.81"/>
      <polygon class="cls-1" points="149.01 22.56 158.61 32.73 180.35 16.91 180.35 1.1 149.01 22.56"/>
      <polygon class="cls-1" points="183.45 1.1 183.45 16.91 206.89 38.65 226.37 38.65 183.45 1.1"/>
      <polygon class="cls-1" points="226.37 42.2 206.89 42.2 183.45 63.09 183.45 81.44 226.37 42.2"/>
      <polygon class="cls-1" points="180.35 63.37 180.35 82.29 164.68 72.83 164.68 101.77 150.7 111.51 150.7 46 180.35 63.37"/>
      <polygon class="cls-1" points=".5 5.05 .5 69.43 19.32 69.43 19.32 35.55 38.9 21.62 38.9 5.05 19.7 17.85 19.7 5.05 .5 5.05"/>
      <polygon class="cls-1" points="42.1 5.05 42.1 21.62 58.85 35.74 58.85 69.43 75.04 69.43 75.04 25.95 42.1 5.05"/>
      <polygon class="cls-1" points="112.5 5.05 81.72 25.38 81.72 69.43 104.03 80.44 116.17 69.43 98.95 59.83 98.95 30.75 112.5 21.15 112.5 5.05"/>
      <polygon class="cls-1" points="116.04 5.05 116.04 21.15 132.7 32.73 145.12 22.56 116.04 5.05"/>
      <polygon class="cls-1" points="134.35 56.81 91.53 97.86 102.56 110.51 146.87 67.55 134.35 56.81"/>
      <polygon class="cls-1" points="149.01 22.56 158.61 32.73 180.35 16.91 180.35 1.1 149.01 22.56"/>
      <polygon class="cls-1" points="183.45 1.1 183.45 16.91 206.89 38.65 226.37 38.65 183.45 1.1"/>
      <polygon class="cls-1" points="226.37 42.2 206.89 42.2 183.45 63.09 183.45 81.44 226.37 42.2"/>
      <polygon class="cls-1" points="180.35 63.37 180.35 82.29 164.68 72.83 164.68 101.77 150.7 111.51 150.7 46 180.35 63.37"/>
      <polygon class="cls-1" points=".5 5.05 .5 69.43 19.32 69.43 19.32 35.55 38.9 21.62 38.9 5.05 19.7 17.85 19.7 5.05 .5 5.05"/>
      <polygon class="cls-1" points="42.1 5.05 42.1 21.62 58.85 35.74 58.85 69.43 75.04 69.43 75.04 25.95 42.1 5.05"/>
      <polygon class="cls-1" points="112.5 5.05 81.72 25.38 81.72 69.43 104.03 80.44 116.17 69.43 98.95 59.83 98.95 30.75 112.5 21.15 112.5 5.05"/>
      <polygon class="cls-1" points="116.04 5.05 116.04 21.15 132.7 32.73 145.12 22.56 116.04 5.05"/>
      <polygon class="cls-1" points="134.35 56.81 91.53 97.86 102.56 110.51 146.87 67.55 134.35 56.81"/>
      <polygon class="cls-1" points="149.01 22.56 158.61 32.73 180.35 16.91 180.35 1.1 149.01 22.56"/>
      <polygon class="cls-1" points="183.45 1.1 183.45 16.91 206.89 38.65 226.37 38.65 183.45 1.1"/>
      <polygon class="cls-1" points="226.37 42.2 206.89 42.2 183.45 63.09 183.45 81.44 226.37 42.2"/>
      <polygon class="cls-1" points="180.35 63.37 180.35 82.29 164.68 72.83 164.68 101.77 150.7 111.51 150.7 46 180.35 63.37"/>
    </g>
  </g>
</svg>