<svg width="204" height="68" viewBox="0 0 204 68" fill="none" xmlns="http://www.w3.org/2000/svg">
<path opacity="0.7" d="M42.3624 23.1583C44.9727 23.1154 47.4949 24.0827 49.3822 25.8505L54.6485 20.6892C51.325 17.6294 46.922 15.9494 42.3624 16.0012C38.9579 15.9998 35.62 16.9264 32.722 18.6776C29.824 20.4287 27.48 22.9353 25.9521 25.9171L32.0869 30.5781C32.7925 28.4433 34.1634 26.5792 36.0067 25.2481C37.8501 23.9171 40.0729 23.1861 42.3624 23.1583Z" fill="black"/>
<path d="M25.9521 25.9171C24.6685 28.4249 24 31.1918 24 33.9974C24 36.8031 24.6685 39.57 25.9521 42.0778L32.0869 37.4167C31.3192 35.1993 31.3192 32.7956 32.0869 30.5781L25.9521 25.9171Z" fill="black"/>
<path opacity="0.5" d="M48.5798 43.118C47.1602 44.0111 45.5511 44.5747 43.8755 44.7657C42.1998 44.9567 40.5018 44.7701 38.9108 44.2202C37.3199 43.6702 35.8782 42.7715 34.6956 41.5924C33.513 40.4133 32.6207 38.9851 32.0869 37.4167L25.954 42.0778C27.4816 45.0591 29.825 47.5653 32.7223 49.3164C35.6196 51.0675 38.9566 51.9945 42.3605 51.9937C46.8304 52.1124 51.1776 50.5525 54.5126 47.6332L48.5798 43.118Z" fill="black"/>
<path opacity="0.25" d="M59.6559 30.7257H42.3624V37.6867H52.2449C52.0403 38.7878 51.6101 39.8368 50.9801 40.7703C50.3502 41.7038 49.5336 42.5025 48.5798 43.1179L54.5145 47.635C56.3217 45.9292 57.7429 43.8702 58.6862 41.5916C59.6295 39.3129 60.0737 36.8654 59.99 34.4077C59.99 33.1714 59.8799 31.9405 59.6559 30.7257Z" fill="black"/>
<path d="M114.672 46.6774H109.34V38.3254C109.34 36.3328 109.299 33.7696 106.561 33.7696C103.782 33.7696 103.357 35.9368 103.357 38.1778V46.6774H98.0274V29.5H103.147V31.84H103.217C103.931 30.49 105.672 29.068 108.271 29.068C113.673 29.068 114.672 32.6212 114.672 37.249V46.6774ZM92.0046 27.1492C90.2874 27.1492 88.9086 25.7614 88.9086 24.0532C88.9086 22.345 90.2892 20.9572 92.0046 20.9572C92.8257 20.9572 93.6132 21.2834 94.1938 21.864C94.7744 22.4446 95.1006 23.2321 95.1006 24.0532C95.1006 24.8743 94.7744 25.6618 94.1938 26.2424C93.6132 26.823 92.8257 27.1492 92.0046 27.1492ZM94.6758 46.6792H89.3298V29.5H94.6758V46.6774V46.6792ZM117.338 16H86.6568C85.188 16 84 17.161 84 18.592V49.408C84 50.839 85.188 52 86.6568 52H117.332C118.799 52 120 50.8408 120 49.408V18.592C120 17.1628 118.799 16 117.332 16H117.338Z" fill="#003049"/>
<path d="M180 40.9222L169.459 39.7021L164.419 44.7425C158.741 41.8547 154.125 37.2395 151.238 31.5614L156.298 26.5009L155.078 16H144.057C142.897 36.3618 159.638 53.1032 180 51.9431V40.9222Z" fill="#003049"/>
</svg>
