<svg width="995" height="128" viewBox="0 0 995 128" fill="none" xmlns="http://www.w3.org/2000/svg">
<rect width="995" height="128" fill="#FAA31B"/>
<path d="M46.14 73.216C46.26 73.216 46.362 73.258 46.446 73.342L47.166 74.116C46.638 74.68 46.062 75.19 45.438 75.646C44.826 76.09 44.148 76.474 43.404 76.798C42.672 77.11 41.862 77.35 40.974 77.518C40.098 77.698 39.132 77.788 38.076 77.788C36.312 77.788 34.692 77.482 33.216 76.87C31.752 76.246 30.492 75.37 29.436 74.242C28.38 73.102 27.558 71.728 26.97 70.12C26.394 68.512 26.106 66.724 26.106 64.756C26.106 62.824 26.406 61.06 27.006 59.464C27.606 57.868 28.446 56.5 29.526 55.36C30.606 54.208 31.902 53.32 33.414 52.696C34.926 52.06 36.594 51.742 38.418 51.742C40.158 51.742 41.7 52.012 43.044 52.552C44.388 53.092 45.612 53.854 46.716 54.838L46.158 55.648C46.062 55.792 45.912 55.864 45.708 55.864C45.564 55.864 45.33 55.732 45.006 55.468C44.682 55.204 44.232 54.916 43.656 54.604C43.08 54.28 42.36 53.986 41.496 53.722C40.644 53.458 39.618 53.326 38.418 53.326C36.882 53.326 35.472 53.59 34.188 54.118C32.916 54.646 31.818 55.402 30.894 56.386C29.982 57.37 29.268 58.57 28.752 59.986C28.236 61.402 27.978 62.992 27.978 64.756C27.978 66.556 28.236 68.164 28.752 69.58C29.28 70.996 30 72.196 30.912 73.18C31.824 74.152 32.898 74.902 34.134 75.43C35.382 75.946 36.726 76.204 38.166 76.204C39.078 76.204 39.888 76.144 40.596 76.024C41.316 75.904 41.976 75.724 42.576 75.484C43.176 75.244 43.734 74.95 44.25 74.602C44.766 74.254 45.276 73.846 45.78 73.378C45.84 73.33 45.9 73.294 45.96 73.27C46.02 73.234 46.08 73.216 46.14 73.216ZM58.0206 59.302C59.3046 59.302 60.4506 59.524 61.4586 59.968C62.4786 60.4 63.3366 61.018 64.0326 61.822C64.7286 62.626 65.2566 63.598 65.6166 64.738C65.9886 65.866 66.1746 67.132 66.1746 68.536C66.1746 69.94 65.9886 71.206 65.6166 72.334C65.2566 73.462 64.7286 74.428 64.0326 75.232C63.3366 76.036 62.4786 76.654 61.4586 77.086C60.4506 77.518 59.3046 77.734 58.0206 77.734C56.7366 77.734 55.5846 77.518 54.5646 77.086C53.5566 76.654 52.6986 76.036 51.9906 75.232C51.2946 74.428 50.7606 73.462 50.3886 72.334C50.0286 71.206 49.8486 69.94 49.8486 68.536C49.8486 67.132 50.0286 65.866 50.3886 64.738C50.7606 63.598 51.2946 62.626 51.9906 61.822C52.6986 61.018 53.5566 60.4 54.5646 59.968C55.5846 59.524 56.7366 59.302 58.0206 59.302ZM58.0206 76.384C59.0886 76.384 60.0186 76.204 60.8106 75.844C61.6146 75.472 62.2806 74.944 62.8086 74.26C63.3486 73.576 63.7506 72.754 64.0146 71.794C64.2786 70.822 64.4106 69.736 64.4106 68.536C64.4106 67.348 64.2786 66.268 64.0146 65.296C63.7506 64.324 63.3486 63.496 62.8086 62.812C62.2806 62.116 61.6146 61.582 60.8106 61.21C60.0186 60.838 59.0886 60.652 58.0206 60.652C56.9526 60.652 56.0166 60.838 55.2126 61.21C54.4206 61.582 53.7546 62.116 53.2146 62.812C52.6866 63.496 52.2846 64.324 52.0086 65.296C51.7446 66.268 51.6126 67.348 51.6126 68.536C51.6126 69.736 51.7446 70.822 52.0086 71.794C52.2846 72.754 52.6866 73.576 53.2146 74.26C53.7546 74.944 54.4206 75.472 55.2126 75.844C56.0166 76.204 56.9526 76.384 58.0206 76.384ZM72.7308 73.594C73.0788 74.11 73.4388 74.548 73.8108 74.908C74.1948 75.256 74.5968 75.544 75.0168 75.772C75.4368 75.988 75.8808 76.144 76.3488 76.24C76.8288 76.336 77.3328 76.384 77.8608 76.384C78.9168 76.384 79.8408 76.192 80.6328 75.808C81.4248 75.424 82.0848 74.884 82.6128 74.188C83.1528 73.48 83.5548 72.64 83.8188 71.668C84.0948 70.684 84.2328 69.604 84.2328 68.428C84.2328 65.764 83.7408 63.808 82.7568 62.56C81.7728 61.3 80.3628 60.67 78.5268 60.67C77.3388 60.67 76.2648 60.976 75.3048 61.588C74.3448 62.2 73.4868 63.052 72.7308 64.144V73.594ZM72.6588 62.812C73.4508 61.732 74.3748 60.874 75.4308 60.238C76.4988 59.602 77.6928 59.284 79.0128 59.284C81.2088 59.284 82.9188 60.046 84.1428 61.57C85.3788 63.094 85.9968 65.38 85.9968 68.428C85.9968 69.736 85.8228 70.96 85.4748 72.1C85.1388 73.228 84.6348 74.212 83.9628 75.052C83.3028 75.88 82.4868 76.534 81.5148 77.014C80.5548 77.494 79.4448 77.734 78.1848 77.734C76.9728 77.734 75.9228 77.512 75.0348 77.068C74.1468 76.624 73.3788 75.97 72.7308 75.106V83.836H71.0028V59.59H71.9568C72.2568 59.59 72.4308 59.74 72.4788 60.04L72.6588 62.812ZM104.916 59.59L94.6202 83.26C94.5482 83.428 94.4522 83.566 94.3322 83.674C94.2242 83.782 94.0622 83.836 93.8462 83.836H92.6222L95.7722 76.834L88.1942 59.59H89.6162C89.7962 59.59 89.9402 59.638 90.0482 59.734C90.1562 59.818 90.2282 59.914 90.2642 60.022L96.2942 73.954C96.3662 74.134 96.4262 74.32 96.4742 74.512C96.5342 74.692 96.5882 74.878 96.6362 75.07C96.6962 74.878 96.7562 74.692 96.8162 74.512C96.8882 74.32 96.9602 74.134 97.0322 73.954L102.99 60.022C103.05 59.89 103.134 59.788 103.242 59.716C103.35 59.632 103.47 59.59 103.602 59.59H104.916ZM110.153 63.91C110.429 63.178 110.741 62.53 111.089 61.966C111.449 61.39 111.857 60.904 112.313 60.508C112.781 60.112 113.297 59.812 113.861 59.608C114.437 59.392 115.073 59.284 115.769 59.284C116.141 59.284 116.507 59.32 116.867 59.392C117.227 59.452 117.545 59.566 117.821 59.734L117.677 60.922C117.617 61.114 117.503 61.21 117.335 61.21C117.191 61.21 116.969 61.168 116.669 61.084C116.381 61 115.997 60.958 115.517 60.958C114.821 60.958 114.203 61.066 113.663 61.282C113.135 61.486 112.655 61.798 112.223 62.218C111.803 62.638 111.431 63.16 111.107 63.784C110.795 64.396 110.507 65.104 110.243 65.908V77.5H108.515V59.59H109.433C109.637 59.59 109.781 59.632 109.865 59.716C109.949 59.8 110.003 59.944 110.027 60.148L110.153 63.91ZM123.149 59.59V77.5H121.439V59.59H123.149ZM123.887 53.416C123.887 53.632 123.839 53.836 123.743 54.028C123.659 54.208 123.545 54.37 123.401 54.514C123.257 54.658 123.089 54.772 122.897 54.856C122.705 54.94 122.501 54.982 122.285 54.982C122.069 54.982 121.865 54.94 121.673 54.856C121.481 54.772 121.313 54.658 121.169 54.514C121.025 54.37 120.911 54.208 120.827 54.028C120.743 53.836 120.701 53.632 120.701 53.416C120.701 53.2 120.743 52.996 120.827 52.804C120.911 52.6 121.025 52.426 121.169 52.282C121.313 52.138 121.481 52.024 121.673 51.94C121.865 51.856 122.069 51.814 122.285 51.814C122.501 51.814 122.705 51.856 122.897 51.94C123.089 52.024 123.257 52.138 123.401 52.282C123.545 52.426 123.659 52.6 123.743 52.804C123.839 52.996 123.887 53.2 123.887 53.416ZM135.107 69.58C135.875 69.58 136.559 69.472 137.159 69.256C137.759 69.028 138.263 68.716 138.671 68.32C139.079 67.924 139.391 67.45 139.607 66.898C139.823 66.346 139.931 65.734 139.931 65.062C139.931 64.39 139.817 63.778 139.589 63.226C139.373 62.662 139.055 62.182 138.635 61.786C138.227 61.39 137.723 61.084 137.123 60.868C136.535 60.652 135.863 60.544 135.107 60.544C134.351 60.544 133.673 60.652 133.073 60.868C132.485 61.084 131.981 61.39 131.561 61.786C131.153 62.182 130.841 62.662 130.625 63.226C130.409 63.778 130.301 64.39 130.301 65.062C130.301 65.734 130.409 66.346 130.625 66.898C130.841 67.45 131.153 67.924 131.561 68.32C131.981 68.716 132.485 69.028 133.073 69.256C133.673 69.472 134.351 69.58 135.107 69.58ZM141.803 78.706C141.803 78.142 141.653 77.692 141.353 77.356C141.065 77.008 140.675 76.738 140.183 76.546C139.691 76.354 139.121 76.222 138.473 76.15C137.837 76.066 137.165 76.006 136.457 75.97C135.761 75.934 135.059 75.898 134.351 75.862C133.643 75.826 132.977 75.754 132.353 75.646C131.897 75.826 131.477 76.036 131.093 76.276C130.709 76.504 130.379 76.768 130.103 77.068C129.827 77.368 129.611 77.692 129.455 78.04C129.299 78.4 129.221 78.784 129.221 79.192C129.221 79.72 129.353 80.206 129.617 80.65C129.893 81.106 130.289 81.496 130.805 81.82C131.333 82.156 131.975 82.42 132.731 82.612C133.487 82.804 134.357 82.9 135.341 82.9C136.253 82.9 137.099 82.798 137.879 82.594C138.671 82.39 139.355 82.102 139.931 81.73C140.519 81.358 140.975 80.914 141.299 80.398C141.635 79.882 141.803 79.318 141.803 78.706ZM143.675 60.382V60.976C143.675 61.24 143.507 61.402 143.171 61.462L140.435 61.66C140.771 62.116 141.029 62.626 141.209 63.19C141.389 63.754 141.479 64.366 141.479 65.026C141.479 65.89 141.323 66.676 141.011 67.384C140.711 68.08 140.279 68.68 139.715 69.184C139.163 69.676 138.491 70.06 137.699 70.336C136.919 70.612 136.055 70.75 135.107 70.75C134.087 70.75 133.157 70.594 132.317 70.282C131.813 70.57 131.411 70.912 131.111 71.308C130.823 71.692 130.679 72.076 130.679 72.46C130.679 72.976 130.859 73.372 131.219 73.648C131.591 73.924 132.071 74.128 132.659 74.26C133.259 74.38 133.937 74.458 134.693 74.494C135.461 74.53 136.241 74.572 137.033 74.62C137.825 74.656 138.599 74.728 139.355 74.836C140.123 74.944 140.801 75.136 141.389 75.412C141.989 75.676 142.469 76.054 142.829 76.546C143.201 77.026 143.387 77.668 143.387 78.472C143.387 79.216 143.201 79.93 142.829 80.614C142.457 81.298 141.917 81.904 141.209 82.432C140.513 82.96 139.667 83.38 138.671 83.692C137.675 84.016 136.559 84.178 135.323 84.178C134.063 84.178 132.959 84.046 132.011 83.782C131.063 83.53 130.265 83.182 129.617 82.738C128.981 82.306 128.501 81.802 128.177 81.226C127.853 80.65 127.691 80.038 127.691 79.39C127.691 78.442 128.003 77.632 128.627 76.96C129.251 76.276 130.103 75.742 131.183 75.358C130.583 75.154 130.097 74.86 129.725 74.476C129.365 74.08 129.185 73.546 129.185 72.874C129.185 72.622 129.233 72.358 129.329 72.082C129.425 71.806 129.569 71.536 129.761 71.272C129.953 70.996 130.187 70.738 130.463 70.498C130.739 70.258 131.051 70.042 131.399 69.85C130.547 69.358 129.881 68.704 129.401 67.888C128.933 67.072 128.699 66.118 128.699 65.026C128.699 64.162 128.849 63.382 129.149 62.686C129.461 61.978 129.899 61.372 130.463 60.868C131.027 60.364 131.699 59.974 132.479 59.698C133.271 59.422 134.147 59.284 135.107 59.284C135.899 59.284 136.625 59.38 137.285 59.572C137.957 59.764 138.557 60.034 139.085 60.382H143.675ZM149.371 62.614C150.199 61.606 151.141 60.802 152.197 60.202C153.265 59.602 154.459 59.302 155.779 59.302C156.763 59.302 157.627 59.458 158.371 59.77C159.127 60.082 159.751 60.532 160.243 61.12C160.735 61.708 161.107 62.416 161.359 63.244C161.611 64.072 161.737 65.008 161.737 66.052V77.5H160.009V66.052C160.009 64.372 159.625 63.058 158.857 62.11C158.089 61.15 156.919 60.67 155.347 60.67C154.183 60.67 153.091 60.97 152.071 61.57C151.063 62.158 150.163 62.98 149.371 64.036V77.5H147.643V51.31H149.371V62.614ZM172.086 77.788C170.874 77.788 169.926 77.452 169.242 76.78C168.57 76.108 168.234 75.07 168.234 73.666V61.426H165.66C165.528 61.426 165.42 61.39 165.336 61.318C165.252 61.246 165.21 61.144 165.21 61.012V60.346L168.27 60.13L168.702 53.722C168.726 53.614 168.774 53.518 168.846 53.434C168.918 53.35 169.02 53.308 169.152 53.308H169.962V60.148H175.614V61.426H169.962V73.576C169.962 74.068 170.022 74.494 170.142 74.854C170.274 75.202 170.448 75.49 170.664 75.718C170.892 75.946 171.156 76.114 171.456 76.222C171.756 76.33 172.08 76.384 172.428 76.384C172.86 76.384 173.232 76.324 173.544 76.204C173.856 76.072 174.126 75.934 174.354 75.79C174.582 75.634 174.768 75.496 174.912 75.376C175.056 75.244 175.17 75.178 175.254 75.178C175.35 75.178 175.446 75.238 175.542 75.358L176.01 76.114C175.554 76.618 174.972 77.026 174.264 77.338C173.568 77.638 172.842 77.788 172.086 77.788Z" fill="#003049"/>
<path d="M231 42.5C227.44 42.5 223.96 43.5557 221 45.5335C218.04 47.5114 215.733 50.3226 214.37 53.6117C213.008 56.9008 212.651 60.52 213.346 64.0116C214.04 67.5033 215.755 70.7106 218.272 73.2279C220.789 75.7453 223.997 77.4596 227.488 78.1541C230.98 78.8487 234.599 78.4922 237.888 77.1298C241.177 75.7674 243.989 73.4603 245.966 70.5003C247.944 67.5402 249 64.0601 249 60.5C248.994 55.7278 247.096 51.1527 243.722 47.7783C240.347 44.4038 235.772 42.5056 231 42.5ZM231 76.3823C227.859 76.3823 224.788 75.4509 222.176 73.7057C219.564 71.9605 217.529 69.48 216.327 66.5779C215.125 63.6758 214.81 60.4824 215.423 57.4015C216.036 54.3206 217.548 51.4907 219.769 49.2695C221.991 47.0483 224.821 45.5356 227.902 44.9228C230.982 44.31 234.176 44.6245 237.078 45.8266C239.98 47.0287 242.461 49.0644 244.206 51.6762C245.951 54.2881 246.882 57.3588 246.882 60.5C246.878 64.7108 245.203 68.7478 242.225 71.7254C239.248 74.7029 235.211 76.3777 231 76.3823ZM225 60.5C225 61.7593 225.396 62.9867 226.133 64.0083C226.869 65.0298 227.908 65.7939 229.103 66.1921C230.297 66.5903 231.587 66.6026 232.789 66.2271C233.991 65.8516 235.044 65.1074 235.8 64.1C235.969 63.8753 236.22 63.7269 236.498 63.6874C236.776 63.6478 237.059 63.7204 237.283 63.8891C237.508 64.0578 237.656 64.3089 237.696 64.5871C237.735 64.8652 237.663 65.1477 237.494 65.3723C236.472 66.7349 235.046 67.7413 233.42 68.2489C231.794 68.7565 230.049 68.7397 228.433 68.2007C226.817 67.6618 225.412 66.6281 224.416 65.246C223.42 63.8639 222.884 62.2036 222.884 60.5C222.884 58.7964 223.42 57.136 224.416 55.754C225.412 54.3719 226.817 53.3382 228.433 52.7993C230.049 52.2603 231.794 52.2435 233.42 52.7511C235.046 53.2587 236.472 54.2651 237.494 55.6276C237.663 55.8523 237.735 56.1348 237.696 56.4129C237.656 56.6911 237.508 56.9422 237.283 57.1109C237.059 57.2796 236.776 57.3522 236.498 57.3126C236.22 57.2731 235.969 57.1247 235.8 56.9C235.044 55.8926 233.991 55.1484 232.789 54.7729C231.587 54.3974 230.297 54.4097 229.103 54.8079C227.908 55.2061 226.869 55.9701 226.133 56.9917C225.396 58.0133 225 59.2407 225 60.5Z" fill="#003049"/>
<path d="M308.418 52.03V77.5H307.554C307.398 77.5 307.266 77.476 307.158 77.428C307.062 77.368 306.966 77.272 306.87 77.14L290.328 55.036C290.364 55.396 290.382 55.738 290.382 56.062V77.5H288.762V52.03H289.68C289.848 52.03 289.974 52.054 290.058 52.102C290.154 52.138 290.256 52.228 290.364 52.372L306.87 74.422C306.834 74.062 306.816 73.72 306.816 73.396V52.03H308.418ZM316.755 59.59V77.5H315.045V59.59H316.755ZM317.493 53.416C317.493 53.632 317.445 53.836 317.349 54.028C317.265 54.208 317.151 54.37 317.007 54.514C316.863 54.658 316.695 54.772 316.503 54.856C316.311 54.94 316.107 54.982 315.891 54.982C315.675 54.982 315.471 54.94 315.279 54.856C315.087 54.772 314.919 54.658 314.775 54.514C314.631 54.37 314.517 54.208 314.433 54.028C314.349 53.836 314.307 53.632 314.307 53.416C314.307 53.2 314.349 52.996 314.433 52.804C314.517 52.6 314.631 52.426 314.775 52.282C314.919 52.138 315.087 52.024 315.279 51.94C315.471 51.856 315.675 51.814 315.891 51.814C316.107 51.814 316.311 51.856 316.503 51.94C316.695 52.024 316.863 52.138 317.007 52.282C317.151 52.426 317.265 52.6 317.349 52.804C317.445 52.996 317.493 53.2 317.493 53.416ZM324.5 63.91C324.776 63.178 325.088 62.53 325.436 61.966C325.796 61.39 326.204 60.904 326.66 60.508C327.128 60.112 327.644 59.812 328.208 59.608C328.784 59.392 329.42 59.284 330.116 59.284C330.488 59.284 330.854 59.32 331.214 59.392C331.574 59.452 331.892 59.566 332.168 59.734L332.024 60.922C331.964 61.114 331.85 61.21 331.682 61.21C331.538 61.21 331.316 61.168 331.016 61.084C330.728 61 330.344 60.958 329.864 60.958C329.168 60.958 328.55 61.066 328.01 61.282C327.482 61.486 327.002 61.798 326.57 62.218C326.15 62.638 325.778 63.16 325.454 63.784C325.142 64.396 324.854 65.104 324.59 65.908V77.5H322.862V59.59H323.78C323.984 59.59 324.128 59.632 324.212 59.716C324.296 59.8 324.35 59.944 324.374 60.148L324.5 63.91ZM345.228 68.842C343.524 68.902 342.054 69.04 340.818 69.256C339.594 69.46 338.58 69.742 337.776 70.102C336.984 70.462 336.396 70.894 336.012 71.398C335.628 71.89 335.436 72.454 335.436 73.09C335.436 73.69 335.532 74.212 335.724 74.656C335.928 75.088 336.192 75.448 336.516 75.736C336.852 76.012 337.236 76.216 337.668 76.348C338.1 76.48 338.55 76.546 339.018 76.546C339.714 76.546 340.35 76.474 340.926 76.33C341.514 76.174 342.054 75.964 342.546 75.7C343.05 75.424 343.518 75.1 343.95 74.728C344.382 74.356 344.808 73.954 345.228 73.522V68.842ZM334.698 62.128C335.634 61.192 336.618 60.484 337.65 60.004C338.682 59.524 339.852 59.284 341.16 59.284C342.12 59.284 342.96 59.44 343.68 59.752C344.4 60.052 344.994 60.49 345.462 61.066C345.942 61.63 346.302 62.32 346.542 63.136C346.782 63.94 346.902 64.84 346.902 65.836V77.5H346.218C345.858 77.5 345.636 77.332 345.552 76.996L345.3 74.692C344.808 75.172 344.316 75.604 343.824 75.988C343.344 76.372 342.84 76.696 342.312 76.96C341.784 77.224 341.214 77.428 340.602 77.572C339.99 77.716 339.318 77.788 338.586 77.788C337.974 77.788 337.38 77.698 336.804 77.518C336.228 77.338 335.712 77.062 335.256 76.69C334.812 76.318 334.452 75.844 334.176 75.268C333.912 74.68 333.78 73.978 333.78 73.162C333.78 72.406 333.996 71.704 334.428 71.056C334.86 70.408 335.538 69.844 336.462 69.364C337.386 68.884 338.568 68.5 340.008 68.212C341.46 67.924 343.2 67.756 345.228 67.708V65.836C345.228 64.18 344.868 62.908 344.148 62.02C343.44 61.12 342.384 60.67 340.98 60.67C340.116 60.67 339.378 60.79 338.766 61.03C338.166 61.27 337.656 61.534 337.236 61.822C336.816 62.11 336.474 62.374 336.21 62.614C335.946 62.854 335.724 62.974 335.544 62.974C335.412 62.974 335.304 62.944 335.22 62.884C335.136 62.824 335.064 62.746 335.004 62.65L334.698 62.128ZM354.278 62.722C355.106 61.69 356.06 60.862 357.14 60.238C358.232 59.614 359.444 59.302 360.776 59.302C361.76 59.302 362.624 59.458 363.368 59.77C364.124 60.082 364.748 60.532 365.24 61.12C365.732 61.708 366.104 62.416 366.356 63.244C366.608 64.072 366.734 65.008 366.734 66.052V77.5H365.006V66.052C365.006 64.372 364.622 63.058 363.854 62.11C363.086 61.15 361.916 60.67 360.344 60.67C359.18 60.67 358.088 60.97 357.068 61.57C356.06 62.158 355.16 62.98 354.368 64.036V77.5H352.64V59.59H353.594C353.894 59.59 354.068 59.74 354.116 60.04L354.278 62.722ZM374.34 59.59V79.786C374.34 80.41 374.25 80.986 374.07 81.514C373.89 82.042 373.62 82.498 373.26 82.882C372.912 83.278 372.468 83.584 371.928 83.8C371.4 84.028 370.776 84.142 370.056 84.142C369.708 84.142 369.396 84.112 369.12 84.052C368.844 83.992 368.574 83.896 368.31 83.764L368.4 82.9C368.436 82.792 368.484 82.726 368.544 82.702C368.604 82.69 368.688 82.69 368.796 82.702C368.892 82.726 369.018 82.75 369.174 82.774C369.33 82.81 369.528 82.828 369.768 82.828C370.74 82.828 371.46 82.564 371.928 82.036C372.396 81.508 372.63 80.758 372.63 79.786V59.59H374.34ZM375.078 53.416C375.078 53.632 375.03 53.836 374.934 54.028C374.85 54.208 374.73 54.37 374.574 54.514C374.43 54.658 374.262 54.772 374.07 54.856C373.878 54.94 373.674 54.982 373.458 54.982C373.242 54.982 373.038 54.94 372.846 54.856C372.654 54.772 372.486 54.658 372.342 54.514C372.198 54.37 372.084 54.208 372 54.028C371.916 53.836 371.874 53.632 371.874 53.416C371.874 53.2 371.916 52.996 372 52.804C372.084 52.6 372.198 52.426 372.342 52.282C372.486 52.138 372.654 52.024 372.846 51.94C373.038 51.856 373.242 51.814 373.458 51.814C373.674 51.814 373.878 51.856 374.07 51.94C374.262 52.024 374.43 52.138 374.574 52.282C374.73 52.426 374.85 52.6 374.934 52.804C375.03 52.996 375.078 53.2 375.078 53.416ZM390.474 68.842C388.77 68.902 387.3 69.04 386.064 69.256C384.84 69.46 383.826 69.742 383.022 70.102C382.23 70.462 381.642 70.894 381.258 71.398C380.874 71.89 380.682 72.454 380.682 73.09C380.682 73.69 380.778 74.212 380.97 74.656C381.174 75.088 381.438 75.448 381.762 75.736C382.098 76.012 382.482 76.216 382.914 76.348C383.346 76.48 383.796 76.546 384.264 76.546C384.96 76.546 385.596 76.474 386.172 76.33C386.76 76.174 387.3 75.964 387.792 75.7C388.296 75.424 388.764 75.1 389.196 74.728C389.628 74.356 390.054 73.954 390.474 73.522V68.842ZM379.944 62.128C380.88 61.192 381.864 60.484 382.896 60.004C383.928 59.524 385.098 59.284 386.406 59.284C387.366 59.284 388.206 59.44 388.926 59.752C389.646 60.052 390.24 60.49 390.708 61.066C391.188 61.63 391.548 62.32 391.788 63.136C392.028 63.94 392.148 64.84 392.148 65.836V77.5H391.464C391.104 77.5 390.882 77.332 390.798 76.996L390.546 74.692C390.054 75.172 389.562 75.604 389.07 75.988C388.59 76.372 388.086 76.696 387.558 76.96C387.03 77.224 386.46 77.428 385.848 77.572C385.236 77.716 384.564 77.788 383.832 77.788C383.22 77.788 382.626 77.698 382.05 77.518C381.474 77.338 380.958 77.062 380.502 76.69C380.058 76.318 379.698 75.844 379.422 75.268C379.158 74.68 379.026 73.978 379.026 73.162C379.026 72.406 379.242 71.704 379.674 71.056C380.106 70.408 380.784 69.844 381.708 69.364C382.632 68.884 383.814 68.5 385.254 68.212C386.706 67.924 388.446 67.756 390.474 67.708V65.836C390.474 64.18 390.114 62.908 389.394 62.02C388.686 61.12 387.63 60.67 386.226 60.67C385.362 60.67 384.624 60.79 384.012 61.03C383.412 61.27 382.902 61.534 382.482 61.822C382.062 62.11 381.72 62.374 381.456 62.614C381.192 62.854 380.97 62.974 380.79 62.974C380.658 62.974 380.55 62.944 380.466 62.884C380.382 62.824 380.31 62.746 380.25 62.65L379.944 62.128ZM399.524 62.722C400.352 61.69 401.306 60.862 402.386 60.238C403.478 59.614 404.69 59.302 406.022 59.302C407.006 59.302 407.87 59.458 408.614 59.77C409.37 60.082 409.994 60.532 410.486 61.12C410.978 61.708 411.35 62.416 411.602 63.244C411.854 64.072 411.98 65.008 411.98 66.052V77.5H410.252V66.052C410.252 64.372 409.868 63.058 409.1 62.11C408.332 61.15 407.162 60.67 405.59 60.67C404.426 60.67 403.334 60.97 402.314 61.57C401.306 62.158 400.406 62.98 399.614 64.036V77.5H397.886V59.59H398.84C399.14 59.59 399.314 59.74 399.362 60.04L399.524 62.722ZM448.602 65.944V74.998C447.33 75.898 445.974 76.588 444.534 77.068C443.094 77.548 441.474 77.788 439.674 77.788C437.658 77.788 435.846 77.482 434.238 76.87C432.63 76.246 431.256 75.37 430.116 74.242C428.988 73.102 428.118 71.728 427.506 70.12C426.906 68.512 426.606 66.724 426.606 64.756C426.606 62.788 426.9 61.006 427.488 59.41C428.088 57.802 428.94 56.434 430.044 55.306C431.16 54.166 432.504 53.29 434.076 52.678C435.648 52.054 437.418 51.742 439.386 51.742C440.358 51.742 441.252 51.808 442.068 51.94C442.896 52.072 443.664 52.27 444.372 52.534C445.08 52.786 445.74 53.104 446.352 53.488C446.964 53.86 447.552 54.292 448.116 54.784L447.612 55.576C447.444 55.864 447.192 55.93 446.856 55.774C446.676 55.702 446.418 55.534 446.082 55.27C445.746 55.006 445.284 54.73 444.696 54.442C444.108 54.154 443.376 53.896 442.5 53.668C441.636 53.44 440.58 53.326 439.332 53.326C437.676 53.326 436.176 53.59 434.832 54.118C433.5 54.646 432.36 55.402 431.412 56.386C430.476 57.37 429.75 58.57 429.234 59.986C428.73 61.402 428.478 62.992 428.478 64.756C428.478 66.544 428.73 68.152 429.234 69.58C429.75 71.008 430.488 72.22 431.448 73.216C432.42 74.212 433.596 74.974 434.976 75.502C436.356 76.03 437.91 76.294 439.638 76.294C440.394 76.294 441.09 76.246 441.726 76.15C442.374 76.054 442.986 75.922 443.562 75.754C444.15 75.574 444.714 75.358 445.254 75.106C445.806 74.842 446.364 74.548 446.928 74.224V67.366H442.05C441.918 67.366 441.804 67.324 441.708 67.24C441.624 67.156 441.582 67.06 441.582 66.952V65.944H448.602ZM471.096 65.764C472.212 65.764 473.214 65.608 474.102 65.296C474.99 64.984 475.74 64.552 476.352 64C476.976 63.448 477.45 62.8 477.774 62.056C478.11 61.3 478.278 60.478 478.278 59.59C478.278 57.634 477.678 56.128 476.478 55.072C475.278 54.016 473.484 53.488 471.096 53.488H466.362V65.764H471.096ZM471.096 52.03C474.084 52.03 476.334 52.684 477.846 53.992C479.37 55.3 480.132 57.166 480.132 59.59C480.132 60.706 479.922 61.732 479.502 62.668C479.082 63.604 478.482 64.414 477.702 65.098C476.922 65.77 475.974 66.298 474.858 66.682C473.742 67.054 472.488 67.24 471.096 67.24H466.362V77.5H464.508V52.03H471.096ZM523.286 50.194H524.636V83.89H523.286V50.194ZM585.232 75.88C585.424 75.88 585.574 75.94 585.682 76.06C585.79 76.168 585.844 76.312 585.844 76.492V77.5H569.41V76.888C569.41 76.756 569.44 76.624 569.5 76.492C569.572 76.348 569.662 76.228 569.77 76.132L578.464 67.33C579.184 66.598 579.85 65.89 580.462 65.206C581.074 64.522 581.602 63.832 582.046 63.136C582.502 62.44 582.856 61.726 583.108 60.994C583.36 60.262 583.486 59.482 583.486 58.654C583.486 57.718 583.33 56.908 583.018 56.224C582.706 55.528 582.292 54.958 581.776 54.514C581.26 54.07 580.66 53.74 579.976 53.524C579.292 53.308 578.584 53.2 577.852 53.2C577.048 53.2 576.304 53.326 575.62 53.578C574.948 53.818 574.348 54.16 573.82 54.604C573.304 55.036 572.872 55.558 572.524 56.17C572.188 56.77 571.954 57.43 571.822 58.15C571.738 58.414 571.624 58.588 571.48 58.672C571.348 58.756 571.162 58.786 570.922 58.762L570.04 58.618C570.196 57.526 570.496 56.554 570.94 55.702C571.384 54.85 571.948 54.13 572.632 53.542C573.316 52.954 574.108 52.51 575.008 52.21C575.908 51.898 576.88 51.742 577.924 51.742C578.896 51.742 579.82 51.886 580.696 52.174C581.584 52.45 582.364 52.876 583.036 53.452C583.72 54.016 584.26 54.73 584.656 55.594C585.052 56.446 585.25 57.448 585.25 58.6C585.25 59.56 585.1 60.454 584.8 61.282C584.512 62.098 584.116 62.884 583.612 63.64C583.108 64.396 582.52 65.134 581.848 65.854C581.188 66.562 580.492 67.288 579.76 68.032L571.786 76.168C572.17 76.072 572.566 76 572.974 75.952C573.394 75.904 573.814 75.88 574.234 75.88H585.232ZM607.789 64.756C607.789 66.988 607.549 68.92 607.069 70.552C606.589 72.184 605.935 73.534 605.107 74.602C604.279 75.67 603.307 76.468 602.191 76.996C601.087 77.512 599.905 77.77 598.645 77.77C597.385 77.77 596.203 77.512 595.099 76.996C593.995 76.468 593.029 75.67 592.201 74.602C591.373 73.534 590.719 72.184 590.239 70.552C589.771 68.92 589.537 66.988 589.537 64.756C589.537 62.524 589.771 60.592 590.239 58.96C590.719 57.328 591.373 55.978 592.201 54.91C593.029 53.842 593.995 53.05 595.099 52.534C596.203 52.006 597.385 51.742 598.645 51.742C599.905 51.742 601.087 52.006 602.191 52.534C603.307 53.05 604.279 53.842 605.107 54.91C605.935 55.978 606.589 57.328 607.069 58.96C607.549 60.592 607.789 62.524 607.789 64.756ZM605.989 64.756C605.989 62.692 605.791 60.928 605.395 59.464C604.999 58 604.465 56.806 603.793 55.882C603.133 54.946 602.353 54.262 601.453 53.83C600.565 53.398 599.629 53.182 598.645 53.182C597.661 53.182 596.725 53.398 595.837 53.83C594.949 54.262 594.169 54.946 593.497 55.882C592.825 56.806 592.291 58 591.895 59.464C591.499 60.928 591.301 62.692 591.301 64.756C591.301 66.832 591.499 68.602 591.895 70.066C592.291 71.518 592.825 72.712 593.497 73.648C594.169 74.572 594.949 75.25 595.837 75.682C596.725 76.102 597.661 76.312 598.645 76.312C599.629 76.312 600.565 76.102 601.453 75.682C602.353 75.25 603.133 74.572 603.793 73.648C604.465 72.712 604.999 71.518 605.395 70.066C605.791 68.602 605.989 66.832 605.989 64.756ZM626.997 75.88C627.189 75.88 627.339 75.94 627.447 76.06C627.555 76.168 627.609 76.312 627.609 76.492V77.5H611.175V76.888C611.175 76.756 611.205 76.624 611.265 76.492C611.337 76.348 611.427 76.228 611.535 76.132L620.229 67.33C620.949 66.598 621.615 65.89 622.227 65.206C622.839 64.522 623.367 63.832 623.811 63.136C624.267 62.44 624.621 61.726 624.873 60.994C625.125 60.262 625.251 59.482 625.251 58.654C625.251 57.718 625.095 56.908 624.783 56.224C624.471 55.528 624.057 54.958 623.541 54.514C623.025 54.07 622.425 53.74 621.741 53.524C621.057 53.308 620.349 53.2 619.617 53.2C618.813 53.2 618.069 53.326 617.385 53.578C616.713 53.818 616.113 54.16 615.585 54.604C615.069 55.036 614.637 55.558 614.289 56.17C613.953 56.77 613.719 57.43 613.587 58.15C613.503 58.414 613.389 58.588 613.245 58.672C613.113 58.756 612.927 58.786 612.687 58.762L611.805 58.618C611.961 57.526 612.261 56.554 612.705 55.702C613.149 54.85 613.713 54.13 614.397 53.542C615.081 52.954 615.873 52.51 616.773 52.21C617.673 51.898 618.645 51.742 619.689 51.742C620.661 51.742 621.585 51.886 622.461 52.174C623.349 52.45 624.129 52.876 624.801 53.452C625.485 54.016 626.025 54.73 626.421 55.594C626.817 56.446 627.015 57.448 627.015 58.6C627.015 59.56 626.865 60.454 626.565 61.282C626.277 62.098 625.881 62.884 625.377 63.64C624.873 64.396 624.285 65.134 623.613 65.854C622.953 66.562 622.257 67.288 621.525 68.032L613.551 76.168C613.935 76.072 614.331 76 614.739 75.952C615.159 75.904 615.579 75.88 615.999 75.88H626.997ZM632.796 58.618C632.952 57.526 633.252 56.554 633.696 55.702C634.14 54.85 634.704 54.13 635.388 53.542C636.072 52.954 636.864 52.51 637.764 52.21C638.664 51.898 639.636 51.742 640.68 51.742C641.652 51.742 642.57 51.88 643.434 52.156C644.298 52.42 645.054 52.822 645.702 53.362C646.362 53.902 646.878 54.574 647.25 55.378C647.634 56.182 647.826 57.112 647.826 58.168C647.826 58.996 647.7 59.746 647.448 60.418C647.196 61.078 646.842 61.66 646.386 62.164C645.942 62.668 645.414 63.094 644.802 63.442C644.19 63.778 643.524 64.036 642.804 64.216C644.676 64.564 646.086 65.29 647.034 66.394C647.994 67.486 648.474 68.854 648.474 70.498C648.474 71.542 648.264 72.514 647.844 73.414C647.424 74.302 646.848 75.07 646.116 75.718C645.384 76.366 644.52 76.876 643.524 77.248C642.528 77.608 641.448 77.788 640.284 77.788C638.832 77.788 637.62 77.596 636.648 77.212C635.688 76.816 634.896 76.306 634.272 75.682C633.648 75.058 633.162 74.362 632.814 73.594C632.466 72.814 632.184 72.04 631.968 71.272L632.652 70.984C632.844 70.9 633.042 70.876 633.246 70.912C633.462 70.948 633.618 71.086 633.714 71.326C633.774 71.47 633.852 71.698 633.948 72.01C634.056 72.31 634.206 72.646 634.398 73.018C634.59 73.39 634.836 73.774 635.136 74.17C635.448 74.554 635.832 74.908 636.288 75.232C636.756 75.556 637.314 75.82 637.962 76.024C638.61 76.228 639.378 76.33 640.266 76.33C641.346 76.33 642.288 76.15 643.092 75.79C643.908 75.43 644.586 74.974 645.126 74.422C645.678 73.858 646.086 73.234 646.35 72.55C646.626 71.854 646.764 71.182 646.764 70.534C646.764 69.754 646.638 69.028 646.386 68.356C646.146 67.684 645.738 67.108 645.162 66.628C644.586 66.136 643.824 65.752 642.876 65.476C641.94 65.188 640.782 65.044 639.402 65.044V63.802C640.506 63.778 641.478 63.634 642.318 63.37C643.158 63.094 643.86 62.722 644.424 62.254C644.988 61.786 645.414 61.228 645.702 60.58C645.99 59.932 646.134 59.218 646.134 58.438C646.134 57.538 645.984 56.758 645.684 56.098C645.384 55.438 644.982 54.892 644.478 54.46C643.974 54.028 643.386 53.71 642.714 53.506C642.042 53.302 641.34 53.2 640.608 53.2C639.804 53.2 639.06 53.326 638.376 53.578C637.692 53.818 637.086 54.16 636.558 54.604C636.042 55.036 635.61 55.558 635.262 56.17C634.914 56.77 634.674 57.43 634.542 58.15C634.47 58.414 634.368 58.588 634.236 58.672C634.104 58.756 633.918 58.786 633.678 58.762L632.796 58.618Z" fill="#003049"/>
<path opacity="0.7" d="M833.362 53.1583C835.973 53.1154 838.495 54.0827 840.382 55.8505L845.648 50.6892C842.325 47.6294 837.922 45.9494 833.362 46.0012C829.958 45.9998 826.62 46.9264 823.722 48.6776C820.824 50.4287 818.48 52.9353 816.952 55.9171L823.087 60.5781C823.792 58.4433 825.163 56.5792 827.007 55.2481C828.85 53.9171 831.073 53.1861 833.362 53.1583Z" fill="black"/>
<path d="M816.952 55.9171C815.668 58.4249 815 61.1918 815 63.9974C815 66.8031 815.668 69.57 816.952 72.0778L823.087 67.4167C822.319 65.1993 822.319 62.7956 823.087 60.5781L816.952 55.9171Z" fill="black"/>
<path opacity="0.5" d="M839.58 73.118C838.16 74.0111 836.551 74.5747 834.875 74.7657C833.2 74.9567 831.502 74.7701 829.911 74.2202C828.32 73.6702 826.878 72.7715 825.696 71.5924C824.513 70.4133 823.621 68.9851 823.087 67.4167L816.954 72.0778C818.482 75.0591 820.825 77.5653 823.722 79.3164C826.62 81.0675 829.957 81.9945 833.361 81.9937C837.83 82.1124 842.178 80.5525 845.513 77.6332L839.58 73.118Z" fill="black"/>
<path opacity="0.25" d="M850.656 60.7257H833.362V67.6867H843.245C843.04 68.7878 842.61 69.8368 841.98 70.7703C841.35 71.7038 840.534 72.5025 839.58 73.1179L845.514 77.635C847.322 75.9292 848.743 73.8702 849.686 71.5916C850.629 69.3129 851.074 66.8654 850.99 64.4077C850.99 63.1714 850.88 61.9405 850.656 60.7257Z" fill="black"/>
<path d="M905.672 76.6774H900.34V68.3254C900.34 66.3328 900.299 63.7696 897.561 63.7696C894.782 63.7696 894.357 65.9368 894.357 68.1778V76.6774H889.027V59.5H894.147V61.84H894.217C894.931 60.49 896.672 59.068 899.271 59.068C904.673 59.068 905.672 62.6212 905.672 67.249V76.6774ZM883.005 57.1492C881.287 57.1492 879.909 55.7614 879.909 54.0532C879.909 52.345 881.289 50.9572 883.005 50.9572C883.826 50.9572 884.613 51.2834 885.194 51.864C885.774 52.4446 886.101 53.2321 886.101 54.0532C886.101 54.8743 885.774 55.6618 885.194 56.2424C884.613 56.823 883.826 57.1492 883.005 57.1492ZM885.676 76.6792H880.33V59.5H885.676V76.6774V76.6792ZM908.338 46H877.657C876.188 46 875 47.161 875 48.592V79.408C875 80.839 876.188 82 877.657 82H908.332C909.799 82 911 80.8408 911 79.408V48.592C911 47.1628 909.799 46 908.332 46H908.338Z" fill="#003049"/>
<path d="M971 70.9222L960.459 69.7021L955.419 74.7425C949.741 71.8547 945.125 67.2395 942.238 61.5614L947.298 56.5009L946.078 46H935.057C933.897 66.3618 950.638 83.1032 971 81.9431V70.9222Z" fill="#003049"/>
</svg>
