<svg width="1280" height="104" viewBox="0 0 1280 104" fill="none" xmlns="http://www.w3.org/2000/svg">
<rect width="1280" height="104" fill="#003049" fill-opacity="0.8"/>
<g clip-path="url(#clip0_7_109)">
<path d="M95 10H11V94H95V10Z" fill="#003049"/>
<path d="M22.0133 25.2367V78.7633H37.67V50.6L53.9333 39.0033V25.2367L37.9733 35.8767V25.2367H22.0133Z" fill="#FAA31E"/>
<path d="M56.5933 25.2367V39.0033L70.5233 50.74V78.7633H83.9867V42.5967L56.5933 25.2367Z" fill="#FAA31E"/>
<path d="M22.0133 25.2367V78.7633H37.67V50.6L53.9333 39.0033V25.2367L37.9733 35.8767V25.2367H22.0133Z" fill="#FAA31E"/>
<path d="M56.5933 25.2367V39.0033L70.5233 50.74V78.7633H83.9867V42.5967L56.5933 25.2367Z" fill="#FAA31E"/>
<path d="M22.0133 25.2367V78.7633H37.67V50.6L53.9333 39.0033V25.2367L37.9733 35.8767V25.2367H22.0133Z" fill="#FAA31E"/>
<path d="M56.5933 25.2367V39.0033L70.5233 50.74V78.7633H83.9867V42.5967L56.5933 25.2367Z" fill="#FAA31E"/>
<path d="M22.0133 25.2367V78.7633H37.67V50.6L53.9333 39.0033V25.2367L37.9733 35.8767V25.2367H22.0133Z" fill="#FAA31E"/>
<path d="M56.5933 25.2367V39.0033L70.5233 50.74V78.7633H83.9867V42.5967L56.5933 25.2367Z" fill="#FAA31E"/>
</g>
<path d="M140.17 52.612C141.402 52.612 142.289 52.318 142.83 51.73C143.371 51.142 143.642 50.3207 143.642 49.266C143.642 48.7993 143.572 48.3747 143.432 47.992C143.292 47.6093 143.077 47.2827 142.788 47.012C142.508 46.732 142.149 46.5173 141.71 46.368C141.281 46.2187 140.767 46.144 140.17 46.144H137.706V52.612H140.17ZM140.17 42.602C141.607 42.602 142.839 42.7747 143.866 43.12C144.902 43.456 145.751 43.9227 146.414 44.52C147.086 45.1173 147.581 45.822 147.898 46.634C148.215 47.446 148.374 48.3233 148.374 49.266C148.374 50.2833 148.211 51.2167 147.884 52.066C147.557 52.9153 147.058 53.6433 146.386 54.25C145.714 54.8567 144.86 55.3327 143.824 55.678C142.797 56.014 141.579 56.182 140.17 56.182H137.706V63H132.974V42.602H140.17ZM154.139 50.722C154.587 49.938 155.101 49.322 155.679 48.874C156.267 48.426 156.939 48.202 157.695 48.202C158.349 48.202 158.881 48.356 159.291 48.664L159.011 51.856C158.965 52.0613 158.885 52.2013 158.773 52.276C158.671 52.3507 158.526 52.388 158.339 52.388C158.265 52.388 158.167 52.3833 158.045 52.374C157.924 52.3647 157.798 52.3553 157.667 52.346C157.537 52.3273 157.401 52.3133 157.261 52.304C157.131 52.2853 157.009 52.276 156.897 52.276C156.263 52.276 155.754 52.444 155.371 52.78C154.998 53.116 154.681 53.5827 154.419 54.18V63H150.079V48.482H152.655C152.87 48.482 153.047 48.5007 153.187 48.538C153.337 48.5753 153.458 48.636 153.551 48.72C153.654 48.7947 153.729 48.8973 153.775 49.028C153.831 49.1587 153.878 49.3173 153.915 49.504L154.139 50.722ZM167.217 48.258C168.318 48.258 169.321 48.4307 170.227 48.776C171.132 49.1213 171.907 49.616 172.551 50.26C173.204 50.904 173.708 51.688 174.063 52.612C174.427 53.5267 174.609 54.558 174.609 55.706C174.609 56.8633 174.427 57.9087 174.063 58.842C173.708 59.766 173.204 60.5547 172.551 61.208C171.907 61.852 171.132 62.3513 170.227 62.706C169.321 63.0513 168.318 63.224 167.217 63.224C166.106 63.224 165.093 63.0513 164.179 62.706C163.273 62.3513 162.489 61.852 161.827 61.208C161.173 60.5547 160.665 59.766 160.301 58.842C159.946 57.9087 159.769 56.8633 159.769 55.706C159.769 54.558 159.946 53.5267 160.301 52.612C160.665 51.688 161.173 50.904 161.827 50.26C162.489 49.616 163.273 49.1213 164.179 48.776C165.093 48.4307 166.106 48.258 167.217 48.258ZM167.217 60.004C168.215 60.004 168.948 59.654 169.415 58.954C169.891 58.2447 170.129 57.1713 170.129 55.734C170.129 54.2967 169.891 53.228 169.415 52.528C168.948 51.828 168.215 51.478 167.217 51.478C166.19 51.478 165.439 51.828 164.963 52.528C164.487 53.228 164.249 54.2967 164.249 55.734C164.249 57.1713 164.487 58.2447 164.963 58.954C165.439 59.654 166.19 60.004 167.217 60.004ZM181.232 48.482V63.028C181.232 63.7093 181.144 64.3487 180.966 64.946C180.798 65.5527 180.514 66.08 180.112 66.528C179.72 66.9853 179.198 67.3447 178.544 67.606C177.9 67.8673 177.098 67.998 176.136 67.998C175.782 67.998 175.455 67.9747 175.156 67.928C174.848 67.8907 174.531 67.83 174.204 67.746L174.344 65.464C174.363 65.268 174.428 65.1233 174.54 65.03C174.652 64.9367 174.876 64.89 175.212 64.89C175.548 64.89 175.824 64.862 176.038 64.806C176.253 64.75 176.421 64.652 176.542 64.512C176.673 64.372 176.762 64.1807 176.808 63.938C176.864 63.7047 176.892 63.4013 176.892 63.028V48.482H181.232ZM181.68 44.506C181.68 44.8513 181.61 45.178 181.47 45.486C181.33 45.7847 181.139 46.0507 180.896 46.284C180.654 46.508 180.369 46.69 180.042 46.83C179.725 46.9607 179.384 47.026 179.02 47.026C178.666 47.026 178.334 46.9607 178.026 46.83C177.718 46.69 177.443 46.508 177.2 46.284C176.967 46.0507 176.78 45.7847 176.64 45.486C176.51 45.178 176.444 44.8513 176.444 44.506C176.444 44.1513 176.51 43.82 176.64 43.512C176.78 43.204 176.967 42.9333 177.2 42.7C177.443 42.4667 177.718 42.2847 178.026 42.154C178.334 42.0233 178.666 41.958 179.02 41.958C179.384 41.958 179.725 42.0233 180.042 42.154C180.369 42.2847 180.654 42.4667 180.896 42.7C181.139 42.9333 181.33 43.204 181.47 43.512C181.61 43.82 181.68 44.1513 181.68 44.506ZM193.289 53.998C193.289 53.6527 193.242 53.3167 193.149 52.99C193.065 52.6633 192.92 52.374 192.715 52.122C192.519 51.8607 192.258 51.6507 191.931 51.492C191.604 51.3333 191.208 51.254 190.741 51.254C189.92 51.254 189.276 51.492 188.809 51.968C188.342 52.4347 188.034 53.1113 187.885 53.998H193.289ZM187.829 56.518C187.969 57.7313 188.338 58.6133 188.935 59.164C189.532 59.7053 190.302 59.976 191.245 59.976C191.749 59.976 192.183 59.9153 192.547 59.794C192.911 59.6727 193.233 59.5373 193.513 59.388C193.802 59.2387 194.064 59.1033 194.297 58.982C194.54 58.8607 194.792 58.8 195.053 58.8C195.398 58.8 195.66 58.926 195.837 59.178L197.097 60.732C196.649 61.2453 196.164 61.6653 195.641 61.992C195.128 62.3093 194.596 62.5613 194.045 62.748C193.504 62.9253 192.958 63.0467 192.407 63.112C191.866 63.1867 191.348 63.224 190.853 63.224C189.836 63.224 188.879 63.0607 187.983 62.734C187.096 62.398 186.317 61.9033 185.645 61.25C184.982 60.5967 184.455 59.7847 184.063 58.814C183.68 57.8433 183.489 56.714 183.489 55.426C183.489 54.4553 183.652 53.536 183.979 52.668C184.315 51.8 184.791 51.0393 185.407 50.386C186.032 49.7327 186.784 49.2147 187.661 48.832C188.548 48.4493 189.546 48.258 190.657 48.258C191.618 48.258 192.496 48.4073 193.289 48.706C194.092 49.0047 194.778 49.4387 195.347 50.008C195.926 50.5773 196.374 51.2773 196.691 52.108C197.018 52.9293 197.181 53.8627 197.181 54.908C197.181 55.2347 197.167 55.5007 197.139 55.706C197.111 55.9113 197.06 56.0747 196.985 56.196C196.91 56.3173 196.808 56.4013 196.677 56.448C196.556 56.4947 196.397 56.518 196.201 56.518H187.829ZM210.021 51.926C209.89 52.0847 209.764 52.2107 209.643 52.304C209.521 52.3973 209.349 52.444 209.125 52.444C208.91 52.444 208.714 52.3927 208.537 52.29C208.369 52.1873 208.177 52.0753 207.963 51.954C207.748 51.8233 207.496 51.7067 207.207 51.604C206.917 51.5013 206.558 51.45 206.129 51.45C205.597 51.45 205.135 51.548 204.743 51.744C204.36 51.94 204.043 52.22 203.791 52.584C203.539 52.948 203.352 53.396 203.231 53.928C203.109 54.4507 203.049 55.0433 203.049 55.706C203.049 57.0967 203.315 58.1653 203.847 58.912C204.388 59.6587 205.13 60.032 206.073 60.032C206.577 60.032 206.973 59.9713 207.263 59.85C207.561 59.7193 207.813 59.5793 208.019 59.43C208.224 59.2713 208.411 59.1267 208.579 58.996C208.756 58.8653 208.975 58.8 209.237 58.8C209.582 58.8 209.843 58.926 210.021 59.178L211.281 60.732C210.833 61.2453 210.361 61.6653 209.867 61.992C209.372 62.3093 208.863 62.5613 208.341 62.748C207.827 62.9253 207.309 63.0467 206.787 63.112C206.264 63.1867 205.755 63.224 205.261 63.224C204.374 63.224 203.525 63.056 202.713 62.72C201.91 62.384 201.201 61.8987 200.585 61.264C199.978 60.62 199.493 59.8313 199.129 58.898C198.774 57.9647 198.597 56.9007 198.597 55.706C198.597 54.6607 198.751 53.6853 199.059 52.78C199.376 51.8653 199.838 51.0767 200.445 50.414C201.061 49.742 201.817 49.2147 202.713 48.832C203.618 48.4493 204.663 48.258 205.849 48.258C206.987 48.258 207.986 48.44 208.845 48.804C209.703 49.168 210.478 49.7 211.169 50.4L210.021 51.926ZM218.164 63.224C217.473 63.224 216.862 63.126 216.33 62.93C215.807 62.7247 215.364 62.44 215 62.076C214.645 61.7027 214.375 61.2547 214.188 60.732C214.001 60.2093 213.908 59.626 213.908 58.982V51.478H212.676C212.452 51.478 212.261 51.408 212.102 51.268C211.943 51.1187 211.864 50.904 211.864 50.624V48.93L214.174 48.482L215.028 44.94C215.14 44.492 215.457 44.268 215.98 44.268H218.248V48.51H221.846V51.478H218.248V58.688C218.248 59.024 218.327 59.304 218.486 59.528C218.654 59.7427 218.892 59.85 219.2 59.85C219.359 59.85 219.489 59.836 219.592 59.808C219.704 59.7707 219.797 59.7333 219.872 59.696C219.956 59.6493 220.031 59.612 220.096 59.584C220.171 59.5467 220.255 59.528 220.348 59.528C220.479 59.528 220.581 59.5607 220.656 59.626C220.74 59.682 220.824 59.7753 220.908 59.906L222.224 61.964C221.664 62.384 221.034 62.7013 220.334 62.916C219.634 63.1213 218.911 63.224 218.164 63.224ZM232.942 51.66C232.83 51.8373 232.709 51.9633 232.578 52.038C232.457 52.1127 232.298 52.15 232.102 52.15C231.897 52.15 231.691 52.108 231.486 52.024C231.281 51.9307 231.057 51.8327 230.814 51.73C230.581 51.6273 230.315 51.534 230.016 51.45C229.717 51.3567 229.377 51.31 228.994 51.31C228.443 51.31 228.019 51.4173 227.72 51.632C227.431 51.8373 227.286 52.1267 227.286 52.5C227.286 52.7707 227.379 52.9947 227.566 53.172C227.762 53.3493 228.019 53.508 228.336 53.648C228.653 53.7787 229.013 53.9047 229.414 54.026C229.815 54.1473 230.226 54.2827 230.646 54.432C231.066 54.5813 231.477 54.7587 231.878 54.964C232.279 55.16 232.639 55.4073 232.956 55.706C233.273 55.9953 233.525 56.35 233.712 56.77C233.908 57.19 234.006 57.694 234.006 58.282C234.006 59.0007 233.875 59.6633 233.614 60.27C233.353 60.8767 232.961 61.3993 232.438 61.838C231.925 62.2767 231.285 62.6173 230.52 62.86C229.764 63.1027 228.891 63.224 227.902 63.224C227.407 63.224 226.913 63.1773 226.418 63.084C225.923 62.9907 225.443 62.8647 224.976 62.706C224.519 62.5473 224.094 62.3607 223.702 62.146C223.31 61.922 222.974 61.684 222.694 61.432L223.702 59.836C223.814 59.6493 223.954 59.5047 224.122 59.402C224.299 59.29 224.523 59.234 224.794 59.234C225.046 59.234 225.27 59.29 225.466 59.402C225.671 59.514 225.891 59.6353 226.124 59.766C226.357 59.8967 226.628 60.018 226.936 60.13C227.253 60.242 227.65 60.298 228.126 60.298C228.462 60.298 228.747 60.2653 228.98 60.2C229.213 60.1253 229.4 60.0273 229.54 59.906C229.68 59.7847 229.783 59.6493 229.848 59.5C229.913 59.3507 229.946 59.1967 229.946 59.038C229.946 58.7487 229.848 58.5107 229.652 58.324C229.456 58.1373 229.199 57.9787 228.882 57.848C228.565 57.708 228.201 57.582 227.79 57.47C227.389 57.3487 226.978 57.2133 226.558 57.064C226.138 56.9147 225.723 56.7373 225.312 56.532C224.911 56.3173 224.551 56.0513 224.234 55.734C223.917 55.4073 223.66 55.0107 223.464 54.544C223.268 54.0773 223.17 53.5127 223.17 52.85C223.17 52.234 223.287 51.6507 223.52 51.1C223.763 50.54 224.122 50.05 224.598 49.63C225.074 49.21 225.671 48.8787 226.39 48.636C227.109 48.384 227.949 48.258 228.91 48.258C229.433 48.258 229.937 48.3047 230.422 48.398C230.917 48.4913 231.379 48.622 231.808 48.79C232.237 48.958 232.629 49.1587 232.984 49.392C233.339 49.616 233.651 49.8633 233.922 50.134L232.942 51.66Z" fill="white"/>
<path d="M279.176 52.584C279.941 52.584 280.613 52.4907 281.192 52.304C281.78 52.1173 282.27 51.856 282.662 51.52C283.054 51.1747 283.348 50.7687 283.544 50.302C283.74 49.826 283.838 49.3033 283.838 48.734C283.838 47.5767 283.455 46.704 282.69 46.116C281.934 45.528 280.795 45.234 279.274 45.234H276.46V52.584H279.176ZM288.556 63H285.896C285.364 63 284.977 62.79 284.734 62.37L279.764 55.398C279.605 55.1647 279.433 55.0013 279.246 54.908C279.059 54.8053 278.779 54.754 278.406 54.754H276.46V63H273.478V42.896H279.274C280.571 42.896 281.687 43.0313 282.62 43.302C283.563 43.5633 284.337 43.9413 284.944 44.436C285.56 44.9213 286.013 45.5093 286.302 46.2C286.601 46.8907 286.75 47.6653 286.75 48.524C286.75 49.224 286.643 49.882 286.428 50.498C286.213 51.114 285.896 51.6693 285.476 52.164C285.065 52.6493 284.561 53.0693 283.964 53.424C283.367 53.7787 282.69 54.0493 281.934 54.236C282.307 54.46 282.629 54.7727 282.9 55.174L288.556 63ZM299.074 54.306C299.074 53.7647 298.995 53.2653 298.836 52.808C298.687 52.3507 298.463 51.954 298.164 51.618C297.866 51.282 297.502 51.0207 297.072 50.834C296.643 50.6473 296.148 50.554 295.588 50.554C294.44 50.554 293.535 50.8853 292.872 51.548C292.219 52.2107 291.804 53.13 291.626 54.306H299.074ZM301.328 60.97C300.992 61.362 300.605 61.7027 300.166 61.992C299.728 62.272 299.261 62.5007 298.766 62.678C298.272 62.8553 297.758 62.986 297.226 63.07C296.704 63.154 296.186 63.196 295.672 63.196C294.692 63.196 293.782 63.0327 292.942 62.706C292.112 62.37 291.388 61.8847 290.772 61.25C290.166 60.606 289.69 59.8127 289.344 58.87C289.008 57.918 288.84 56.826 288.84 55.594C288.84 54.6047 288.994 53.6853 289.302 52.836C289.61 51.9773 290.049 51.2307 290.618 50.596C291.197 49.9613 291.902 49.462 292.732 49.098C293.563 48.734 294.496 48.552 295.532 48.552C296.4 48.552 297.198 48.6967 297.926 48.986C298.664 49.266 299.298 49.6767 299.83 50.218C300.362 50.7593 300.778 51.4267 301.076 52.22C301.384 53.0133 301.538 53.9187 301.538 54.936C301.538 55.356 301.492 55.6407 301.398 55.79C301.305 55.93 301.132 56 300.88 56H291.556C291.584 56.8493 291.706 57.5913 291.92 58.226C292.135 58.8513 292.429 59.374 292.802 59.794C293.185 60.214 293.638 60.5267 294.16 60.732C294.683 60.9373 295.266 61.04 295.91 61.04C296.517 61.04 297.04 60.97 297.478 60.83C297.926 60.69 298.309 60.5407 298.626 60.382C298.953 60.214 299.224 60.06 299.438 59.92C299.662 59.78 299.858 59.71 300.026 59.71C300.25 59.71 300.423 59.794 300.544 59.962L301.328 60.97ZM312.859 51.226C312.784 51.3473 312.705 51.436 312.621 51.492C312.537 51.5387 312.429 51.562 312.299 51.562C312.149 51.562 311.981 51.5107 311.795 51.408C311.617 51.3053 311.398 51.1933 311.137 51.072C310.885 50.9507 310.586 50.8387 310.241 50.736C309.895 50.6333 309.485 50.582 309.009 50.582C308.617 50.582 308.257 50.6333 307.931 50.736C307.613 50.8293 307.343 50.9647 307.119 51.142C306.895 51.31 306.722 51.5153 306.601 51.758C306.479 51.9913 306.419 52.2433 306.419 52.514C306.419 52.8687 306.521 53.1627 306.727 53.396C306.941 53.6293 307.217 53.83 307.553 53.998C307.898 54.166 308.285 54.32 308.715 54.46C309.153 54.5907 309.597 54.7307 310.045 54.88C310.502 55.0293 310.945 55.202 311.375 55.398C311.813 55.5847 312.201 55.8227 312.537 56.112C312.882 56.392 313.157 56.7327 313.363 57.134C313.577 57.5353 313.685 58.0253 313.685 58.604C313.685 59.2667 313.563 59.8827 313.321 60.452C313.087 61.012 312.737 61.4973 312.271 61.908C311.813 62.3187 311.244 62.6407 310.563 62.874C309.881 63.1073 309.102 63.224 308.225 63.224C307.245 63.224 306.339 63.0607 305.509 62.734C304.678 62.4073 303.983 61.992 303.423 61.488L304.067 60.438C304.141 60.3073 304.235 60.2093 304.347 60.144C304.459 60.0693 304.608 60.032 304.795 60.032C304.972 60.032 305.154 60.0973 305.341 60.228C305.527 60.3587 305.751 60.5033 306.013 60.662C306.274 60.8113 306.591 60.9513 306.965 61.082C307.338 61.2033 307.805 61.264 308.365 61.264C308.831 61.264 309.237 61.208 309.583 61.096C309.928 60.9747 310.213 60.816 310.437 60.62C310.67 60.4147 310.843 60.1813 310.955 59.92C311.067 59.6587 311.123 59.3833 311.123 59.094C311.123 58.7207 311.015 58.4127 310.801 58.17C310.595 57.918 310.32 57.7033 309.975 57.526C309.639 57.3487 309.251 57.1947 308.813 57.064C308.374 56.9333 307.926 56.7933 307.469 56.644C307.011 56.4947 306.563 56.322 306.125 56.126C305.686 55.93 305.294 55.6827 304.949 55.384C304.613 55.0853 304.337 54.7213 304.123 54.292C303.917 53.8627 303.815 53.34 303.815 52.724C303.815 52.1733 303.927 51.646 304.151 51.142C304.384 50.638 304.715 50.1947 305.145 49.812C305.583 49.4293 306.12 49.126 306.755 48.902C307.399 48.6687 308.131 48.552 308.953 48.552C309.895 48.552 310.745 48.7013 311.501 49C312.266 49.2987 312.919 49.7093 313.461 50.232L312.859 51.226ZM328.471 48.776V63H326.833C326.459 63 326.217 62.818 326.105 62.454L325.909 61.026C325.601 61.3527 325.279 61.6513 324.943 61.922C324.607 62.1927 324.247 62.426 323.865 62.622C323.482 62.8087 323.076 62.9533 322.647 63.056C322.217 63.168 321.755 63.224 321.261 63.224C320.477 63.224 319.786 63.0933 319.189 62.832C318.601 62.5707 318.106 62.2067 317.705 61.74C317.303 61.264 317 60.6947 316.795 60.032C316.589 59.3693 316.487 58.6367 316.487 57.834V48.776H319.231V57.834C319.231 58.8513 319.464 59.6447 319.931 60.214C320.397 60.774 321.111 61.054 322.073 61.054C322.773 61.054 323.426 60.8907 324.033 60.564C324.639 60.228 325.209 59.7707 325.741 59.192V48.776H328.471ZM332.281 63V48.776H333.919C334.302 48.776 334.54 48.958 334.633 49.322L334.829 50.68C335.352 50.0547 335.931 49.546 336.565 49.154C337.209 48.7527 337.961 48.552 338.819 48.552C339.762 48.552 340.527 48.8133 341.115 49.336C341.703 49.8493 342.133 50.5493 342.403 51.436C342.609 50.932 342.875 50.498 343.201 50.134C343.528 49.77 343.892 49.4713 344.293 49.238C344.695 49.0047 345.119 48.832 345.567 48.72C346.025 48.608 346.487 48.552 346.953 48.552C347.709 48.552 348.381 48.6733 348.969 48.916C349.567 49.1493 350.071 49.4947 350.481 49.952C350.892 50.4093 351.205 50.974 351.419 51.646C351.634 52.318 351.741 53.0833 351.741 53.942V63H348.997V53.942C348.997 52.878 348.764 52.0753 348.297 51.534C347.84 50.9927 347.168 50.722 346.281 50.722C345.889 50.722 345.516 50.792 345.161 50.932C344.807 51.0627 344.494 51.2633 344.223 51.534C343.962 51.8047 343.752 52.1407 343.593 52.542C343.444 52.9433 343.369 53.41 343.369 53.942V63H340.625V53.942C340.625 52.8407 340.406 52.0287 339.967 51.506C339.529 50.9833 338.885 50.722 338.035 50.722C337.447 50.722 336.901 50.876 336.397 51.184C335.893 51.492 335.431 51.912 335.011 52.444V63H332.281ZM364.836 54.306C364.836 53.7647 364.757 53.2653 364.598 52.808C364.449 52.3507 364.225 51.954 363.926 51.618C363.627 51.282 363.263 51.0207 362.834 50.834C362.405 50.6473 361.91 50.554 361.35 50.554C360.202 50.554 359.297 50.8853 358.634 51.548C357.981 52.2107 357.565 53.13 357.388 54.306H364.836ZM367.09 60.97C366.754 61.362 366.367 61.7027 365.928 61.992C365.489 62.272 365.023 62.5007 364.528 62.678C364.033 62.8553 363.52 62.986 362.988 63.07C362.465 63.154 361.947 63.196 361.434 63.196C360.454 63.196 359.544 63.0327 358.704 62.706C357.873 62.37 357.15 61.8847 356.534 61.25C355.927 60.606 355.451 59.8127 355.106 58.87C354.77 57.918 354.602 56.826 354.602 55.594C354.602 54.6047 354.756 53.6853 355.064 52.836C355.372 51.9773 355.811 51.2307 356.38 50.596C356.959 49.9613 357.663 49.462 358.494 49.098C359.325 48.734 360.258 48.552 361.294 48.552C362.162 48.552 362.96 48.6967 363.688 48.986C364.425 49.266 365.06 49.6767 365.592 50.218C366.124 50.7593 366.539 51.4267 366.838 52.22C367.146 53.0133 367.3 53.9187 367.3 54.936C367.3 55.356 367.253 55.6407 367.16 55.79C367.067 55.93 366.894 56 366.642 56H357.318C357.346 56.8493 357.467 57.5913 357.682 58.226C357.897 58.8513 358.191 59.374 358.564 59.794C358.947 60.214 359.399 60.5267 359.922 60.732C360.445 60.9373 361.028 61.04 361.672 61.04C362.279 61.04 362.801 60.97 363.24 60.83C363.688 60.69 364.071 60.5407 364.388 60.382C364.715 60.214 364.985 60.06 365.2 59.92C365.424 59.78 365.62 59.71 365.788 59.71C366.012 59.71 366.185 59.794 366.306 59.962L367.09 60.97Z" fill="white"/>
<path d="M421.52 58.688C421.688 58.688 421.833 58.7533 421.954 58.884L423.13 60.172C422.309 61.1427 421.305 61.894 420.12 62.426C418.944 62.958 417.525 63.224 415.864 63.224C414.408 63.224 413.087 62.972 411.902 62.468C410.726 61.964 409.718 61.2593 408.878 60.354C408.047 59.4487 407.403 58.366 406.946 57.106C406.489 55.846 406.26 54.46 406.26 52.948C406.26 51.436 406.498 50.05 406.974 48.79C407.459 47.53 408.136 46.4473 409.004 45.542C409.872 44.6367 410.908 43.932 412.112 43.428C413.325 42.924 414.665 42.672 416.13 42.672C417.558 42.672 418.827 42.9053 419.938 43.372C421.049 43.8387 422.015 44.4593 422.836 45.234L421.856 46.62C421.791 46.7227 421.707 46.8067 421.604 46.872C421.511 46.9373 421.385 46.97 421.226 46.97C421.049 46.97 420.839 46.8813 420.596 46.704C420.363 46.5267 420.05 46.3307 419.658 46.116C419.275 45.892 418.799 45.6913 418.23 45.514C417.661 45.3367 416.951 45.248 416.102 45.248C415.103 45.248 414.189 45.4253 413.358 45.78C412.527 46.1253 411.809 46.6293 411.202 47.292C410.605 47.9453 410.138 48.7527 409.802 49.714C409.475 50.666 409.312 51.744 409.312 52.948C409.312 54.1707 409.485 55.258 409.83 56.21C410.175 57.162 410.651 57.9693 411.258 58.632C411.865 59.2947 412.579 59.7987 413.4 60.144C414.221 60.4893 415.108 60.662 416.06 60.662C416.639 60.662 417.157 60.6293 417.614 60.564C418.081 60.4893 418.505 60.382 418.888 60.242C419.28 60.102 419.649 59.9247 419.994 59.71C420.339 59.486 420.68 59.22 421.016 58.912C421.091 58.8467 421.17 58.7953 421.254 58.758C421.338 58.7113 421.427 58.688 421.52 58.688ZM431.355 48.552C432.4 48.552 433.343 48.7247 434.183 49.07C435.032 49.406 435.751 49.896 436.339 50.54C436.936 51.1747 437.394 51.9447 437.711 52.85C438.028 53.746 438.187 54.754 438.187 55.874C438.187 56.994 438.028 58.0067 437.711 58.912C437.394 59.8173 436.936 60.5873 436.339 61.222C435.751 61.8567 435.032 62.3467 434.183 62.692C433.343 63.028 432.4 63.196 431.355 63.196C430.3 63.196 429.348 63.028 428.499 62.692C427.659 62.3467 426.94 61.8567 426.343 61.222C425.746 60.5873 425.284 59.8173 424.957 58.912C424.64 58.0067 424.481 56.994 424.481 55.874C424.481 54.754 424.64 53.746 424.957 52.85C425.284 51.9447 425.746 51.1747 426.343 50.54C426.94 49.896 427.659 49.406 428.499 49.07C429.348 48.7247 430.3 48.552 431.355 48.552ZM431.355 61.068C432.699 61.068 433.702 60.6153 434.365 59.71C435.028 58.8047 435.359 57.5307 435.359 55.888C435.359 54.2453 435.028 52.9713 434.365 52.066C433.702 51.1513 432.699 50.694 431.355 50.694C429.992 50.694 428.975 51.1513 428.303 52.066C427.64 52.9713 427.309 54.2453 427.309 55.888C427.309 57.5307 427.64 58.8047 428.303 59.71C428.975 60.6153 429.992 61.068 431.355 61.068ZM443.796 50.75C444.104 50.4233 444.426 50.1247 444.762 49.854C445.098 49.5833 445.453 49.3547 445.826 49.168C446.209 48.972 446.615 48.8227 447.044 48.72C447.483 48.608 447.95 48.552 448.444 48.552C449.228 48.552 449.914 48.6827 450.502 48.944C451.1 49.2053 451.599 49.574 452 50.05C452.402 50.5167 452.705 51.0813 452.91 51.744C453.116 52.4067 453.218 53.1393 453.218 53.942V63H450.474V53.942C450.474 52.9247 450.241 52.136 449.774 51.576C449.308 51.0067 448.594 50.722 447.632 50.722C446.932 50.722 446.274 50.89 445.658 51.226C445.052 51.5527 444.487 52.0007 443.964 52.57V63H441.234V48.776H442.872C443.255 48.776 443.493 48.958 443.586 49.322L443.796 50.75ZM461.163 63.224C460.015 63.224 459.128 62.902 458.503 62.258C457.887 61.614 457.579 60.6947 457.579 59.5V50.988H455.927C455.768 50.988 455.633 50.9413 455.521 50.848C455.418 50.7453 455.367 50.596 455.367 50.4V49.294L457.677 48.972L458.293 44.73C458.33 44.5713 458.4 44.45 458.503 44.366C458.615 44.2727 458.755 44.226 458.923 44.226H460.309V49H464.341V50.988H460.309V59.318C460.309 59.878 460.444 60.298 460.715 60.578C460.995 60.8487 461.35 60.984 461.779 60.984C462.031 60.984 462.246 60.9513 462.423 60.886C462.61 60.8207 462.768 60.7507 462.899 60.676C463.03 60.592 463.142 60.5173 463.235 60.452C463.328 60.3867 463.412 60.354 463.487 60.354C463.58 60.354 463.65 60.3773 463.697 60.424C463.753 60.4613 463.809 60.5267 463.865 60.62L464.677 61.936C464.229 62.3467 463.697 62.664 463.081 62.888C462.465 63.112 461.826 63.224 461.163 63.224ZM474.5 56.686C473.389 56.7233 472.446 56.812 471.672 56.952C470.897 57.0827 470.267 57.26 469.782 57.484C469.296 57.708 468.946 57.974 468.732 58.282C468.517 58.5807 468.41 58.9167 468.41 59.29C468.41 59.6447 468.466 59.9527 468.578 60.214C468.699 60.466 468.858 60.676 469.053 60.844C469.259 61.0027 469.497 61.1193 469.768 61.194C470.038 61.2687 470.332 61.306 470.65 61.306C471.07 61.306 471.452 61.264 471.798 61.18C472.152 61.096 472.484 60.9793 472.792 60.83C473.1 60.6713 473.394 60.48 473.674 60.256C473.954 60.032 474.229 59.7753 474.5 59.486V56.686ZM466.492 50.764C467.285 50.008 468.144 49.4433 469.068 49.07C470.001 48.6967 471.023 48.51 472.133 48.51C472.946 48.51 473.664 48.6453 474.29 48.916C474.915 49.1773 475.442 49.546 475.872 50.022C476.301 50.498 476.623 51.0673 476.838 51.73C477.062 52.3927 477.174 53.1253 477.174 53.928V63H475.956C475.685 63 475.48 62.958 475.34 62.874C475.2 62.7807 475.088 62.6127 475.004 62.37L474.71 61.124C474.346 61.46 473.986 61.7587 473.632 62.02C473.277 62.272 472.904 62.4913 472.512 62.678C472.129 62.8553 471.718 62.9907 471.28 63.084C470.841 63.1773 470.356 63.224 469.824 63.224C469.264 63.224 468.736 63.1493 468.242 63C467.756 62.8413 467.332 62.6033 466.968 62.286C466.604 61.9687 466.314 61.572 466.1 61.096C465.894 60.62 465.792 60.0647 465.792 59.43C465.792 58.87 465.941 58.3333 466.24 57.82C466.548 57.2973 467.042 56.8307 467.724 56.42C468.414 56.0093 469.31 55.6733 470.412 55.412C471.522 55.1507 472.885 55.0013 474.5 54.964V53.928C474.5 52.8547 474.271 52.052 473.814 51.52C473.356 50.988 472.684 50.722 471.798 50.722C471.2 50.722 470.696 50.7967 470.286 50.946C469.884 51.0953 469.534 51.2633 469.236 51.45C468.946 51.6273 468.69 51.7907 468.466 51.94C468.251 52.0893 468.027 52.164 467.794 52.164C467.607 52.164 467.444 52.1127 467.304 52.01C467.173 51.9073 467.066 51.786 466.982 51.646L466.492 50.764ZM490.796 51.436C490.712 51.5387 490.628 51.6227 490.544 51.688C490.469 51.744 490.357 51.772 490.208 51.772C490.059 51.772 489.9 51.716 489.732 51.604C489.573 51.4827 489.368 51.3567 489.116 51.226C488.873 51.086 488.575 50.96 488.22 50.848C487.875 50.7267 487.445 50.666 486.932 50.666C486.26 50.666 485.667 50.7873 485.154 51.03C484.641 51.2727 484.211 51.618 483.866 52.066C483.53 52.514 483.273 53.06 483.096 53.704C482.919 54.348 482.83 55.0713 482.83 55.874C482.83 56.7047 482.923 57.4467 483.11 58.1C483.297 58.744 483.563 59.29 483.908 59.738C484.253 60.1767 484.673 60.5127 485.168 60.746C485.663 60.97 486.213 61.082 486.82 61.082C487.408 61.082 487.893 61.012 488.276 60.872C488.659 60.7227 488.976 60.564 489.228 60.396C489.48 60.228 489.69 60.074 489.858 59.934C490.026 59.7847 490.199 59.71 490.376 59.71C490.6 59.71 490.773 59.794 490.894 59.962L491.678 60.97C491.351 61.3713 490.983 61.712 490.572 61.992C490.171 62.272 489.741 62.5007 489.284 62.678C488.827 62.8553 488.346 62.986 487.842 63.07C487.347 63.154 486.843 63.196 486.33 63.196C485.443 63.196 484.613 63.0327 483.838 62.706C483.073 62.3793 482.405 61.9033 481.836 61.278C481.276 60.6527 480.833 59.8873 480.506 58.982C480.179 58.0673 480.016 57.0313 480.016 55.874C480.016 54.8193 480.161 53.844 480.45 52.948C480.749 52.052 481.183 51.282 481.752 50.638C482.331 49.9847 483.04 49.476 483.88 49.112C484.72 48.7387 485.681 48.552 486.764 48.552C487.781 48.552 488.677 48.7153 489.452 49.042C490.227 49.3687 490.917 49.8307 491.524 50.428L490.796 51.436ZM498.679 63.224C497.531 63.224 496.644 62.902 496.019 62.258C495.403 61.614 495.095 60.6947 495.095 59.5V50.988H493.443C493.284 50.988 493.149 50.9413 493.037 50.848C492.934 50.7453 492.883 50.596 492.883 50.4V49.294L495.193 48.972L495.809 44.73C495.846 44.5713 495.916 44.45 496.019 44.366C496.131 44.2727 496.271 44.226 496.439 44.226H497.825V49H501.857V50.988H497.825V59.318C497.825 59.878 497.96 60.298 498.231 60.578C498.511 60.8487 498.865 60.984 499.295 60.984C499.547 60.984 499.761 60.9513 499.939 60.886C500.125 60.8207 500.284 60.7507 500.415 60.676C500.545 60.592 500.657 60.5173 500.751 60.452C500.844 60.3867 500.928 60.354 501.003 60.354C501.096 60.354 501.166 60.3773 501.213 60.424C501.269 60.4613 501.325 60.5267 501.381 60.62L502.193 61.936C501.745 62.3467 501.213 62.664 500.597 62.888C499.981 63.112 499.341 63.224 498.679 63.224Z" fill="white"/>
<defs>
<clipPath id="clip0_7_109">
<rect width="84" height="84" fill="white" transform="translate(11 10)"/>
</clipPath>
</defs>
</svg>
