<svg width="565" height="444" viewBox="0 0 565 444" fill="none" xmlns="http://www.w3.org/2000/svg">
<rect width="565" height="444" fill="#D9D9D9"/>
<path d="M371 138H195C191.817 138 188.765 139.264 186.515 141.515C184.264 143.765 183 146.817 183 150V294C183 297.183 184.264 300.235 186.515 302.485C188.765 304.736 191.817 306 195 306H371C374.183 306 377.235 304.736 379.485 302.485C381.736 300.235 383 297.183 383 294V150C383 146.817 381.736 143.765 379.485 141.515C377.235 139.264 374.183 138 371 138ZM195 146H371C372.061 146 373.078 146.421 373.828 147.172C374.579 147.922 375 148.939 375 150V262.4L342.11 229.51C340.995 228.391 339.67 227.504 338.212 226.898C336.753 226.292 335.189 225.981 333.61 225.981C332.031 225.981 330.467 226.292 329.008 226.898C327.55 227.504 326.225 228.391 325.11 229.51L302.28 252.34L255.46 205.51C254.345 204.391 253.02 203.504 251.562 202.898C250.103 202.292 248.539 201.981 246.96 201.981C245.381 201.981 243.817 202.292 242.358 202.898C240.9 203.504 239.575 204.391 238.46 205.51L191 253V150C191 148.939 191.421 147.922 192.172 147.172C192.922 146.421 193.939 146 195 146ZM191 294V264.34L244.17 211.17C244.541 210.798 244.983 210.503 245.468 210.302C245.954 210.1 246.474 209.997 247 209.997C247.526 209.997 248.046 210.1 248.532 210.302C249.017 210.503 249.459 210.798 249.83 211.17L336.66 298H195C193.939 298 192.922 297.579 192.172 296.828C191.421 296.078 191 295.061 191 294ZM371 298H348L308 258L330.83 235.17C331.201 234.798 331.643 234.503 332.128 234.302C332.614 234.1 333.134 233.997 333.66 233.997C334.186 233.997 334.706 234.1 335.192 234.302C335.677 234.503 336.119 234.798 336.49 235.17L375 273.71V294C375 295.061 374.579 296.078 373.828 296.828C373.078 297.579 372.061 298 371 298ZM303 194C303 192.418 303.469 190.871 304.348 189.555C305.227 188.24 306.477 187.214 307.939 186.609C309.4 186.003 311.009 185.845 312.561 186.154C314.113 186.462 315.538 187.224 316.657 188.343C317.776 189.462 318.538 190.887 318.846 192.439C319.155 193.991 318.997 195.6 318.391 197.061C317.786 198.523 316.76 199.773 315.445 200.652C314.129 201.531 312.582 202 311 202C308.878 202 306.843 201.157 305.343 199.657C303.843 198.157 303 196.122 303 194Z" fill="black"/>
</svg>
