<svg width="528" height="694" viewBox="0 0 528 694" fill="none" xmlns="http://www.w3.org/2000/svg">
<g filter="url(#filter0_d_21_182)">
<rect width="512" height="674" rx="16" fill="white" shape-rendering="crispEdges"/>
<rect width="512" height="452" fill="#D9D9D9"/>
<path d="M336.198 140.487H176.708C173.824 140.487 171.058 141.774 169.019 144.065C166.979 146.356 165.834 149.463 165.834 152.703V299.297C165.834 302.537 166.979 305.645 169.019 307.936C171.058 310.227 173.824 311.514 176.708 311.514H336.198C339.082 311.514 341.848 310.227 343.888 307.936C345.927 305.645 347.073 302.537 347.073 299.297V152.703C347.073 149.463 345.927 146.356 343.888 144.065C341.848 141.774 339.082 140.487 336.198 140.487ZM176.708 148.631H336.198C337.16 148.631 338.082 149.06 338.761 149.823C339.441 150.587 339.823 151.623 339.823 152.703V267.128L310.018 233.645C309.008 232.507 307.808 231.603 306.486 230.986C305.164 230.37 303.747 230.052 302.316 230.052C300.884 230.052 299.467 230.37 298.145 230.986C296.824 231.603 295.623 232.507 294.613 233.645L273.925 256.887L231.496 209.213C230.486 208.074 229.286 207.17 227.964 206.554C226.642 205.937 225.225 205.62 223.794 205.62C222.363 205.62 220.945 205.937 219.624 206.554C218.302 207.17 217.101 208.074 216.091 209.213L173.083 257.559V152.703C173.083 151.623 173.465 150.587 174.145 149.823C174.825 149.06 175.747 148.631 176.708 148.631ZM173.083 299.297V269.103L221.266 214.975C221.602 214.596 222.002 214.296 222.442 214.091C222.882 213.886 223.354 213.781 223.83 213.781C224.306 213.781 224.778 213.886 225.218 214.091C225.658 214.296 226.058 214.596 226.395 214.975L305.079 303.369H176.708C175.747 303.369 174.825 302.94 174.145 302.177C173.465 301.413 173.083 300.377 173.083 299.297ZM336.198 303.369H315.356L279.108 262.649L299.796 239.407C300.133 239.029 300.533 238.728 300.973 238.524C301.413 238.319 301.885 238.213 302.361 238.213C302.837 238.213 303.309 238.319 303.749 238.524C304.189 238.728 304.589 239.029 304.925 239.407L339.823 278.642V299.297C339.823 300.377 339.441 301.413 338.761 302.177C338.082 302.94 337.16 303.369 336.198 303.369ZM274.577 197.496C274.577 195.885 275.002 194.31 275.799 192.971C276.595 191.632 277.728 190.588 279.052 189.971C280.377 189.355 281.835 189.194 283.241 189.508C284.647 189.822 285.939 190.598 286.953 191.737C287.967 192.876 288.657 194.327 288.937 195.907C289.217 197.487 289.073 199.124 288.524 200.612C287.976 202.1 287.046 203.372 285.854 204.267C284.662 205.162 283.26 205.64 281.827 205.64C279.904 205.64 278.06 204.782 276.7 203.254C275.341 201.727 274.577 199.656 274.577 197.496Z" fill="black"/>
<path d="M25.904 495.704C26.736 495.704 27.4667 495.597 28.096 495.384C28.736 495.171 29.264 494.872 29.68 494.488C30.1067 494.093 30.4267 493.619 30.64 493.064C30.8533 492.509 30.96 491.891 30.96 491.208C30.96 490.536 30.8533 489.933 30.64 489.4C30.4373 488.867 30.128 488.413 29.712 488.04C29.296 487.667 28.768 487.384 28.128 487.192C27.4987 486.989 26.7573 486.888 25.904 486.888H22.48V495.704H25.904ZM25.904 483.96C27.408 483.96 28.7093 484.136 29.808 484.488C30.9173 484.84 31.8293 485.336 32.544 485.976C33.2693 486.605 33.808 487.368 34.16 488.264C34.512 489.149 34.688 490.131 34.688 491.208C34.688 492.307 34.5013 493.315 34.128 494.232C33.7547 495.139 33.2 495.923 32.464 496.584C31.728 497.235 30.8107 497.747 29.712 498.12C28.624 498.483 27.3547 498.664 25.904 498.664H22.48V507H18.736V483.96H25.904ZM40.594 493.704C41.106 492.669 41.7247 491.859 42.45 491.272C43.1753 490.675 44.0447 490.376 45.058 490.376C45.41 490.376 45.7407 490.419 46.05 490.504C46.3593 490.579 46.6367 490.696 46.882 490.856L46.642 493.448C46.5993 493.629 46.53 493.757 46.434 493.832C46.3487 493.896 46.2313 493.928 46.082 493.928C45.922 493.928 45.6927 493.901 45.394 493.848C45.0953 493.784 44.7807 493.752 44.45 493.752C43.97 493.752 43.5433 493.821 43.17 493.96C42.8073 494.099 42.4767 494.301 42.178 494.568C41.89 494.835 41.634 495.16 41.41 495.544C41.186 495.928 40.978 496.365 40.786 496.856V507H37.346V490.68H39.346C39.7087 490.68 39.9593 490.749 40.098 490.888C40.2367 491.016 40.3327 491.245 40.386 491.576L40.594 493.704ZM55.652 490.424C56.8573 490.424 57.9453 490.621 58.916 491.016C59.8973 491.411 60.7293 491.971 61.412 492.696C62.1053 493.421 62.6387 494.301 63.012 495.336C63.3853 496.371 63.572 497.533 63.572 498.824C63.572 500.115 63.3853 501.277 63.012 502.312C62.6387 503.347 62.1053 504.232 61.412 504.968C60.7293 505.693 59.8973 506.253 58.916 506.648C57.9453 507.043 56.8573 507.24 55.652 507.24C54.436 507.24 53.3373 507.043 52.356 506.648C51.3853 506.253 50.5533 505.693 49.86 504.968C49.1667 504.232 48.6333 503.347 48.26 502.312C47.8867 501.277 47.7 500.115 47.7 498.824C47.7 497.533 47.8867 496.371 48.26 495.336C48.6333 494.301 49.1667 493.421 49.86 492.696C50.5533 491.971 51.3853 491.411 52.356 491.016C53.3373 490.621 54.436 490.424 55.652 490.424ZM55.652 504.552C57.124 504.552 58.2173 504.061 58.932 503.08C59.6573 502.088 60.02 500.675 60.02 498.84C60.02 497.005 59.6573 495.592 58.932 494.6C58.2173 493.597 57.124 493.096 55.652 493.096C54.1587 493.096 53.0493 493.597 52.324 494.6C51.5987 495.592 51.236 497.005 51.236 498.84C51.236 500.675 51.5987 502.088 52.324 503.08C53.0493 504.061 54.1587 504.552 55.652 504.552ZM70.4613 490.68V507.848C70.4613 508.531 70.3706 509.171 70.1893 509.768C70.0079 510.376 69.7199 510.904 69.3253 511.352C68.9306 511.8 68.4186 512.152 67.7893 512.408C67.1706 512.664 66.4186 512.792 65.5333 512.792C65.1599 512.792 64.8239 512.765 64.5252 512.712C64.2266 512.659 63.9226 512.584 63.6132 512.488L63.7412 510.616C63.7732 510.403 63.8639 510.28 64.0132 510.248C64.1519 510.216 64.4239 510.2 64.8293 510.2C65.6399 510.2 66.2053 510.019 66.5253 509.656C66.8559 509.304 67.0213 508.701 67.0213 507.848V490.68H70.4613ZM71.0213 485.752C71.0213 486.061 70.9573 486.355 70.8293 486.632C70.7119 486.909 70.5466 487.155 70.3333 487.368C70.1199 487.571 69.8746 487.736 69.5973 487.864C69.3199 487.981 69.0213 488.04 68.7013 488.04C68.3919 488.04 68.0986 487.981 67.8213 487.864C67.5546 487.736 67.3146 487.571 67.1013 487.368C66.8986 487.155 66.7386 486.909 66.6213 486.632C66.5039 486.355 66.4453 486.061 66.4453 485.752C66.4453 485.432 66.5039 485.133 66.6213 484.856C66.7386 484.579 66.8986 484.339 67.1013 484.136C67.3146 483.923 67.5546 483.757 67.8213 483.64C68.0986 483.512 68.3919 483.448 68.7013 483.448C69.0213 483.448 69.3199 483.512 69.5973 483.64C69.8746 483.757 70.1199 483.923 70.3333 484.136C70.5466 484.339 70.7119 484.579 70.8293 484.856C70.9573 485.133 71.0213 485.432 71.0213 485.752ZM85.4875 497C85.4875 496.424 85.4022 495.891 85.2315 495.4C85.0715 494.899 84.8315 494.467 84.5115 494.104C84.1915 493.731 83.7915 493.443 83.3115 493.24C82.8422 493.027 82.2982 492.92 81.6795 492.92C80.4315 492.92 79.4502 493.277 78.7355 493.992C78.0208 494.707 77.5675 495.709 77.3755 497H85.4875ZM77.2795 499.112C77.3222 500.04 77.4662 500.845 77.7115 501.528C77.9568 502.2 78.2822 502.76 78.6875 503.208C79.1035 503.656 79.5942 503.992 80.1595 504.216C80.7355 504.429 81.3755 504.536 82.0795 504.536C82.7515 504.536 83.3328 504.461 83.8235 504.312C84.3142 504.152 84.7408 503.981 85.1035 503.8C85.4662 503.608 85.7755 503.437 86.0315 503.288C86.2875 503.128 86.5222 503.048 86.7355 503.048C87.0128 503.048 87.2262 503.155 87.3755 503.368L88.3515 504.632C87.9462 505.112 87.4875 505.517 86.9755 505.848C86.4635 506.179 85.9195 506.451 85.3435 506.664C84.7675 506.867 84.1755 507.011 83.5675 507.096C82.9595 507.192 82.3675 507.24 81.7915 507.24C80.6608 507.24 79.6102 507.053 78.6395 506.68C77.6795 506.296 76.8422 505.736 76.1275 505C75.4235 504.264 74.8688 503.352 74.4635 502.264C74.0688 501.176 73.8715 499.923 73.8715 498.504C73.8715 497.373 74.0475 496.317 74.3995 495.336C74.7622 494.355 75.2742 493.501 75.9355 492.776C76.6075 492.051 77.4182 491.48 78.3675 491.064C79.3275 490.637 80.4102 490.424 81.6155 490.424C82.6182 490.424 83.5462 490.589 84.3995 490.92C85.2528 491.24 85.9888 491.715 86.6075 492.344C87.2262 492.973 87.7062 493.747 88.0475 494.664C88.3995 495.571 88.5755 496.605 88.5755 497.768C88.5755 498.301 88.5168 498.659 88.3995 498.84C88.2822 499.021 88.0688 499.112 87.7595 499.112H77.2795ZM103.32 493.88C103.213 494.019 103.112 494.125 103.016 494.2C102.92 494.275 102.781 494.312 102.6 494.312C102.418 494.312 102.226 494.248 102.024 494.12C101.832 493.992 101.597 493.853 101.32 493.704C101.053 493.544 100.728 493.4 100.344 493.272C99.9595 493.144 99.4795 493.08 98.9035 493.08C98.1568 493.08 97.5008 493.213 96.9355 493.48C96.3808 493.747 95.9115 494.131 95.5275 494.632C95.1542 495.123 94.8715 495.725 94.6795 496.44C94.4982 497.144 94.4075 497.939 94.4075 498.824C94.4075 499.741 94.5088 500.557 94.7115 501.272C94.9142 501.987 95.2022 502.589 95.5755 503.08C95.9595 503.571 96.4182 503.944 96.9515 504.2C97.4955 504.456 98.1035 504.584 98.7755 504.584C99.4368 504.584 99.9755 504.504 100.392 504.344C100.808 504.184 101.154 504.008 101.432 503.816C101.709 503.624 101.944 503.448 102.136 503.288C102.338 503.128 102.552 503.048 102.776 503.048C103.053 503.048 103.266 503.155 103.416 503.368L104.392 504.632C103.997 505.112 103.56 505.517 103.08 505.848C102.6 506.179 102.093 506.451 101.56 506.664C101.026 506.867 100.472 507.011 99.8955 507.096C99.3195 507.192 98.7382 507.24 98.1515 507.24C97.1382 507.24 96.1888 507.053 95.3035 506.68C94.4288 506.296 93.6608 505.747 92.9995 505.032C92.3488 504.307 91.8315 503.427 91.4475 502.392C91.0742 501.347 90.8875 500.157 90.8875 498.824C90.8875 497.619 91.0582 496.504 91.3995 495.48C91.7408 494.445 92.2368 493.555 92.8875 492.808C93.5488 492.061 94.3648 491.48 95.3355 491.064C96.3062 490.637 97.4262 490.424 98.6955 490.424C99.8795 490.424 100.92 490.616 101.816 491C102.722 491.384 103.528 491.928 104.232 492.632L103.32 493.88ZM112.391 507.256C111.036 507.256 109.991 506.877 109.255 506.12C108.529 505.352 108.167 504.275 108.167 502.888V493.384H106.375C106.183 493.384 106.017 493.325 105.879 493.208C105.74 493.08 105.671 492.893 105.671 492.648V491.256L108.311 490.872L109.062 486.152C109.116 485.971 109.207 485.827 109.335 485.72C109.463 485.603 109.633 485.544 109.847 485.544H111.607V490.904H116.135V493.384H111.607V502.648C111.607 503.235 111.751 503.683 112.039 503.992C112.327 504.301 112.711 504.456 113.191 504.456C113.457 504.456 113.687 504.424 113.878 504.36C114.071 504.285 114.236 504.211 114.375 504.136C114.513 504.051 114.631 503.976 114.727 503.912C114.833 503.837 114.935 503.8 115.031 503.8C115.223 503.8 115.377 503.907 115.495 504.12L116.519 505.8C115.985 506.269 115.356 506.632 114.631 506.888C113.905 507.133 113.159 507.256 112.391 507.256ZM146.527 483.96V507H144.623C144.335 507 144.089 506.952 143.887 506.856C143.684 506.749 143.492 506.579 143.311 506.344L130.655 490.088C130.687 490.397 130.708 490.707 130.719 491.016C130.74 491.315 130.751 491.592 130.751 491.848V507H127.455V483.96H129.407C129.567 483.96 129.7 483.971 129.807 483.992C129.924 484.003 130.031 484.029 130.127 484.072C130.223 484.115 130.313 484.179 130.399 484.264C130.484 484.349 130.575 484.456 130.671 484.584L143.343 500.856C143.311 500.525 143.284 500.2 143.263 499.88C143.252 499.56 143.247 499.261 143.247 498.984V483.96H146.527ZM159.66 499.864C158.433 499.907 157.398 500.008 156.556 500.168C155.713 500.317 155.03 500.515 154.508 500.76C153.985 500.995 153.606 501.277 153.372 501.608C153.148 501.939 153.036 502.301 153.036 502.696C153.036 503.08 153.094 503.411 153.212 503.688C153.34 503.955 153.51 504.179 153.724 504.36C153.948 504.531 154.204 504.659 154.492 504.744C154.79 504.819 155.116 504.856 155.468 504.856C156.364 504.856 157.132 504.691 157.772 504.36C158.422 504.019 159.052 503.528 159.66 502.888V499.864ZM150.54 492.952C152.385 491.235 154.582 490.376 157.132 490.376C158.07 490.376 158.902 490.531 159.628 490.84C160.364 491.139 160.977 491.565 161.468 492.12C161.969 492.675 162.348 493.336 162.604 494.104C162.87 494.861 163.004 495.704 163.004 496.632V507H161.468C161.137 507 160.886 506.952 160.716 506.856C160.545 506.749 160.401 506.541 160.284 506.232L159.948 504.904C159.532 505.277 159.121 505.613 158.716 505.912C158.31 506.2 157.889 506.445 157.452 506.648C157.025 506.851 156.561 507 156.06 507.096C155.569 507.203 155.025 507.256 154.428 507.256C153.766 507.256 153.148 507.165 152.572 506.984C152.006 506.803 151.516 506.531 151.1 506.168C150.684 505.795 150.353 505.336 150.108 504.792C149.873 504.248 149.756 503.608 149.756 502.872C149.756 502.243 149.921 501.629 150.252 501.032C150.593 500.435 151.148 499.901 151.916 499.432C152.694 498.952 153.713 498.557 154.972 498.248C156.241 497.939 157.804 497.763 159.66 497.72V496.632C159.66 495.459 159.409 494.584 158.908 494.008C158.406 493.432 157.67 493.144 156.7 493.144C156.038 493.144 155.484 493.229 155.036 493.4C154.588 493.56 154.198 493.736 153.868 493.928C153.537 494.12 153.244 494.301 152.988 494.472C152.732 494.632 152.46 494.712 152.172 494.712C151.937 494.712 151.734 494.653 151.564 494.536C151.404 494.408 151.27 494.253 151.164 494.072L150.54 492.952ZM167.034 507V490.68H169.114C169.583 490.68 169.882 490.899 170.01 491.336L170.234 492.76C170.532 492.419 170.842 492.109 171.162 491.832C171.482 491.544 171.823 491.299 172.186 491.096C172.559 490.883 172.954 490.717 173.37 490.6C173.796 490.483 174.255 490.424 174.746 490.424C175.268 490.424 175.748 490.499 176.186 490.648C176.623 490.797 177.007 491.011 177.338 491.288C177.679 491.565 177.972 491.901 178.218 492.296C178.463 492.691 178.666 493.133 178.826 493.624C179.071 493.059 179.38 492.573 179.754 492.168C180.127 491.763 180.543 491.432 181.002 491.176C181.46 490.92 181.946 490.733 182.458 490.616C182.98 490.488 183.508 490.424 184.042 490.424C184.916 490.424 185.695 490.563 186.378 490.84C187.071 491.117 187.652 491.523 188.122 492.056C188.602 492.579 188.964 493.224 189.21 493.992C189.455 494.76 189.578 495.635 189.578 496.616V507H186.138V496.616C186.138 495.464 185.887 494.6 185.386 494.024C184.895 493.437 184.164 493.144 183.194 493.144C182.756 493.144 182.346 493.219 181.962 493.368C181.578 493.517 181.242 493.736 180.954 494.024C180.666 494.312 180.436 494.675 180.266 495.112C180.106 495.539 180.026 496.04 180.026 496.616V507H176.586V496.616C176.586 495.421 176.346 494.547 175.866 493.992C175.386 493.427 174.682 493.144 173.753 493.144C173.114 493.144 172.522 493.309 171.978 493.64C171.434 493.96 170.932 494.403 170.474 494.968V507H167.034ZM204.3 497C204.3 496.424 204.215 495.891 204.044 495.4C203.884 494.899 203.644 494.467 203.324 494.104C203.004 493.731 202.604 493.443 202.124 493.24C201.655 493.027 201.111 492.92 200.492 492.92C199.244 492.92 198.263 493.277 197.548 493.992C196.833 494.707 196.38 495.709 196.188 497H204.3ZM196.092 499.112C196.135 500.04 196.279 500.845 196.524 501.528C196.769 502.2 197.095 502.76 197.5 503.208C197.916 503.656 198.407 503.992 198.972 504.216C199.548 504.429 200.188 504.536 200.892 504.536C201.564 504.536 202.145 504.461 202.636 504.312C203.127 504.152 203.553 503.981 203.916 503.8C204.279 503.608 204.588 503.437 204.844 503.288C205.1 503.128 205.335 503.048 205.548 503.048C205.825 503.048 206.039 503.155 206.188 503.368L207.164 504.632C206.759 505.112 206.3 505.517 205.788 505.848C205.276 506.179 204.732 506.451 204.156 506.664C203.58 506.867 202.988 507.011 202.38 507.096C201.772 507.192 201.18 507.24 200.604 507.24C199.473 507.24 198.423 507.053 197.452 506.68C196.492 506.296 195.655 505.736 194.94 505C194.236 504.264 193.681 503.352 193.276 502.264C192.881 501.176 192.684 499.923 192.684 498.504C192.684 497.373 192.86 496.317 193.212 495.336C193.575 494.355 194.087 493.501 194.748 492.776C195.42 492.051 196.231 491.48 197.18 491.064C198.14 490.637 199.223 490.424 200.428 490.424C201.431 490.424 202.359 490.589 203.212 490.92C204.065 491.24 204.801 491.715 205.42 492.344C206.039 492.973 206.519 493.747 206.86 494.664C207.212 495.571 207.388 496.605 207.388 497.768C207.388 498.301 207.329 498.659 207.212 498.84C207.095 499.021 206.881 499.112 206.572 499.112H196.092Z" fill="#003049"/>
<path d="M24.484 548.34C25.2587 548.34 25.94 548.237 26.528 548.032C27.1253 547.827 27.6247 547.542 28.026 547.178C28.4367 546.805 28.7447 546.361 28.95 545.848C29.1553 545.335 29.258 544.77 29.258 544.154C29.258 542.875 28.8613 541.877 28.068 541.158C27.284 540.439 26.0893 540.08 24.484 540.08H21.264V548.34H24.484ZM24.484 537.938C25.7533 537.938 26.8547 538.087 27.788 538.386C28.7307 538.675 29.51 539.091 30.126 539.632C30.742 540.173 31.1993 540.827 31.498 541.592C31.806 542.357 31.96 543.211 31.96 544.154C31.96 545.087 31.7967 545.941 31.47 546.716C31.1433 547.491 30.6627 548.158 30.028 548.718C29.4027 549.278 28.6233 549.717 27.69 550.034C26.766 550.342 25.6973 550.496 24.484 550.496H21.264V558H18.562V537.938H24.484ZM36.883 546.66C37.331 545.689 37.8816 544.933 38.535 544.392C39.1883 543.841 39.9863 543.566 40.929 543.566C41.2276 543.566 41.5123 543.599 41.783 543.664C42.063 543.729 42.3103 543.832 42.525 543.972L42.343 545.834C42.287 546.067 42.147 546.184 41.923 546.184C41.7923 546.184 41.601 546.156 41.349 546.1C41.097 546.044 40.8123 546.016 40.495 546.016C40.047 546.016 39.6456 546.081 39.291 546.212C38.9456 546.343 38.633 546.539 38.353 546.8C38.0823 547.052 37.835 547.369 37.611 547.752C37.3963 548.125 37.2003 548.555 37.023 549.04V558H34.517V543.818H35.945C36.2156 543.818 36.4023 543.869 36.505 543.972C36.6076 544.075 36.6776 544.252 36.715 544.504L36.883 546.66ZM50.12 543.594C51.156 543.594 52.0893 543.767 52.92 544.112C53.7506 544.457 54.46 544.947 55.048 545.582C55.636 546.217 56.084 546.987 56.392 547.892C56.7093 548.788 56.868 549.791 56.868 550.902C56.868 552.022 56.7093 553.03 56.392 553.926C56.084 554.822 55.636 555.587 55.048 556.222C54.46 556.857 53.7506 557.347 52.92 557.692C52.0893 558.028 51.156 558.196 50.12 558.196C49.0746 558.196 48.132 558.028 47.292 557.692C46.4613 557.347 45.752 556.857 45.164 556.222C44.576 555.587 44.1233 554.822 43.806 553.926C43.498 553.03 43.344 552.022 43.344 550.902C43.344 549.791 43.498 548.788 43.806 547.892C44.1233 546.987 44.576 546.217 45.164 545.582C45.752 544.947 46.4613 544.457 47.292 544.112C48.132 543.767 49.0746 543.594 50.12 543.594ZM50.12 556.25C51.52 556.25 52.5653 555.783 53.256 554.85C53.9466 553.907 54.292 552.596 54.292 550.916C54.292 549.227 53.9466 547.911 53.256 546.968C52.5653 546.025 51.52 545.554 50.12 545.554C49.4106 545.554 48.79 545.675 48.258 545.918C47.7353 546.161 47.2966 546.511 46.942 546.968C46.5966 547.425 46.3353 547.99 46.158 548.662C45.99 549.325 45.906 550.076 45.906 550.916C45.906 552.596 46.2513 553.907 46.942 554.85C47.642 555.783 48.7013 556.25 50.12 556.25ZM62.6607 543.818V559.05C62.6607 559.619 62.586 560.147 62.4367 560.632C62.2874 561.127 62.0494 561.556 61.7227 561.92C61.396 562.284 60.976 562.569 60.4627 562.774C59.9587 562.989 59.352 563.096 58.6427 563.096C58.344 563.096 58.0687 563.073 57.8167 563.026C57.5647 562.979 57.3127 562.909 57.0607 562.816L57.1587 561.472C57.1774 561.388 57.21 561.323 57.2567 561.276C57.294 561.239 57.35 561.215 57.4247 561.206C57.4994 561.197 57.5974 561.192 57.7187 561.192C57.8307 561.201 57.9754 561.206 58.1527 561.206C58.8807 561.206 59.3987 561.033 59.7067 560.688C60.0147 560.352 60.1687 559.806 60.1687 559.05V543.818H62.6607ZM63.1787 539.366C63.1787 539.609 63.1274 539.837 63.0247 540.052C62.9314 540.257 62.8007 540.444 62.6327 540.612C62.474 540.771 62.2874 540.897 62.0727 540.99C61.858 541.083 61.6294 541.13 61.3867 541.13C61.144 541.13 60.9154 541.083 60.7007 540.99C60.4954 540.897 60.3134 540.771 60.1547 540.612C59.996 540.444 59.87 540.257 59.7767 540.052C59.6834 539.837 59.6367 539.609 59.6367 539.366C59.6367 539.123 59.6834 538.895 59.7767 538.68C59.87 538.456 59.996 538.265 60.1547 538.106C60.3134 537.938 60.4954 537.807 60.7007 537.714C60.9154 537.621 61.144 537.574 61.3867 537.574C61.6294 537.574 61.858 537.621 62.0727 537.714C62.2874 537.807 62.474 537.938 62.6327 538.106C62.8007 538.265 62.9314 538.456 63.0247 538.68C63.1274 538.895 63.1787 539.123 63.1787 539.366ZM76.2473 549.362C76.2473 548.783 76.1633 548.256 75.9953 547.78C75.8366 547.295 75.5986 546.879 75.2813 546.534C74.9733 546.179 74.5953 545.909 74.1473 545.722C73.6993 545.526 73.1906 545.428 72.6213 545.428C71.4266 545.428 70.4793 545.778 69.7793 546.478C69.0886 547.169 68.6593 548.13 68.4913 549.362H76.2473ZM78.2633 556.012C77.9553 556.385 77.5866 556.712 77.1573 556.992C76.7279 557.263 76.2659 557.487 75.7713 557.664C75.2859 557.841 74.7819 557.972 74.2593 558.056C73.7366 558.149 73.2186 558.196 72.7053 558.196C71.7253 558.196 70.8199 558.033 69.9893 557.706C69.1679 557.37 68.4539 556.885 67.8473 556.25C67.2499 555.606 66.7833 554.813 66.4473 553.87C66.1113 552.927 65.9433 551.845 65.9433 550.622C65.9433 549.633 66.0926 548.709 66.3913 547.85C66.6993 546.991 67.1379 546.249 67.7073 545.624C68.2766 544.989 68.9719 544.495 69.7933 544.14C70.6146 543.776 71.5386 543.594 72.5653 543.594C73.4146 543.594 74.1986 543.739 74.9173 544.028C75.6453 544.308 76.2706 544.719 76.7933 545.26C77.3253 545.792 77.7406 546.455 78.0393 547.248C78.3379 548.032 78.4873 548.928 78.4873 549.936C78.4873 550.328 78.4453 550.589 78.3613 550.72C78.2773 550.851 78.1186 550.916 77.8853 550.916H68.4073C68.4353 551.812 68.5566 552.591 68.7713 553.254C68.9953 553.917 69.3033 554.472 69.6953 554.92C70.0873 555.359 70.5539 555.69 71.0953 555.914C71.6366 556.129 72.2433 556.236 72.9153 556.236C73.5406 556.236 74.0773 556.166 74.5253 556.026C74.9826 555.877 75.3746 555.718 75.7013 555.55C76.0279 555.382 76.2986 555.228 76.5133 555.088C76.7373 554.939 76.9286 554.864 77.0873 554.864C77.2926 554.864 77.4513 554.943 77.5633 555.102L78.2633 556.012ZM91.4182 546.338C91.3436 546.441 91.2689 546.52 91.1942 546.576C91.1196 546.632 91.0169 546.66 90.8862 546.66C90.7462 546.66 90.5922 546.604 90.4242 546.492C90.2562 546.371 90.0462 546.24 89.7942 546.1C89.5516 545.96 89.2482 545.834 88.8842 545.722C88.5296 545.601 88.0909 545.54 87.5682 545.54C86.8682 545.54 86.2522 545.666 85.7202 545.918C85.1882 546.161 84.7402 546.515 84.3762 546.982C84.0216 547.449 83.7509 548.013 83.5642 548.676C83.3869 549.339 83.2982 550.081 83.2982 550.902C83.2982 551.761 83.3962 552.526 83.5922 553.198C83.7882 553.861 84.0636 554.421 84.4182 554.878C84.7822 555.326 85.2162 555.671 85.7202 555.914C86.2336 556.147 86.8076 556.264 87.4422 556.264C88.0489 556.264 88.5482 556.194 88.9402 556.054C89.3322 555.905 89.6542 555.741 89.9062 555.564C90.1676 555.387 90.3822 555.228 90.5502 555.088C90.7276 554.939 90.9002 554.864 91.0682 554.864C91.2736 554.864 91.4322 554.943 91.5442 555.102L92.2442 556.012C91.9362 556.395 91.5862 556.721 91.1942 556.992C90.8022 557.263 90.3776 557.491 89.9202 557.678C89.4722 557.855 89.0009 557.986 88.5062 558.07C88.0116 558.154 87.5076 558.196 86.9942 558.196C86.1076 558.196 85.2816 558.033 84.5162 557.706C83.7602 557.379 83.1022 556.908 82.5422 556.292C81.9822 555.667 81.5436 554.901 81.2262 553.996C80.9089 553.091 80.7502 552.059 80.7502 550.902C80.7502 549.847 80.8949 548.872 81.1842 547.976C81.4829 547.08 81.9122 546.31 82.4722 545.666C83.0416 545.013 83.7369 544.504 84.5582 544.14C85.3889 543.776 86.3409 543.594 87.4142 543.594C88.4129 543.594 89.2902 543.757 90.0462 544.084C90.8116 544.401 91.4882 544.854 92.0762 545.442L91.4182 546.338ZM99.2733 558.224C98.1533 558.224 97.29 557.911 96.6833 557.286C96.086 556.661 95.7873 555.76 95.7873 554.584V545.904H94.0793C93.93 545.904 93.804 545.862 93.7013 545.778C93.5986 545.685 93.5473 545.545 93.5473 545.358V544.364L95.8713 544.07L96.4453 539.688C96.4733 539.548 96.534 539.436 96.6273 539.352C96.73 539.259 96.8606 539.212 97.0193 539.212H98.2793V544.098H102.381V545.904H98.2793V554.416C98.2793 555.013 98.424 555.457 98.7133 555.746C99.0026 556.035 99.376 556.18 99.8333 556.18C100.095 556.18 100.319 556.147 100.505 556.082C100.701 556.007 100.869 555.928 101.009 555.844C101.149 555.76 101.266 555.685 101.359 555.62C101.462 555.545 101.551 555.508 101.625 555.508C101.756 555.508 101.873 555.587 101.975 555.746L102.703 556.936C102.274 557.337 101.756 557.655 101.149 557.888C100.543 558.112 99.9173 558.224 99.2733 558.224ZM130.095 547.976C130.095 549.479 129.857 550.846 129.381 552.078C128.905 553.31 128.233 554.365 127.365 555.242C126.497 556.119 125.451 556.801 124.229 557.286C123.015 557.762 121.671 558 120.197 558H112.707V537.938H120.197C121.671 537.938 123.015 538.181 124.229 538.666C125.451 539.142 126.497 539.823 127.365 540.71C128.233 541.587 128.905 542.642 129.381 543.874C129.857 545.106 130.095 546.473 130.095 547.976ZM127.309 547.976C127.309 546.744 127.141 545.643 126.805 544.672C126.469 543.701 125.993 542.88 125.377 542.208C124.761 541.536 124.014 541.023 123.137 540.668C122.259 540.313 121.279 540.136 120.197 540.136H115.423V555.802H120.197C121.279 555.802 122.259 555.625 123.137 555.27C124.014 554.915 124.761 554.407 125.377 553.744C125.993 553.072 126.469 552.251 126.805 551.28C127.141 550.309 127.309 549.208 127.309 547.976ZM142.72 549.362C142.72 548.783 142.636 548.256 142.468 547.78C142.309 547.295 142.071 546.879 141.754 546.534C141.446 546.179 141.068 545.909 140.62 545.722C140.172 545.526 139.663 545.428 139.094 545.428C137.899 545.428 136.952 545.778 136.252 546.478C135.561 547.169 135.132 548.13 134.964 549.362H142.72ZM144.736 556.012C144.428 556.385 144.059 556.712 143.63 556.992C143.201 557.263 142.739 557.487 142.244 557.664C141.759 557.841 141.255 557.972 140.732 558.056C140.209 558.149 139.691 558.196 139.178 558.196C138.198 558.196 137.293 558.033 136.462 557.706C135.641 557.37 134.927 556.885 134.32 556.25C133.723 555.606 133.256 554.813 132.92 553.87C132.584 552.927 132.416 551.845 132.416 550.622C132.416 549.633 132.565 548.709 132.864 547.85C133.172 546.991 133.611 546.249 134.18 545.624C134.749 544.989 135.445 544.495 136.266 544.14C137.087 543.776 138.011 543.594 139.038 543.594C139.887 543.594 140.671 543.739 141.39 544.028C142.118 544.308 142.743 544.719 143.266 545.26C143.798 545.792 144.213 546.455 144.512 547.248C144.811 548.032 144.96 548.928 144.96 549.936C144.96 550.328 144.918 550.589 144.834 550.72C144.75 550.851 144.591 550.916 144.358 550.916H134.88C134.908 551.812 135.029 552.591 135.244 553.254C135.468 553.917 135.776 554.472 136.168 554.92C136.56 555.359 137.027 555.69 137.568 555.914C138.109 556.129 138.716 556.236 139.388 556.236C140.013 556.236 140.55 556.166 140.998 556.026C141.455 555.877 141.847 555.718 142.174 555.55C142.501 555.382 142.771 555.228 142.986 555.088C143.21 554.939 143.401 554.864 143.56 554.864C143.765 554.864 143.924 554.943 144.036 555.102L144.736 556.012ZM156.281 546.156C156.169 546.361 155.996 546.464 155.763 546.464C155.623 546.464 155.464 546.413 155.287 546.31C155.11 546.207 154.89 546.095 154.629 545.974C154.377 545.843 154.074 545.727 153.719 545.624C153.364 545.512 152.944 545.456 152.459 545.456C152.039 545.456 151.661 545.512 151.325 545.624C150.989 545.727 150.7 545.871 150.457 546.058C150.224 546.245 150.042 546.464 149.911 546.716C149.79 546.959 149.729 547.225 149.729 547.514C149.729 547.878 149.832 548.181 150.037 548.424C150.252 548.667 150.532 548.877 150.877 549.054C151.222 549.231 151.614 549.39 152.053 549.53C152.492 549.661 152.94 549.805 153.397 549.964C153.864 550.113 154.316 550.281 154.755 550.468C155.194 550.655 155.586 550.888 155.931 551.168C156.276 551.448 156.552 551.793 156.757 552.204C156.972 552.605 157.079 553.091 157.079 553.66C157.079 554.313 156.962 554.92 156.729 555.48C156.496 556.031 156.15 556.511 155.693 556.922C155.236 557.323 154.676 557.641 154.013 557.874C153.35 558.107 152.585 558.224 151.717 558.224C150.728 558.224 149.832 558.065 149.029 557.748C148.226 557.421 147.545 557.006 146.985 556.502L147.573 555.55C147.648 555.429 147.736 555.335 147.839 555.27C147.942 555.205 148.072 555.172 148.231 555.172C148.399 555.172 148.576 555.237 148.763 555.368C148.95 555.499 149.174 555.643 149.435 555.802C149.706 555.961 150.032 556.105 150.415 556.236C150.798 556.367 151.274 556.432 151.843 556.432C152.328 556.432 152.753 556.371 153.117 556.25C153.481 556.119 153.784 555.947 154.027 555.732C154.27 555.517 154.447 555.27 154.559 554.99C154.68 554.71 154.741 554.411 154.741 554.094C154.741 553.702 154.634 553.38 154.419 553.128C154.214 552.867 153.938 552.647 153.593 552.47C153.248 552.283 152.851 552.125 152.403 551.994C151.964 551.854 151.512 551.709 151.045 551.56C150.588 551.411 150.135 551.243 149.687 551.056C149.248 550.86 148.856 550.617 148.511 550.328C148.166 550.039 147.886 549.684 147.671 549.264C147.466 548.835 147.363 548.317 147.363 547.71C147.363 547.169 147.475 546.651 147.699 546.156C147.923 545.652 148.25 545.213 148.679 544.84C149.108 544.457 149.636 544.154 150.261 543.93C150.886 543.706 151.6 543.594 152.403 543.594C153.336 543.594 154.172 543.743 154.909 544.042C155.656 544.331 156.3 544.733 156.841 545.246L156.281 546.156ZM170.004 546.338C169.929 546.441 169.855 546.52 169.78 546.576C169.705 546.632 169.603 546.66 169.472 546.66C169.332 546.66 169.178 546.604 169.01 546.492C168.842 546.371 168.632 546.24 168.38 546.1C168.137 545.96 167.834 545.834 167.47 545.722C167.115 545.601 166.677 545.54 166.154 545.54C165.454 545.54 164.838 545.666 164.306 545.918C163.774 546.161 163.326 546.515 162.962 546.982C162.607 547.449 162.337 548.013 162.15 548.676C161.973 549.339 161.884 550.081 161.884 550.902C161.884 551.761 161.982 552.526 162.178 553.198C162.374 553.861 162.649 554.421 163.004 554.878C163.368 555.326 163.802 555.671 164.306 555.914C164.819 556.147 165.393 556.264 166.028 556.264C166.635 556.264 167.134 556.194 167.526 556.054C167.918 555.905 168.24 555.741 168.492 555.564C168.753 555.387 168.968 555.228 169.136 555.088C169.313 554.939 169.486 554.864 169.654 554.864C169.859 554.864 170.018 554.943 170.13 555.102L170.83 556.012C170.522 556.395 170.172 556.721 169.78 556.992C169.388 557.263 168.963 557.491 168.506 557.678C168.058 557.855 167.587 557.986 167.092 558.07C166.597 558.154 166.093 558.196 165.58 558.196C164.693 558.196 163.867 558.033 163.102 557.706C162.346 557.379 161.688 556.908 161.128 556.292C160.568 555.667 160.129 554.901 159.812 553.996C159.495 553.091 159.336 552.059 159.336 550.902C159.336 549.847 159.481 548.872 159.77 547.976C160.069 547.08 160.498 546.31 161.058 545.666C161.627 545.013 162.323 544.504 163.144 544.14C163.975 543.776 164.927 543.594 166 543.594C166.999 543.594 167.876 543.757 168.632 544.084C169.397 544.401 170.074 544.854 170.662 545.442L170.004 546.338ZM175.871 546.66C176.319 545.689 176.87 544.933 177.523 544.392C178.177 543.841 178.975 543.566 179.917 543.566C180.216 543.566 180.501 543.599 180.771 543.664C181.051 543.729 181.299 543.832 181.513 543.972L181.331 545.834C181.275 546.067 181.135 546.184 180.911 546.184C180.781 546.184 180.589 546.156 180.337 546.1C180.085 546.044 179.801 546.016 179.483 546.016C179.035 546.016 178.634 546.081 178.279 546.212C177.934 546.343 177.621 546.539 177.341 546.8C177.071 547.052 176.823 547.369 176.599 547.752C176.385 548.125 176.189 548.555 176.011 549.04V558H173.505V543.818H174.933C175.204 543.818 175.391 543.869 175.493 543.972C175.596 544.075 175.666 544.252 175.703 544.504L175.871 546.66ZM186.336 543.818V558H183.844V543.818H186.336ZM186.868 539.366C186.868 539.609 186.817 539.837 186.714 540.052C186.621 540.257 186.49 540.444 186.322 540.612C186.164 540.771 185.972 540.897 185.748 540.99C185.534 541.083 185.305 541.13 185.062 541.13C184.82 541.13 184.591 541.083 184.376 540.99C184.171 540.897 183.989 540.771 183.83 540.612C183.672 540.444 183.546 540.257 183.452 540.052C183.359 539.837 183.312 539.609 183.312 539.366C183.312 539.123 183.359 538.895 183.452 538.68C183.546 538.456 183.672 538.265 183.83 538.106C183.989 537.938 184.171 537.807 184.376 537.714C184.591 537.621 184.82 537.574 185.062 537.574C185.305 537.574 185.534 537.621 185.748 537.714C185.972 537.807 186.164 537.938 186.322 538.106C186.49 538.265 186.621 538.456 186.714 538.68C186.817 538.895 186.868 539.123 186.868 539.366ZM192.937 554.584C193.394 555.2 193.894 555.634 194.435 555.886C194.976 556.138 195.583 556.264 196.255 556.264C197.58 556.264 198.598 555.793 199.307 554.85C200.016 553.907 200.371 552.563 200.371 550.818C200.371 549.894 200.287 549.101 200.119 548.438C199.96 547.775 199.727 547.234 199.419 546.814C199.111 546.385 198.733 546.072 198.285 545.876C197.837 545.68 197.328 545.582 196.759 545.582C195.947 545.582 195.233 545.769 194.617 546.142C194.01 546.515 193.45 547.043 192.937 547.724V554.584ZM192.811 546.016C193.408 545.279 194.099 544.686 194.883 544.238C195.667 543.79 196.563 543.566 197.571 543.566C198.392 543.566 199.134 543.725 199.797 544.042C200.46 544.35 201.024 544.812 201.491 545.428C201.958 546.035 202.317 546.791 202.569 547.696C202.821 548.601 202.947 549.642 202.947 550.818C202.947 551.863 202.807 552.839 202.527 553.744C202.247 554.64 201.841 555.419 201.309 556.082C200.786 556.735 200.142 557.253 199.377 557.636C198.621 558.009 197.767 558.196 196.815 558.196C195.947 558.196 195.2 558.051 194.575 557.762C193.959 557.463 193.413 557.053 192.937 556.53V562.802H190.431V543.818H191.929C192.284 543.818 192.503 543.991 192.587 544.336L192.811 546.016ZM219.095 558H216.603V545.904H209.295V554.416C209.295 555.013 209.44 555.457 209.729 555.746C210.018 556.035 210.392 556.18 210.849 556.18C211.11 556.18 211.334 556.147 211.521 556.082C211.717 556.007 211.885 555.928 212.025 555.844C212.165 555.76 212.282 555.685 212.375 555.62C212.478 555.545 212.566 555.508 212.641 555.508C212.772 555.508 212.888 555.587 212.991 555.746L213.719 556.936C213.29 557.337 212.772 557.655 212.165 557.888C211.558 558.112 210.933 558.224 210.289 558.224C209.169 558.224 208.306 557.911 207.699 557.286C207.102 556.661 206.803 555.76 206.803 554.584V545.904H205.095C204.946 545.904 204.82 545.862 204.717 545.778C204.614 545.685 204.563 545.545 204.563 545.358V544.364L206.887 544.056L207.461 539.688C207.489 539.548 207.55 539.436 207.643 539.352C207.746 539.259 207.876 539.212 208.035 539.212H209.295V544.098H219.095V558ZM219.711 539.268C219.711 539.511 219.66 539.739 219.557 539.954C219.464 540.159 219.333 540.341 219.165 540.5C219.006 540.659 218.82 540.785 218.605 540.878C218.39 540.971 218.162 541.018 217.919 541.018C217.676 541.018 217.448 540.971 217.233 540.878C217.028 540.785 216.846 540.659 216.687 540.5C216.528 540.341 216.402 540.159 216.309 539.954C216.216 539.739 216.169 539.511 216.169 539.268C216.169 539.025 216.216 538.797 216.309 538.582C216.402 538.358 216.528 538.167 216.687 538.008C216.846 537.84 217.028 537.709 217.233 537.616C217.448 537.523 217.676 537.476 217.919 537.476C218.162 537.476 218.39 537.523 218.605 537.616C218.82 537.709 219.006 537.84 219.165 538.008C219.333 538.167 219.464 538.358 219.557 538.582C219.66 538.797 219.711 539.025 219.711 539.268ZM229.167 543.594C230.203 543.594 231.136 543.767 231.967 544.112C232.798 544.457 233.507 544.947 234.095 545.582C234.683 546.217 235.131 546.987 235.439 547.892C235.756 548.788 235.915 549.791 235.915 550.902C235.915 552.022 235.756 553.03 235.439 553.926C235.131 554.822 234.683 555.587 234.095 556.222C233.507 556.857 232.798 557.347 231.967 557.692C231.136 558.028 230.203 558.196 229.167 558.196C228.122 558.196 227.179 558.028 226.339 557.692C225.508 557.347 224.799 556.857 224.211 556.222C223.623 555.587 223.17 554.822 222.853 553.926C222.545 553.03 222.391 552.022 222.391 550.902C222.391 549.791 222.545 548.788 222.853 547.892C223.17 546.987 223.623 546.217 224.211 545.582C224.799 544.947 225.508 544.457 226.339 544.112C227.179 543.767 228.122 543.594 229.167 543.594ZM229.167 556.25C230.567 556.25 231.612 555.783 232.303 554.85C232.994 553.907 233.339 552.596 233.339 550.916C233.339 549.227 232.994 547.911 232.303 546.968C231.612 546.025 230.567 545.554 229.167 545.554C228.458 545.554 227.837 545.675 227.305 545.918C226.782 546.161 226.344 546.511 225.989 546.968C225.644 547.425 225.382 547.99 225.205 548.662C225.037 549.325 224.953 550.076 224.953 550.916C224.953 552.596 225.298 553.907 225.989 554.85C226.689 555.783 227.748 556.25 229.167 556.25ZM241.428 545.876C241.736 545.531 242.062 545.218 242.408 544.938C242.753 544.658 243.117 544.42 243.5 544.224C243.892 544.019 244.302 543.865 244.732 543.762C245.17 543.65 245.642 543.594 246.146 543.594C246.92 543.594 247.602 543.725 248.19 543.986C248.787 544.238 249.282 544.602 249.674 545.078C250.075 545.545 250.378 546.109 250.584 546.772C250.789 547.435 250.892 548.167 250.892 548.97V558H248.386V548.97C248.386 547.897 248.138 547.066 247.644 546.478C247.158 545.881 246.416 545.582 245.418 545.582C244.68 545.582 243.99 545.759 243.346 546.114C242.711 546.469 242.123 546.949 241.582 547.556V558H239.076V543.818H240.574C240.928 543.818 241.148 543.991 241.232 544.336L241.428 545.876ZM261.629 548.55H268.545V550.664H261.629V548.55ZM289.72 550.552L286.57 542.39C286.477 542.147 286.379 541.867 286.276 541.55C286.173 541.223 286.075 540.878 285.982 540.514C285.786 541.27 285.585 541.9 285.38 542.404L282.23 550.552H289.72ZM295.376 558H293.276C293.033 558 292.837 557.939 292.688 557.818C292.539 557.697 292.427 557.543 292.352 557.356L290.476 552.512H281.474L279.598 557.356C279.542 557.524 279.435 557.673 279.276 557.804C279.117 557.935 278.921 558 278.688 558H276.588L284.61 537.938H287.354L295.376 558ZM311.922 546.156C311.81 546.361 311.637 546.464 311.404 546.464C311.264 546.464 311.105 546.413 310.928 546.31C310.75 546.207 310.531 546.095 310.27 545.974C310.018 545.843 309.714 545.727 309.36 545.624C309.005 545.512 308.585 545.456 308.1 545.456C307.68 545.456 307.302 545.512 306.966 545.624C306.63 545.727 306.34 545.871 306.098 546.058C305.864 546.245 305.682 546.464 305.552 546.716C305.43 546.959 305.37 547.225 305.37 547.514C305.37 547.878 305.472 548.181 305.678 548.424C305.892 548.667 306.172 548.877 306.518 549.054C306.863 549.231 307.255 549.39 307.694 549.53C308.132 549.661 308.58 549.805 309.038 549.964C309.504 550.113 309.957 550.281 310.396 550.468C310.834 550.655 311.226 550.888 311.572 551.168C311.917 551.448 312.192 551.793 312.398 552.204C312.612 552.605 312.72 553.091 312.72 553.66C312.72 554.313 312.603 554.92 312.37 555.48C312.136 556.031 311.791 556.511 311.334 556.922C310.876 557.323 310.316 557.641 309.654 557.874C308.991 558.107 308.226 558.224 307.358 558.224C306.368 558.224 305.472 558.065 304.67 557.748C303.867 557.421 303.186 557.006 302.626 556.502L303.214 555.55C303.288 555.429 303.377 555.335 303.48 555.27C303.582 555.205 303.713 555.172 303.872 555.172C304.04 555.172 304.217 555.237 304.404 555.368C304.59 555.499 304.814 555.643 305.076 555.802C305.346 555.961 305.673 556.105 306.056 556.236C306.438 556.367 306.914 556.432 307.484 556.432C307.969 556.432 308.394 556.371 308.757 556.25C309.122 556.119 309.425 555.947 309.668 555.732C309.91 555.517 310.088 555.27 310.2 554.99C310.321 554.71 310.382 554.411 310.382 554.094C310.382 553.702 310.274 553.38 310.06 553.128C309.854 552.867 309.579 552.647 309.234 552.47C308.888 552.283 308.492 552.125 308.044 551.994C307.605 551.854 307.152 551.709 306.686 551.56C306.228 551.411 305.776 551.243 305.328 551.056C304.889 550.86 304.497 550.617 304.152 550.328C303.806 550.039 303.526 549.684 303.312 549.264C303.106 548.835 303.004 548.317 303.004 547.71C303.004 547.169 303.116 546.651 303.34 546.156C303.564 545.652 303.89 545.213 304.32 544.84C304.749 544.457 305.276 544.154 305.902 543.93C306.527 543.706 307.241 543.594 308.044 543.594C308.977 543.594 309.812 543.743 310.55 544.042C311.296 544.331 311.94 544.733 312.482 545.246L311.922 546.156ZM318.407 543.818V558H315.915V543.818H318.407ZM318.939 539.366C318.939 539.609 318.887 539.837 318.785 540.052C318.691 540.257 318.561 540.444 318.393 540.612C318.234 540.771 318.043 540.897 317.819 540.99C317.604 541.083 317.375 541.13 317.133 541.13C316.89 541.13 316.661 541.083 316.447 540.99C316.241 540.897 316.059 540.771 315.901 540.612C315.742 540.444 315.616 540.257 315.523 540.052C315.429 539.837 315.383 539.609 315.383 539.366C315.383 539.123 315.429 538.895 315.523 538.68C315.616 538.456 315.742 538.265 315.901 538.106C316.059 537.938 316.241 537.807 316.447 537.714C316.661 537.621 316.89 537.574 317.133 537.574C317.375 537.574 317.604 537.621 317.819 537.714C318.043 537.807 318.234 537.938 318.393 538.106C318.561 538.265 318.691 538.456 318.785 538.68C318.887 538.895 318.939 539.123 318.939 539.366ZM322.501 558V543.818H323.999C324.354 543.818 324.573 543.991 324.657 544.336L324.839 545.792C325.362 545.148 325.95 544.621 326.603 544.21C327.257 543.799 328.013 543.594 328.871 543.594C329.823 543.594 330.593 543.86 331.181 544.392C331.779 544.924 332.208 545.643 332.469 546.548C332.675 546.035 332.936 545.591 333.253 545.218C333.58 544.845 333.944 544.537 334.345 544.294C334.747 544.051 335.171 543.874 335.619 543.762C336.077 543.65 336.539 543.594 337.005 543.594C337.752 543.594 338.415 543.715 338.993 543.958C339.581 544.191 340.076 544.537 340.477 544.994C340.888 545.451 341.201 546.016 341.415 546.688C341.63 547.351 341.737 548.111 341.737 548.97V558H339.231V548.97C339.231 547.859 338.989 547.019 338.503 546.45C338.018 545.871 337.318 545.582 336.403 545.582C335.993 545.582 335.601 545.657 335.227 545.806C334.863 545.946 334.541 546.156 334.261 546.436C333.981 546.716 333.757 547.071 333.589 547.5C333.431 547.92 333.351 548.41 333.351 548.97V558H330.845V548.97C330.845 547.831 330.617 546.982 330.159 546.422C329.702 545.862 329.035 545.582 328.157 545.582C327.541 545.582 326.972 545.75 326.449 546.086C325.927 546.413 325.446 546.861 325.007 547.43V558H322.501ZM348.031 554.584C348.488 555.2 348.987 555.634 349.529 555.886C350.07 556.138 350.677 556.264 351.349 556.264C352.674 556.264 353.691 555.793 354.401 554.85C355.11 553.907 355.465 552.563 355.465 550.818C355.465 549.894 355.381 549.101 355.213 548.438C355.054 547.775 354.821 547.234 354.513 546.814C354.205 546.385 353.827 546.072 353.379 545.876C352.931 545.68 352.422 545.582 351.853 545.582C351.041 545.582 350.327 545.769 349.711 546.142C349.104 546.515 348.544 547.043 348.031 547.724V554.584ZM347.905 546.016C348.502 545.279 349.193 544.686 349.977 544.238C350.761 543.79 351.657 543.566 352.665 543.566C353.486 543.566 354.228 543.725 354.891 544.042C355.553 544.35 356.118 544.812 356.585 545.428C357.051 546.035 357.411 546.791 357.663 547.696C357.915 548.601 358.041 549.642 358.041 550.818C358.041 551.863 357.901 552.839 357.621 553.744C357.341 554.64 356.935 555.419 356.403 556.082C355.88 556.735 355.236 557.253 354.471 557.636C353.715 558.009 352.861 558.196 351.909 558.196C351.041 558.196 350.294 558.051 349.669 557.762C349.053 557.463 348.507 557.053 348.031 556.53V562.802H345.525V543.818H347.023C347.377 543.818 347.597 543.991 347.681 544.336L347.905 546.016ZM363.796 537.378V558H361.304V537.378H363.796ZM377.329 549.362C377.329 548.783 377.245 548.256 377.077 547.78C376.919 547.295 376.681 546.879 376.363 546.534C376.055 546.179 375.677 545.909 375.229 545.722C374.781 545.526 374.273 545.428 373.703 545.428C372.509 545.428 371.561 545.778 370.861 546.478C370.171 547.169 369.741 548.13 369.573 549.362H377.329ZM379.345 556.012C379.037 556.385 378.669 556.712 378.239 556.992C377.81 557.263 377.348 557.487 376.853 557.664C376.368 557.841 375.864 557.972 375.341 558.056C374.819 558.149 374.301 558.196 373.787 558.196C372.807 558.196 371.902 558.033 371.071 557.706C370.25 557.37 369.536 556.885 368.929 556.25C368.332 555.606 367.865 554.813 367.529 553.87C367.193 552.927 367.025 551.845 367.025 550.622C367.025 549.633 367.175 548.709 367.473 547.85C367.781 546.991 368.22 546.249 368.789 545.624C369.359 544.989 370.054 544.495 370.875 544.14C371.697 543.776 372.621 543.594 373.647 543.594C374.497 543.594 375.281 543.739 375.999 544.028C376.727 544.308 377.353 544.719 377.875 545.26C378.407 545.792 378.823 546.455 379.121 547.248C379.42 548.032 379.569 548.928 379.569 549.936C379.569 550.328 379.527 550.589 379.443 550.72C379.359 550.851 379.201 550.916 378.967 550.916H369.489C369.517 551.812 369.639 552.591 369.853 553.254C370.077 553.917 370.385 554.472 370.777 554.92C371.169 555.359 371.636 555.69 372.177 555.914C372.719 556.129 373.325 556.236 373.997 556.236C374.623 556.236 375.159 556.166 375.607 556.026C376.065 555.877 376.457 555.718 376.783 555.55C377.11 555.382 377.381 555.228 377.595 555.088C377.819 554.939 378.011 554.864 378.169 554.864C378.375 554.864 378.533 554.943 378.645 555.102L379.345 556.012ZM27.466 583.362C27.466 582.783 27.382 582.256 27.214 581.78C27.0553 581.295 26.8173 580.879 26.5 580.534C26.192 580.179 25.814 579.909 25.366 579.722C24.918 579.526 24.4093 579.428 23.84 579.428C22.6453 579.428 21.698 579.778 20.998 580.478C20.3073 581.169 19.878 582.13 19.71 583.362H27.466ZM29.482 590.012C29.174 590.385 28.8053 590.712 28.376 590.992C27.9467 591.263 27.4847 591.487 26.99 591.664C26.5047 591.841 26.0007 591.972 25.478 592.056C24.9553 592.149 24.4373 592.196 23.924 592.196C22.944 592.196 22.0387 592.033 21.208 591.706C20.3867 591.37 19.6727 590.885 19.066 590.25C18.4687 589.606 18.002 588.813 17.666 587.87C17.33 586.927 17.162 585.845 17.162 584.622C17.162 583.633 17.3113 582.709 17.61 581.85C17.918 580.991 18.3567 580.249 18.926 579.624C19.4953 578.989 20.1907 578.495 21.012 578.14C21.8333 577.776 22.7573 577.594 23.784 577.594C24.6333 577.594 25.4173 577.739 26.136 578.028C26.864 578.308 27.4893 578.719 28.012 579.26C28.544 579.792 28.9593 580.455 29.258 581.248C29.5567 582.032 29.706 582.928 29.706 583.936C29.706 584.328 29.664 584.589 29.58 584.72C29.496 584.851 29.3373 584.916 29.104 584.916H19.626C19.654 585.812 19.7753 586.591 19.99 587.254C20.214 587.917 20.522 588.472 20.914 588.92C21.306 589.359 21.7727 589.69 22.314 589.914C22.8553 590.129 23.462 590.236 24.134 590.236C24.7593 590.236 25.296 590.166 25.744 590.026C26.2013 589.877 26.5933 589.718 26.92 589.55C27.2467 589.382 27.5173 589.228 27.732 589.088C27.956 588.939 28.1473 588.864 28.306 588.864C28.5113 588.864 28.67 588.943 28.782 589.102L29.482 590.012ZM44.2236 592H41.8296C41.6242 592 41.4609 591.949 41.3396 591.846C41.2276 591.734 41.1342 591.613 41.0596 591.482L37.4896 585.924C37.4522 586.055 37.4102 586.185 37.3636 586.316C37.3262 586.437 37.2702 586.549 37.1956 586.652L33.8916 591.482C33.7982 591.613 33.6956 591.734 33.5836 591.846C33.4809 591.949 33.3362 592 33.1496 592H30.9236L35.8936 584.72L31.1196 577.818H33.5136C33.7189 577.818 33.8682 577.851 33.9616 577.916C34.0549 577.981 34.1389 578.075 34.2136 578.196L37.6996 583.516C37.7742 583.245 37.8909 582.984 38.0496 582.732L41.1016 578.252C41.1856 578.121 41.2742 578.019 41.3676 577.944C41.4702 577.86 41.5916 577.818 41.7316 577.818H44.0276L39.2536 584.594L44.2236 592ZM49.0269 588.584C49.4842 589.2 49.9835 589.634 50.5249 589.886C51.0662 590.138 51.6729 590.264 52.3449 590.264C53.6702 590.264 54.6875 589.793 55.3969 588.85C56.1062 587.907 56.4609 586.563 56.4609 584.818C56.4609 583.894 56.3769 583.101 56.2089 582.438C56.0502 581.775 55.8169 581.234 55.5089 580.814C55.2009 580.385 54.8229 580.072 54.3749 579.876C53.9269 579.68 53.4182 579.582 52.8489 579.582C52.0369 579.582 51.3229 579.769 50.7069 580.142C50.1002 580.515 49.5402 581.043 49.0269 581.724V588.584ZM48.9009 580.016C49.4982 579.279 50.1889 578.686 50.9729 578.238C51.7569 577.79 52.6529 577.566 53.6609 577.566C54.4822 577.566 55.2242 577.725 55.8869 578.042C56.5495 578.35 57.1142 578.812 57.5809 579.428C58.0475 580.035 58.4069 580.791 58.6589 581.696C58.9109 582.601 59.0369 583.642 59.0369 584.818C59.0369 585.863 58.8969 586.839 58.6169 587.744C58.3369 588.64 57.9309 589.419 57.3989 590.082C56.8762 590.735 56.2322 591.253 55.4669 591.636C54.7109 592.009 53.8569 592.196 52.9049 592.196C52.0369 592.196 51.2902 592.051 50.6649 591.762C50.0489 591.463 49.5029 591.053 49.0269 590.53V596.802H46.5209V577.818H48.0189C48.3735 577.818 48.5929 577.991 48.6769 578.336L48.9009 580.016ZM64.7922 571.378V592H62.3002V571.378H64.7922ZM76.5194 585.616C75.3714 585.653 74.3914 585.747 73.5794 585.896C72.7767 586.036 72.1187 586.223 71.6054 586.456C71.1014 586.689 70.7327 586.965 70.4994 587.282C70.2754 587.599 70.1634 587.954 70.1634 588.346C70.1634 588.719 70.224 589.041 70.3454 589.312C70.4667 589.583 70.63 589.807 70.8354 589.984C71.05 590.152 71.2974 590.278 71.5774 590.362C71.8667 590.437 72.1747 590.474 72.5014 590.474C72.94 590.474 73.3414 590.432 73.7054 590.348C74.0694 590.255 74.41 590.124 74.7274 589.956C75.054 589.788 75.362 589.587 75.6514 589.354C75.95 589.121 76.2394 588.855 76.5194 588.556V585.616ZM68.4694 579.82C69.2534 579.064 70.098 578.499 71.0034 578.126C71.9087 577.753 72.912 577.566 74.0134 577.566C74.8067 577.566 75.5114 577.697 76.1274 577.958C76.7434 578.219 77.2614 578.583 77.6814 579.05C78.1014 579.517 78.4187 580.081 78.6334 580.744C78.848 581.407 78.9554 582.135 78.9554 582.928V592H77.8494C77.6067 592 77.42 591.963 77.2894 591.888C77.1587 591.804 77.056 591.645 76.9814 591.412L76.7014 590.068C76.328 590.413 75.964 590.721 75.6094 590.992C75.2547 591.253 74.8814 591.477 74.4894 591.664C74.0974 591.841 73.6774 591.977 73.2294 592.07C72.7907 592.173 72.3007 592.224 71.7594 592.224C71.2087 592.224 70.6907 592.149 70.2054 592C69.72 591.841 69.2954 591.608 68.9314 591.3C68.5767 590.992 68.292 590.605 68.0774 590.138C67.872 589.662 67.7694 589.102 67.7694 588.458C67.7694 587.898 67.9234 587.361 68.2314 586.848C68.5394 586.325 69.0387 585.863 69.7294 585.462C70.42 585.061 71.3207 584.734 72.4314 584.482C73.542 584.221 74.9047 584.071 76.5194 584.034V582.928C76.5194 581.827 76.2814 580.996 75.8054 580.436C75.3294 579.867 74.634 579.582 73.7194 579.582C73.1034 579.582 72.5854 579.661 72.1654 579.82C71.7547 579.969 71.3954 580.142 71.0874 580.338C70.7887 580.525 70.5274 580.697 70.3034 580.856C70.0887 581.005 69.874 581.08 69.6594 581.08C69.4914 581.08 69.3467 581.038 69.2254 580.954C69.104 580.861 69.0014 580.749 68.9174 580.618L68.4694 579.82ZM85.1033 579.876C85.4113 579.531 85.738 579.218 86.0833 578.938C86.4287 578.658 86.7927 578.42 87.1753 578.224C87.5673 578.019 87.978 577.865 88.4073 577.762C88.846 577.65 89.3173 577.594 89.8213 577.594C90.596 577.594 91.2773 577.725 91.8653 577.986C92.4627 578.238 92.9573 578.602 93.3493 579.078C93.7507 579.545 94.054 580.109 94.2593 580.772C94.4647 581.435 94.5673 582.167 94.5673 582.97V592H92.0613V582.97C92.0613 581.897 91.814 581.066 91.3193 580.478C90.834 579.881 90.092 579.582 89.0933 579.582C88.356 579.582 87.6653 579.759 87.0213 580.114C86.3867 580.469 85.7987 580.949 85.2573 581.556V592H82.7513V577.818H84.2493C84.604 577.818 84.8233 577.991 84.9073 578.336L85.1033 579.876ZM106.051 585.616C104.903 585.653 103.923 585.747 103.111 585.896C102.308 586.036 101.65 586.223 101.137 586.456C100.633 586.689 100.264 586.965 100.031 587.282C99.8066 587.599 99.6946 587.954 99.6946 588.346C99.6946 588.719 99.7553 589.041 99.8766 589.312C99.998 589.583 100.161 589.807 100.367 589.984C100.581 590.152 100.829 590.278 101.109 590.362C101.398 590.437 101.706 590.474 102.033 590.474C102.471 590.474 102.873 590.432 103.237 590.348C103.601 590.255 103.941 590.124 104.259 589.956C104.585 589.788 104.893 589.587 105.183 589.354C105.481 589.121 105.771 588.855 106.051 588.556V585.616ZM98.0006 579.82C98.7846 579.064 99.6293 578.499 100.535 578.126C101.44 577.753 102.443 577.566 103.545 577.566C104.338 577.566 105.043 577.697 105.659 577.958C106.275 578.219 106.793 578.583 107.213 579.05C107.633 579.517 107.95 580.081 108.165 580.744C108.379 581.407 108.487 582.135 108.487 582.928V592H107.381C107.138 592 106.951 591.963 106.821 591.888C106.69 591.804 106.587 591.645 106.513 591.412L106.233 590.068C105.859 590.413 105.495 590.721 105.141 590.992C104.786 591.253 104.413 591.477 104.021 591.664C103.629 591.841 103.209 591.977 102.761 592.07C102.322 592.173 101.832 592.224 101.291 592.224C100.74 592.224 100.222 592.149 99.7366 592C99.2513 591.841 98.8266 591.608 98.4626 591.3C98.108 590.992 97.8233 590.605 97.6086 590.138C97.4033 589.662 97.3006 589.102 97.3006 588.458C97.3006 587.898 97.4546 587.361 97.7626 586.848C98.0706 586.325 98.57 585.863 99.2606 585.462C99.9513 585.061 100.852 584.734 101.963 584.482C103.073 584.221 104.436 584.071 106.051 584.034V582.928C106.051 581.827 105.813 580.996 105.337 580.436C104.861 579.867 104.165 579.582 103.251 579.582C102.635 579.582 102.117 579.661 101.697 579.82C101.286 579.969 100.927 580.142 100.619 580.338C100.32 580.525 100.059 580.697 99.8346 580.856C99.62 581.005 99.4053 581.08 99.1906 581.08C99.0226 581.08 98.878 581.038 98.7566 580.954C98.6353 580.861 98.5326 580.749 98.4486 580.618L98.0006 579.82ZM125.251 592H122.759V579.904H115.451V588.416C115.451 589.013 115.596 589.457 115.885 589.746C116.175 590.035 116.548 590.18 117.005 590.18C117.267 590.18 117.491 590.147 117.677 590.082C117.873 590.007 118.041 589.928 118.181 589.844C118.321 589.76 118.438 589.685 118.531 589.62C118.634 589.545 118.723 589.508 118.797 589.508C118.928 589.508 119.045 589.587 119.147 589.746L119.875 590.936C119.446 591.337 118.928 591.655 118.321 591.888C117.715 592.112 117.089 592.224 116.445 592.224C115.325 592.224 114.462 591.911 113.855 591.286C113.258 590.661 112.959 589.76 112.959 588.584V579.904H111.251C111.102 579.904 110.976 579.862 110.873 579.778C110.771 579.685 110.719 579.545 110.719 579.358V578.364L113.043 578.056L113.617 573.688C113.645 573.548 113.706 573.436 113.799 573.352C113.902 573.259 114.033 573.212 114.191 573.212H115.451V578.098H125.251V592ZM125.867 573.268C125.867 573.511 125.816 573.739 125.713 573.954C125.62 574.159 125.489 574.341 125.321 574.5C125.163 574.659 124.976 574.785 124.761 574.878C124.547 574.971 124.318 575.018 124.075 575.018C123.833 575.018 123.604 574.971 123.389 574.878C123.184 574.785 123.002 574.659 122.843 574.5C122.685 574.341 122.559 574.159 122.465 573.954C122.372 573.739 122.325 573.511 122.325 573.268C122.325 573.025 122.372 572.797 122.465 572.582C122.559 572.358 122.685 572.167 122.843 572.008C123.002 571.84 123.184 571.709 123.389 571.616C123.604 571.523 123.833 571.476 124.075 571.476C124.318 571.476 124.547 571.523 124.761 571.616C124.976 571.709 125.163 571.84 125.321 572.008C125.489 572.167 125.62 572.358 125.713 572.582C125.816 572.797 125.867 573.025 125.867 573.268ZM135.323 577.594C136.359 577.594 137.292 577.767 138.123 578.112C138.954 578.457 139.663 578.947 140.251 579.582C140.839 580.217 141.287 580.987 141.595 581.892C141.912 582.788 142.071 583.791 142.071 584.902C142.071 586.022 141.912 587.03 141.595 587.926C141.287 588.822 140.839 589.587 140.251 590.222C139.663 590.857 138.954 591.347 138.123 591.692C137.292 592.028 136.359 592.196 135.323 592.196C134.278 592.196 133.335 592.028 132.495 591.692C131.664 591.347 130.955 590.857 130.367 590.222C129.779 589.587 129.326 588.822 129.009 587.926C128.701 587.03 128.547 586.022 128.547 584.902C128.547 583.791 128.701 582.788 129.009 581.892C129.326 580.987 129.779 580.217 130.367 579.582C130.955 578.947 131.664 578.457 132.495 578.112C133.335 577.767 134.278 577.594 135.323 577.594ZM135.323 590.25C136.723 590.25 137.768 589.783 138.459 588.85C139.15 587.907 139.495 586.596 139.495 584.916C139.495 583.227 139.15 581.911 138.459 580.968C137.768 580.025 136.723 579.554 135.323 579.554C134.614 579.554 133.993 579.675 133.461 579.918C132.938 580.161 132.5 580.511 132.145 580.968C131.8 581.425 131.538 581.99 131.361 582.662C131.193 583.325 131.109 584.076 131.109 584.916C131.109 586.596 131.454 587.907 132.145 588.85C132.845 589.783 133.904 590.25 135.323 590.25ZM147.584 579.876C147.892 579.531 148.218 579.218 148.564 578.938C148.909 578.658 149.273 578.42 149.656 578.224C150.048 578.019 150.458 577.865 150.888 577.762C151.326 577.65 151.798 577.594 152.302 577.594C153.076 577.594 153.758 577.725 154.346 577.986C154.943 578.238 155.438 578.602 155.83 579.078C156.231 579.545 156.534 580.109 156.74 580.772C156.945 581.435 157.048 582.167 157.048 582.97V592H154.542V582.97C154.542 581.897 154.294 581.066 153.8 580.478C153.314 579.881 152.572 579.582 151.574 579.582C150.836 579.582 150.146 579.759 149.502 580.114C148.867 580.469 148.279 580.949 147.738 581.556V592H145.232V577.818H146.73C147.084 577.818 147.304 577.991 147.388 578.336L147.584 579.876ZM175.695 585.616C174.547 585.653 173.567 585.747 172.755 585.896C171.952 586.036 171.294 586.223 170.781 586.456C170.277 586.689 169.908 586.965 169.675 587.282C169.451 587.599 169.339 587.954 169.339 588.346C169.339 588.719 169.4 589.041 169.521 589.312C169.642 589.583 169.806 589.807 170.011 589.984C170.226 590.152 170.473 590.278 170.753 590.362C171.042 590.437 171.35 590.474 171.677 590.474C172.116 590.474 172.517 590.432 172.881 590.348C173.245 590.255 173.586 590.124 173.903 589.956C174.23 589.788 174.538 589.587 174.827 589.354C175.126 589.121 175.415 588.855 175.695 588.556V585.616ZM167.645 579.82C168.429 579.064 169.274 578.499 170.179 578.126C171.084 577.753 172.088 577.566 173.189 577.566C173.982 577.566 174.687 577.697 175.303 577.958C175.919 578.219 176.437 578.583 176.857 579.05C177.277 579.517 177.594 580.081 177.809 580.744C178.024 581.407 178.131 582.135 178.131 582.928V592H177.025C176.782 592 176.596 591.963 176.465 591.888C176.334 591.804 176.232 591.645 176.157 591.412L175.877 590.068C175.504 590.413 175.14 590.721 174.785 590.992C174.43 591.253 174.057 591.477 173.665 591.664C173.273 591.841 172.853 591.977 172.405 592.07C171.966 592.173 171.476 592.224 170.935 592.224C170.384 592.224 169.866 592.149 169.381 592C168.896 591.841 168.471 591.608 168.107 591.3C167.752 590.992 167.468 590.605 167.253 590.138C167.048 589.662 166.945 589.102 166.945 588.458C166.945 587.898 167.099 587.361 167.407 586.848C167.715 586.325 168.214 585.863 168.905 585.462C169.596 585.061 170.496 584.734 171.607 584.482C172.718 584.221 174.08 584.071 175.695 584.034V582.928C175.695 581.827 175.457 580.996 174.981 580.436C174.505 579.867 173.81 579.582 172.895 579.582C172.279 579.582 171.761 579.661 171.341 579.82C170.93 579.969 170.571 580.142 170.263 580.338C169.964 580.525 169.703 580.697 169.479 580.856C169.264 581.005 169.05 581.08 168.835 581.08C168.667 581.08 168.522 581.038 168.401 580.954C168.28 580.861 168.177 580.749 168.093 580.618L167.645 579.82ZM184.433 588.584C184.89 589.2 185.39 589.634 185.931 589.886C186.482 590.138 187.084 590.264 187.737 590.264C189.072 590.264 190.094 589.793 190.803 588.85C191.512 587.907 191.867 586.503 191.867 584.636C191.867 582.9 191.55 581.626 190.915 580.814C190.29 579.993 189.394 579.582 188.227 579.582C187.415 579.582 186.706 579.769 186.099 580.142C185.502 580.515 184.946 581.043 184.433 581.724V588.584ZM184.433 579.862C185.03 579.171 185.702 578.621 186.449 578.21C187.205 577.799 188.073 577.594 189.053 577.594C189.884 577.594 190.63 577.753 191.293 578.07C191.965 578.387 192.534 578.849 193.001 579.456C193.468 580.053 193.822 580.781 194.065 581.64C194.317 582.499 194.443 583.465 194.443 584.538C194.443 585.686 194.303 586.731 194.023 587.674C193.743 588.617 193.337 589.424 192.805 590.096C192.282 590.759 191.643 591.277 190.887 591.65C190.131 592.014 189.282 592.196 188.339 592.196C187.406 592.196 186.617 592.023 185.973 591.678C185.338 591.323 184.783 590.824 184.307 590.18L184.181 591.468C184.106 591.823 183.892 592 183.537 592H181.927V571.378H184.433V579.862ZM203.573 577.594C204.609 577.594 205.542 577.767 206.373 578.112C207.204 578.457 207.913 578.947 208.501 579.582C209.089 580.217 209.537 580.987 209.845 581.892C210.162 582.788 210.321 583.791 210.321 584.902C210.321 586.022 210.162 587.03 209.845 587.926C209.537 588.822 209.089 589.587 208.501 590.222C207.913 590.857 207.204 591.347 206.373 591.692C205.542 592.028 204.609 592.196 203.573 592.196C202.528 592.196 201.585 592.028 200.745 591.692C199.914 591.347 199.205 590.857 198.617 590.222C198.029 589.587 197.576 588.822 197.259 587.926C196.951 587.03 196.797 586.022 196.797 584.902C196.797 583.791 196.951 582.788 197.259 581.892C197.576 580.987 198.029 580.217 198.617 579.582C199.205 578.947 199.914 578.457 200.745 578.112C201.585 577.767 202.528 577.594 203.573 577.594ZM203.573 590.25C204.973 590.25 206.018 589.783 206.709 588.85C207.4 587.907 207.745 586.596 207.745 584.916C207.745 583.227 207.4 581.911 206.709 580.968C206.018 580.025 204.973 579.554 203.573 579.554C202.864 579.554 202.243 579.675 201.711 579.918C201.188 580.161 200.75 580.511 200.395 580.968C200.05 581.425 199.788 581.99 199.611 582.662C199.443 583.325 199.359 584.076 199.359 584.916C199.359 586.596 199.704 587.907 200.395 588.85C201.095 589.783 202.154 590.25 203.573 590.25ZM225.144 577.818V592H223.66C223.305 592 223.081 591.827 222.988 591.482L222.792 589.956C222.176 590.637 221.485 591.188 220.72 591.608C219.954 592.019 219.077 592.224 218.088 592.224C217.313 592.224 216.627 592.098 216.03 591.846C215.442 591.585 214.947 591.221 214.546 590.754C214.144 590.287 213.841 589.723 213.636 589.06C213.44 588.397 213.342 587.665 213.342 586.862V577.818H215.834V586.862C215.834 587.935 216.076 588.766 216.562 589.354C217.056 589.942 217.808 590.236 218.816 590.236C219.553 590.236 220.239 590.063 220.874 589.718C221.518 589.363 222.11 588.878 222.652 588.262V577.818H225.144ZM233.449 592.224C232.329 592.224 231.466 591.911 230.859 591.286C230.262 590.661 229.963 589.76 229.963 588.584V579.904H228.255C228.106 579.904 227.98 579.862 227.877 579.778C227.774 579.685 227.723 579.545 227.723 579.358V578.364L230.047 578.07L230.621 573.688C230.649 573.548 230.71 573.436 230.803 573.352C230.906 573.259 231.036 573.212 231.195 573.212H232.455V578.098H236.557V579.904H232.455V588.416C232.455 589.013 232.6 589.457 232.889 589.746C233.178 590.035 233.552 590.18 234.009 590.18C234.27 590.18 234.494 590.147 234.681 590.082C234.877 590.007 235.045 589.928 235.185 589.844C235.325 589.76 235.442 589.685 235.535 589.62C235.638 589.545 235.726 589.508 235.801 589.508C235.932 589.508 236.048 589.587 236.151 589.746L236.879 590.936C236.45 591.337 235.932 591.655 235.325 591.888C234.718 592.112 234.093 592.224 233.449 592.224ZM250.648 592.224C249.528 592.224 248.665 591.911 248.058 591.286C247.461 590.661 247.162 589.76 247.162 588.584V579.904H245.454C245.305 579.904 245.179 579.862 245.076 579.778C244.974 579.685 244.922 579.545 244.922 579.358V578.364L247.246 578.07L247.82 573.688C247.848 573.548 247.909 573.436 248.002 573.352C248.105 573.259 248.236 573.212 248.394 573.212H249.654V578.098H253.756V579.904H249.654V588.416C249.654 589.013 249.799 589.457 250.088 589.746C250.378 590.035 250.751 590.18 251.208 590.18C251.47 590.18 251.694 590.147 251.88 590.082C252.076 590.007 252.244 589.928 252.384 589.844C252.524 589.76 252.641 589.685 252.734 589.62C252.837 589.545 252.926 589.508 253 589.508C253.131 589.508 253.248 589.587 253.35 589.746L254.078 590.936C253.649 591.337 253.131 591.655 252.524 591.888C251.918 592.112 251.292 592.224 250.648 592.224ZM258.835 579.708C259.442 579.064 260.114 578.551 260.851 578.168C261.589 577.785 262.438 577.594 263.399 577.594C264.174 577.594 264.855 577.725 265.443 577.986C266.041 578.238 266.535 578.602 266.927 579.078C267.329 579.545 267.632 580.109 267.837 580.772C268.043 581.435 268.145 582.167 268.145 582.97V592H265.639V582.97C265.639 581.897 265.392 581.066 264.897 580.478C264.412 579.881 263.67 579.582 262.671 579.582C261.934 579.582 261.243 579.759 260.599 580.114C259.965 580.469 259.377 580.949 258.835 581.556V592H256.329V571.378H258.835V579.708ZM274.575 577.818V592H272.083V577.818H274.575ZM275.107 573.366C275.107 573.609 275.055 573.837 274.953 574.052C274.859 574.257 274.729 574.444 274.561 574.612C274.402 574.771 274.211 574.897 273.987 574.99C273.772 575.083 273.543 575.13 273.301 575.13C273.058 575.13 272.829 575.083 272.615 574.99C272.409 574.897 272.227 574.771 272.069 574.612C271.91 574.444 271.784 574.257 271.691 574.052C271.597 573.837 271.551 573.609 271.551 573.366C271.551 573.123 271.597 572.895 271.691 572.68C271.784 572.456 271.91 572.265 272.069 572.106C272.227 571.938 272.409 571.807 272.615 571.714C272.829 571.621 273.058 571.574 273.301 571.574C273.543 571.574 273.772 571.621 273.987 571.714C274.211 571.807 274.402 571.938 274.561 572.106C274.729 572.265 274.859 572.456 274.953 572.68C275.055 572.895 275.107 573.123 275.107 573.366ZM286.929 580.156C286.817 580.361 286.645 580.464 286.411 580.464C286.271 580.464 286.113 580.413 285.935 580.31C285.758 580.207 285.539 580.095 285.277 579.974C285.025 579.843 284.722 579.727 284.367 579.624C284.013 579.512 283.593 579.456 283.107 579.456C282.687 579.456 282.309 579.512 281.973 579.624C281.637 579.727 281.348 579.871 281.105 580.058C280.872 580.245 280.69 580.464 280.559 580.716C280.438 580.959 280.377 581.225 280.377 581.514C280.377 581.878 280.48 582.181 280.685 582.424C280.9 582.667 281.18 582.877 281.525 583.054C281.871 583.231 282.263 583.39 282.701 583.53C283.14 583.661 283.588 583.805 284.045 583.964C284.512 584.113 284.965 584.281 285.403 584.468C285.842 584.655 286.234 584.888 286.579 585.168C286.925 585.448 287.2 585.793 287.405 586.204C287.62 586.605 287.727 587.091 287.727 587.66C287.727 588.313 287.611 588.92 287.377 589.48C287.144 590.031 286.799 590.511 286.341 590.922C285.884 591.323 285.324 591.641 284.661 591.874C283.999 592.107 283.233 592.224 282.365 592.224C281.376 592.224 280.48 592.065 279.677 591.748C278.875 591.421 278.193 591.006 277.633 590.502L278.221 589.55C278.296 589.429 278.385 589.335 278.487 589.27C278.59 589.205 278.721 589.172 278.879 589.172C279.047 589.172 279.225 589.237 279.411 589.368C279.598 589.499 279.822 589.643 280.083 589.802C280.354 589.961 280.681 590.105 281.063 590.236C281.446 590.367 281.922 590.432 282.491 590.432C282.977 590.432 283.401 590.371 283.765 590.25C284.129 590.119 284.433 589.947 284.675 589.732C284.918 589.517 285.095 589.27 285.207 588.99C285.329 588.71 285.389 588.411 285.389 588.094C285.389 587.702 285.282 587.38 285.067 587.128C284.862 586.867 284.587 586.647 284.241 586.47C283.896 586.283 283.499 586.125 283.051 585.994C282.613 585.854 282.16 585.709 281.693 585.56C281.236 585.411 280.783 585.243 280.335 585.056C279.897 584.86 279.505 584.617 279.159 584.328C278.814 584.039 278.534 583.684 278.319 583.264C278.114 582.835 278.011 582.317 278.011 581.71C278.011 581.169 278.123 580.651 278.347 580.156C278.571 579.652 278.898 579.213 279.327 578.84C279.757 578.457 280.284 578.154 280.909 577.93C281.535 577.706 282.249 577.594 283.051 577.594C283.985 577.594 284.82 577.743 285.557 578.042C286.304 578.331 286.948 578.733 287.489 579.246L286.929 580.156ZM300.453 588.584C300.91 589.2 301.409 589.634 301.951 589.886C302.492 590.138 303.099 590.264 303.771 590.264C305.096 590.264 306.113 589.793 306.823 588.85C307.532 587.907 307.887 586.563 307.887 584.818C307.887 583.894 307.803 583.101 307.635 582.438C307.476 581.775 307.243 581.234 306.935 580.814C306.627 580.385 306.249 580.072 305.801 579.876C305.353 579.68 304.844 579.582 304.275 579.582C303.463 579.582 302.749 579.769 302.133 580.142C301.526 580.515 300.966 581.043 300.453 581.724V588.584ZM300.327 580.016C300.924 579.279 301.615 578.686 302.399 578.238C303.183 577.79 304.079 577.566 305.087 577.566C305.908 577.566 306.65 577.725 307.313 578.042C307.975 578.35 308.54 578.812 309.007 579.428C309.473 580.035 309.833 580.791 310.085 581.696C310.337 582.601 310.463 583.642 310.463 584.818C310.463 585.863 310.323 586.839 310.043 587.744C309.763 588.64 309.357 589.419 308.825 590.082C308.302 590.735 307.658 591.253 306.893 591.636C306.137 592.009 305.283 592.196 304.331 592.196C303.463 592.196 302.716 592.051 302.091 591.762C301.475 591.463 300.929 591.053 300.453 590.53V596.802H297.947V577.818H299.445C299.799 577.818 300.019 577.991 300.103 578.336L300.327 580.016ZM316.008 580.66C316.456 579.689 317.007 578.933 317.66 578.392C318.313 577.841 319.111 577.566 320.054 577.566C320.353 577.566 320.637 577.599 320.908 577.664C321.188 577.729 321.435 577.832 321.65 577.972L321.468 579.834C321.412 580.067 321.272 580.184 321.048 580.184C320.917 580.184 320.726 580.156 320.474 580.1C320.222 580.044 319.937 580.016 319.62 580.016C319.172 580.016 318.771 580.081 318.416 580.212C318.071 580.343 317.758 580.539 317.478 580.8C317.207 581.052 316.96 581.369 316.736 581.752C316.521 582.125 316.325 582.555 316.148 583.04V592H313.642V577.818H315.07C315.341 577.818 315.527 577.869 315.63 577.972C315.733 578.075 315.803 578.252 315.84 578.504L316.008 580.66ZM329.245 577.594C330.281 577.594 331.214 577.767 332.045 578.112C332.876 578.457 333.585 578.947 334.173 579.582C334.761 580.217 335.209 580.987 335.517 581.892C335.834 582.788 335.993 583.791 335.993 584.902C335.993 586.022 335.834 587.03 335.517 587.926C335.209 588.822 334.761 589.587 334.173 590.222C333.585 590.857 332.876 591.347 332.045 591.692C331.214 592.028 330.281 592.196 329.245 592.196C328.2 592.196 327.257 592.028 326.417 591.692C325.586 591.347 324.877 590.857 324.289 590.222C323.701 589.587 323.248 588.822 322.931 587.926C322.623 587.03 322.469 586.022 322.469 584.902C322.469 583.791 322.623 582.788 322.931 581.892C323.248 580.987 323.701 580.217 324.289 579.582C324.877 578.947 325.586 578.457 326.417 578.112C327.257 577.767 328.2 577.594 329.245 577.594ZM329.245 590.25C330.645 590.25 331.69 589.783 332.381 588.85C333.072 587.907 333.417 586.596 333.417 584.916C333.417 583.227 333.072 581.911 332.381 580.968C331.69 580.025 330.645 579.554 329.245 579.554C328.536 579.554 327.915 579.675 327.383 579.918C326.86 580.161 326.422 580.511 326.067 580.968C325.722 581.425 325.46 581.99 325.283 582.662C325.115 583.325 325.031 584.076 325.031 584.916C325.031 586.596 325.376 587.907 326.067 588.85C326.767 589.783 327.826 590.25 329.245 590.25ZM341.786 577.818V593.05C341.786 593.619 341.711 594.147 341.562 594.632C341.412 595.127 341.174 595.556 340.848 595.92C340.521 596.284 340.101 596.569 339.588 596.774C339.084 596.989 338.477 597.096 337.768 597.096C337.469 597.096 337.194 597.073 336.942 597.026C336.69 596.979 336.438 596.909 336.186 596.816L336.284 595.472C336.302 595.388 336.335 595.323 336.382 595.276C336.419 595.239 336.475 595.215 336.55 595.206C336.624 595.197 336.722 595.192 336.844 595.192C336.956 595.201 337.1 595.206 337.278 595.206C338.006 595.206 338.524 595.033 338.832 594.688C339.14 594.352 339.294 593.806 339.294 593.05V577.818H341.786ZM342.304 573.366C342.304 573.609 342.252 573.837 342.15 574.052C342.056 574.257 341.926 574.444 341.758 574.612C341.599 574.771 341.412 574.897 341.198 574.99C340.983 575.083 340.754 575.13 340.512 575.13C340.269 575.13 340.04 575.083 339.826 574.99C339.62 574.897 339.438 574.771 339.28 574.612C339.121 574.444 338.995 574.257 338.902 574.052C338.808 573.837 338.762 573.609 338.762 573.366C338.762 573.123 338.808 572.895 338.902 572.68C338.995 572.456 339.121 572.265 339.28 572.106C339.438 571.938 339.62 571.807 339.826 571.714C340.04 571.621 340.269 571.574 340.512 571.574C340.754 571.574 340.983 571.621 341.198 571.714C341.412 571.807 341.599 571.938 341.758 572.106C341.926 572.265 342.056 572.456 342.15 572.68C342.252 572.895 342.304 573.123 342.304 573.366ZM355.372 583.362C355.372 582.783 355.288 582.256 355.12 581.78C354.962 581.295 354.724 580.879 354.406 580.534C354.098 580.179 353.72 579.909 353.272 579.722C352.824 579.526 352.316 579.428 351.746 579.428C350.552 579.428 349.604 579.778 348.904 580.478C348.214 581.169 347.784 582.13 347.616 583.362H355.372ZM357.388 590.012C357.08 590.385 356.712 590.712 356.282 590.992C355.853 591.263 355.391 591.487 354.896 591.664C354.411 591.841 353.907 591.972 353.384 592.056C352.862 592.149 352.344 592.196 351.83 592.196C350.85 592.196 349.945 592.033 349.114 591.706C348.293 591.37 347.579 590.885 346.972 590.25C346.375 589.606 345.908 588.813 345.572 587.87C345.236 586.927 345.068 585.845 345.068 584.622C345.068 583.633 345.218 582.709 345.516 581.85C345.824 580.991 346.263 580.249 346.832 579.624C347.402 578.989 348.097 578.495 348.918 578.14C349.74 577.776 350.664 577.594 351.69 577.594C352.54 577.594 353.324 577.739 354.042 578.028C354.77 578.308 355.396 578.719 355.918 579.26C356.45 579.792 356.866 580.455 357.164 581.248C357.463 582.032 357.612 582.928 357.612 583.936C357.612 584.328 357.57 584.589 357.486 584.72C357.402 584.851 357.244 584.916 357.01 584.916H347.532C347.56 585.812 347.682 586.591 347.896 587.254C348.12 587.917 348.428 588.472 348.82 588.92C349.212 589.359 349.679 589.69 350.22 589.914C350.762 590.129 351.368 590.236 352.04 590.236C352.666 590.236 353.202 590.166 353.65 590.026C354.108 589.877 354.5 589.718 354.826 589.55C355.153 589.382 355.424 589.228 355.638 589.088C355.862 588.939 356.054 588.864 356.212 588.864C356.418 588.864 356.576 588.943 356.688 589.102L357.388 590.012ZM370.543 580.338C370.469 580.441 370.394 580.52 370.319 580.576C370.245 580.632 370.142 580.66 370.011 580.66C369.871 580.66 369.717 580.604 369.549 580.492C369.381 580.371 369.171 580.24 368.919 580.1C368.677 579.96 368.373 579.834 368.009 579.722C367.655 579.601 367.216 579.54 366.693 579.54C365.993 579.54 365.377 579.666 364.845 579.918C364.313 580.161 363.865 580.515 363.501 580.982C363.147 581.449 362.876 582.013 362.689 582.676C362.512 583.339 362.423 584.081 362.423 584.902C362.423 585.761 362.521 586.526 362.717 587.198C362.913 587.861 363.189 588.421 363.543 588.878C363.907 589.326 364.341 589.671 364.845 589.914C365.359 590.147 365.933 590.264 366.567 590.264C367.174 590.264 367.673 590.194 368.065 590.054C368.457 589.905 368.779 589.741 369.031 589.564C369.293 589.387 369.507 589.228 369.675 589.088C369.853 588.939 370.025 588.864 370.193 588.864C370.399 588.864 370.557 588.943 370.669 589.102L371.369 590.012C371.061 590.395 370.711 590.721 370.319 590.992C369.927 591.263 369.503 591.491 369.045 591.678C368.597 591.855 368.126 591.986 367.631 592.07C367.137 592.154 366.633 592.196 366.119 592.196C365.233 592.196 364.407 592.033 363.641 591.706C362.885 591.379 362.227 590.908 361.667 590.292C361.107 589.667 360.669 588.901 360.351 587.996C360.034 587.091 359.875 586.059 359.875 584.902C359.875 583.847 360.02 582.872 360.309 581.976C360.608 581.08 361.037 580.31 361.597 579.666C362.167 579.013 362.862 578.504 363.683 578.14C364.514 577.776 365.466 577.594 366.539 577.594C367.538 577.594 368.415 577.757 369.171 578.084C369.937 578.401 370.613 578.854 371.201 579.442L370.543 580.338ZM378.398 592.224C377.278 592.224 376.415 591.911 375.808 591.286C375.211 590.661 374.912 589.76 374.912 588.584V579.904H373.204C373.055 579.904 372.929 579.862 372.826 579.778C372.724 579.685 372.672 579.545 372.672 579.358V578.364L374.996 578.07L375.57 573.688C375.598 573.548 375.659 573.436 375.752 573.352C375.855 573.259 375.986 573.212 376.144 573.212H377.404V578.098H381.506V579.904H377.404V588.416C377.404 589.013 377.549 589.457 377.838 589.746C378.128 590.035 378.501 590.18 378.958 590.18C379.22 590.18 379.444 590.147 379.63 590.082C379.826 590.007 379.994 589.928 380.134 589.844C380.274 589.76 380.391 589.685 380.484 589.62C380.587 589.545 380.676 589.508 380.75 589.508C380.881 589.508 380.998 589.587 381.1 589.746L381.828 590.936C381.399 591.337 380.881 591.655 380.274 591.888C379.668 592.112 379.042 592.224 378.398 592.224ZM383.659 590.46C383.659 590.217 383.701 589.989 383.785 589.774C383.879 589.559 384 589.373 384.149 589.214C384.308 589.055 384.495 588.929 384.709 588.836C384.924 588.743 385.153 588.696 385.395 588.696C385.638 588.696 385.867 588.743 386.081 588.836C386.296 588.929 386.483 589.055 386.641 589.214C386.8 589.373 386.926 589.559 387.019 589.774C387.113 589.989 387.159 590.217 387.159 590.46C387.159 590.712 387.113 590.945 387.019 591.16C386.926 591.365 386.8 591.547 386.641 591.706C386.483 591.865 386.296 591.986 386.081 592.07C385.867 592.163 385.638 592.21 385.395 592.21C385.153 592.21 384.924 592.163 384.709 592.07C384.495 591.986 384.308 591.865 384.149 591.706C384 591.547 383.879 591.365 383.785 591.16C383.701 590.945 383.659 590.712 383.659 590.46ZM412.043 587.226C412.248 587.226 412.43 587.305 412.589 587.464L414.073 589.074C413.251 590.091 412.239 590.871 411.035 591.412C409.84 591.953 408.403 592.224 406.723 592.224C405.22 592.224 403.867 591.967 402.663 591.454C401.468 590.941 400.446 590.227 399.597 589.312C398.747 588.397 398.094 587.305 397.637 586.036C397.189 584.767 396.965 583.381 396.965 581.878C396.965 580.357 397.207 578.966 397.693 577.706C398.178 576.437 398.859 575.345 399.737 574.43C400.623 573.515 401.678 572.806 402.901 572.302C404.123 571.789 405.477 571.532 406.961 571.532C408.435 571.532 409.742 571.775 410.881 572.26C412.029 572.745 413.004 573.38 413.807 574.164L412.547 575.914C412.472 576.026 412.374 576.124 412.253 576.208C412.141 576.292 411.982 576.334 411.777 576.334C411.637 576.334 411.492 576.297 411.343 576.222C411.193 576.138 411.03 576.04 410.853 575.928C410.675 575.807 410.47 575.676 410.237 575.536C410.003 575.396 409.733 575.27 409.425 575.158C409.117 575.037 408.757 574.939 408.347 574.864C407.945 574.78 407.479 574.738 406.947 574.738C406.041 574.738 405.211 574.901 404.455 575.228C403.708 575.545 403.064 576.012 402.523 576.628C401.981 577.235 401.561 577.981 401.263 578.868C400.964 579.745 400.815 580.749 400.815 581.878C400.815 583.017 400.973 584.029 401.291 584.916C401.617 585.803 402.056 586.549 402.607 587.156C403.157 587.763 403.806 588.229 404.553 588.556C405.299 588.873 406.102 589.032 406.961 589.032C407.474 589.032 407.936 589.004 408.347 588.948C408.767 588.892 409.149 588.803 409.495 588.682C409.849 588.561 410.181 588.407 410.489 588.22C410.806 588.024 411.119 587.786 411.427 587.506C411.52 587.422 411.618 587.357 411.721 587.31C411.823 587.254 411.931 587.226 412.043 587.226ZM428.51 588.892V592H416.652V571.756H420.418V588.892H428.51ZM434.979 592H431.199V571.756H434.979V592ZM453.414 587.226C453.619 587.226 453.801 587.305 453.96 587.464L455.444 589.074C454.622 590.091 453.61 590.871 452.406 591.412C451.211 591.953 449.774 592.224 448.094 592.224C446.591 592.224 445.238 591.967 444.034 591.454C442.839 590.941 441.817 590.227 440.968 589.312C440.118 588.397 439.465 587.305 439.008 586.036C438.56 584.767 438.336 583.381 438.336 581.878C438.336 580.357 438.578 578.966 439.064 577.706C439.549 576.437 440.23 575.345 441.108 574.43C441.994 573.515 443.049 572.806 444.272 572.302C445.494 571.789 446.848 571.532 448.332 571.532C449.806 571.532 451.113 571.775 452.252 572.26C453.4 572.745 454.375 573.38 455.178 574.164L453.918 575.914C453.843 576.026 453.745 576.124 453.624 576.208C453.512 576.292 453.353 576.334 453.148 576.334C453.008 576.334 452.863 576.297 452.714 576.222C452.564 576.138 452.401 576.04 452.224 575.928C452.046 575.807 451.841 575.676 451.608 575.536C451.374 575.396 451.104 575.27 450.796 575.158C450.488 575.037 450.128 574.939 449.718 574.864C449.316 574.78 448.85 574.738 448.318 574.738C447.412 574.738 446.582 574.901 445.826 575.228C445.079 575.545 444.435 576.012 443.894 576.628C443.352 577.235 442.932 577.981 442.634 578.868C442.335 579.745 442.186 580.749 442.186 581.878C442.186 583.017 442.344 584.029 442.662 584.916C442.988 585.803 443.427 586.549 443.978 587.156C444.528 587.763 445.177 588.229 445.924 588.556C446.67 588.873 447.473 589.032 448.332 589.032C448.845 589.032 449.307 589.004 449.718 588.948C450.138 588.892 450.52 588.803 450.866 588.682C451.22 588.561 451.552 588.407 451.86 588.22C452.177 588.024 452.49 587.786 452.798 587.506C452.891 587.422 452.989 587.357 453.092 587.31C453.194 587.254 453.302 587.226 453.414 587.226ZM461.79 580.24H462.672C463.026 580.24 463.32 580.193 463.554 580.1C463.787 579.997 463.988 579.839 464.156 579.624L469.742 572.554C469.975 572.255 470.218 572.05 470.47 571.938C470.731 571.817 471.058 571.756 471.45 571.756H474.698L467.88 580.17C467.478 580.683 467.063 581.047 466.634 581.262C466.942 581.374 467.217 581.533 467.46 581.738C467.712 581.934 467.95 582.195 468.174 582.522L475.202 592H471.884C471.436 592 471.1 591.939 470.876 591.818C470.661 591.687 470.479 591.501 470.33 591.258L464.604 583.782C464.426 583.53 464.221 583.353 463.988 583.25C463.754 583.147 463.418 583.096 462.98 583.096H461.79V592H458.024V571.756H461.79V580.24ZM32.394 608.85H26.29V626H22.524V608.85H16.42V605.756H32.394V608.85ZM53.6655 615.878C53.6655 617.362 53.4181 618.739 52.9235 620.008C52.4381 621.268 51.7475 622.36 50.8515 623.284C49.9555 624.208 48.8775 624.931 47.6175 625.454C46.3575 625.967 44.9575 626.224 43.4175 626.224C41.8868 626.224 40.4915 625.967 39.2315 625.454C37.9715 624.931 36.8888 624.208 35.9835 623.284C35.0875 622.36 34.3921 621.268 33.8975 620.008C33.4028 618.739 33.1555 617.362 33.1555 615.878C33.1555 614.394 33.4028 613.022 33.8975 611.762C34.3921 610.493 35.0875 609.396 35.9835 608.472C36.8888 607.548 37.9715 606.829 39.2315 606.316C40.4915 605.793 41.8868 605.532 43.4175 605.532C44.4441 605.532 45.4101 605.653 46.3155 605.896C47.2208 606.129 48.0515 606.465 48.8075 606.904C49.5635 607.333 50.2401 607.861 50.8375 608.486C51.4441 609.102 51.9575 609.793 52.3775 610.558C52.7975 611.323 53.1148 612.154 53.3295 613.05C53.5535 613.946 53.6655 614.889 53.6655 615.878ZM49.8155 615.878C49.8155 614.767 49.6661 613.773 49.3675 612.896C49.0688 612.009 48.6441 611.258 48.0935 610.642C47.5428 610.026 46.8708 609.555 46.0775 609.228C45.2935 608.901 44.4068 608.738 43.4175 608.738C42.4281 608.738 41.5368 608.901 40.7435 609.228C39.9595 609.555 39.2875 610.026 38.7275 610.642C38.1768 611.258 37.7521 612.009 37.4535 612.896C37.1548 613.773 37.0055 614.767 37.0055 615.878C37.0055 616.989 37.1548 617.987 37.4535 618.874C37.7521 619.751 38.1768 620.498 38.7275 621.114C39.2875 621.721 39.9595 622.187 40.7435 622.514C41.5368 622.841 42.4281 623.004 43.4175 623.004C44.4068 623.004 45.2935 622.841 46.0775 622.514C46.8708 622.187 47.5428 621.721 48.0935 621.114C48.6441 620.498 49.0688 619.751 49.3675 618.874C49.6661 617.987 49.8155 616.989 49.8155 615.878ZM80.0883 605.756L71.9123 626H68.5103L60.3343 605.756H63.3583C63.6849 605.756 63.9509 605.835 64.1563 605.994C64.3616 606.153 64.5156 606.358 64.6183 606.61L69.3923 618.958C69.5509 619.359 69.7003 619.803 69.8403 620.288C69.9896 620.764 70.1296 621.263 70.2603 621.786C70.3723 621.263 70.4936 620.764 70.6243 620.288C70.7549 619.803 70.8996 619.359 71.0583 618.958L75.8043 606.61C75.8789 606.395 76.0236 606.199 76.2383 606.022C76.4623 605.845 76.7329 605.756 77.0503 605.756H80.0883ZM85.9637 626H82.1837V605.756H85.9637V626ZM94.2762 608.752V614.366H101.36V617.264H94.2762V622.99H103.264V626H90.4962V605.756H103.264V608.752H94.2762ZM133.538 605.756L127.252 626H123.85L119.426 612.168C119.304 611.832 119.192 611.421 119.09 610.936C119.034 611.169 118.978 611.389 118.922 611.594C118.866 611.799 118.805 611.991 118.74 612.168L114.274 626H110.858L104.586 605.756H107.736C108.062 605.756 108.333 605.835 108.548 605.994C108.772 606.143 108.921 606.349 108.996 606.61L112.44 618.72C112.514 619.019 112.584 619.345 112.65 619.7C112.724 620.045 112.799 620.409 112.874 620.792C112.948 620.4 113.028 620.031 113.112 619.686C113.205 619.341 113.303 619.019 113.406 618.72L117.382 606.61C117.456 606.395 117.601 606.199 117.816 606.022C118.04 605.845 118.31 605.756 118.628 605.756H119.734C120.06 605.756 120.326 605.835 120.532 605.994C120.737 606.153 120.891 606.358 120.994 606.61L124.956 618.72C125.152 619.299 125.329 619.966 125.488 620.722C125.609 619.985 125.744 619.317 125.894 618.72L129.338 606.61C129.394 606.377 129.534 606.176 129.758 606.008C129.991 605.84 130.266 605.756 130.584 605.756H133.538Z" fill="#003049"/>
</g>
<defs>
<filter id="filter0_d_21_182" x="0" y="0" width="528" height="694" filterUnits="userSpaceOnUse" color-interpolation-filters="sRGB">
<feFlood flood-opacity="0" result="BackgroundImageFix"/>
<feColorMatrix in="SourceAlpha" type="matrix" values="0 0 0 0 0 0 0 0 0 0 0 0 0 0 0 0 0 0 127 0" result="hardAlpha"/>
<feOffset dx="8" dy="12"/>
<feGaussianBlur stdDeviation="4"/>
<feComposite in2="hardAlpha" operator="out"/>
<feColorMatrix type="matrix" values="0 0 0 0 0 0 0 0 0 0 0 0 0 0 0 0 0 0 0.16 0"/>
<feBlend mode="normal" in2="BackgroundImageFix" result="effect1_dropShadow_21_182"/>
<feBlend mode="normal" in="SourceGraphic" in2="effect1_dropShadow_21_182" result="shape"/>
</filter>
</defs>
</svg>
