<svg width="1024" height="104" viewBox="0 0 1024 104" fill="none" xmlns="http://www.w3.org/2000/svg">
<rect width="1024" height="104" fill="#003049" fill-opacity="0.8"/>
<g clip-path="url(#clip0_8_150)">
<path d="M100 10H16V94H100V10Z" fill="#003049"/>
<path d="M27.0133 25.2367V78.7633H42.67V50.6L58.9333 39.0033V25.2367L42.9733 35.8767V25.2367H27.0133Z" fill="#FAA31E"/>
<path d="M61.5933 25.2367V39.0033L75.5233 50.74V78.7633H88.9867V42.5967L61.5933 25.2367Z" fill="#FAA31E"/>
<path d="M27.0133 25.2367V78.7633H42.67V50.6L58.9333 39.0033V25.2367L42.9733 35.8767V25.2367H27.0133Z" fill="#FAA31E"/>
<path d="M61.5933 25.2367V39.0033L75.5233 50.74V78.7633H88.9867V42.5967L61.5933 25.2367Z" fill="#FAA31E"/>
<path d="M27.0133 25.2367V78.7633H42.67V50.6L58.9333 39.0033V25.2367L42.9733 35.8767V25.2367H27.0133Z" fill="#FAA31E"/>
<path d="M61.5933 25.2367V39.0033L75.5233 50.74V78.7633H88.9867V42.5967L61.5933 25.2367Z" fill="#FAA31E"/>
<path d="M27.0133 25.2367V78.7633H42.67V50.6L58.9333 39.0033V25.2367L42.9733 35.8767V25.2367H27.0133Z" fill="#FAA31E"/>
<path d="M61.5933 25.2367V39.0033L75.5233 50.74V78.7633H88.9867V42.5967L61.5933 25.2367Z" fill="#FAA31E"/>
</g>
<path d="M133.32 37.784V61H130.84C130.467 61 130.152 60.9413 129.896 60.824C129.64 60.696 129.389 60.4827 129.144 60.184L117.576 45.464C117.608 45.8373 117.629 46.2053 117.64 46.568C117.661 46.9307 117.672 47.2667 117.672 47.576V61H113.432V37.784H115.96C116.163 37.784 116.333 37.7947 116.472 37.816C116.621 37.8267 116.755 37.864 116.872 37.928C116.989 37.9813 117.101 38.056 117.208 38.152C117.315 38.248 117.432 38.376 117.56 38.536L129.208 53.32C129.165 52.9147 129.133 52.5253 129.112 52.152C129.091 51.768 129.08 51.4053 129.08 51.064V37.784H133.32ZM143.014 61H138.182V37.784H143.014V61ZM155.134 48.776C155.912 48.776 156.584 48.68 157.15 48.488C157.715 48.2853 158.179 48.0133 158.542 47.672C158.904 47.32 159.171 46.9093 159.342 46.44C159.512 45.9707 159.598 45.4587 159.598 44.904C159.598 43.8053 159.23 42.952 158.494 42.344C157.768 41.736 156.659 41.432 155.166 41.432H152.67V48.776H155.134ZM166.382 61H162.046C161.235 61 160.648 60.6907 160.286 60.072L155.87 52.952C155.688 52.6747 155.486 52.472 155.262 52.344C155.048 52.216 154.728 52.152 154.302 52.152H152.67V61H147.87V37.784H155.166C156.787 37.784 158.174 37.9547 159.326 38.296C160.478 38.6267 161.422 39.0907 162.158 39.688C162.894 40.2853 163.432 41 163.774 41.832C164.115 42.6533 164.286 43.56 164.286 44.552C164.286 45.32 164.174 46.0507 163.95 46.744C163.736 47.4267 163.422 48.0507 163.006 48.616C162.59 49.1813 162.078 49.6827 161.47 50.12C160.862 50.5573 160.168 50.9093 159.39 51.176C159.699 51.3467 159.987 51.5547 160.254 51.8C160.52 52.0347 160.76 52.3173 160.974 52.648L166.382 61ZM180.907 52.184L178.395 45.08C178.245 44.7067 178.085 44.2693 177.915 43.768C177.755 43.2667 177.6 42.7227 177.451 42.136C177.301 42.7333 177.141 43.288 176.971 43.8C176.811 44.3013 176.656 44.7387 176.507 45.112L174.011 52.184H180.907ZM188.971 61H185.243C184.827 61 184.485 60.904 184.219 60.712C183.963 60.5093 183.771 60.2533 183.643 59.944L182.075 55.512H172.827L171.259 59.944C171.152 60.2107 170.965 60.456 170.699 60.68C170.432 60.8933 170.096 61 169.691 61H165.931L175.003 37.784H179.915L188.971 61ZM211.008 37.784V61H208.528C208.154 61 207.84 60.9413 207.584 60.824C207.328 60.696 207.077 60.4827 206.832 60.184L195.264 45.464C195.296 45.8373 195.317 46.2053 195.328 46.568C195.349 46.9307 195.36 47.2667 195.36 47.576V61H191.12V37.784H193.648C193.85 37.784 194.021 37.7947 194.16 37.816C194.309 37.8267 194.442 37.864 194.56 37.928C194.677 37.9813 194.789 38.056 194.896 38.152C195.002 38.248 195.12 38.376 195.248 38.536L206.896 53.32C206.853 52.9147 206.821 52.5253 206.8 52.152C206.778 51.768 206.767 51.4053 206.767 51.064V37.784H211.008ZM225.054 52.68C225.054 53.9813 224.894 55.16 224.574 56.216C224.254 57.2613 223.768 58.1627 223.118 58.92C222.478 59.6667 221.672 60.2427 220.702 60.648C219.731 61.0533 218.6 61.256 217.31 61.256C216.723 61.256 216.142 61.2187 215.566 61.144C215 61.08 214.403 60.9733 213.774 60.824C213.816 60.3547 213.859 59.8853 213.902 59.416C213.944 58.9467 213.987 58.4773 214.03 58.008C214.062 57.752 214.163 57.5493 214.334 57.4C214.504 57.24 214.75 57.16 215.07 57.16C215.251 57.16 215.48 57.192 215.758 57.256C216.046 57.32 216.398 57.352 216.814 57.352C217.39 57.352 217.891 57.272 218.318 57.112C218.744 56.952 219.102 56.6907 219.39 56.328C219.678 55.9653 219.891 55.496 220.03 54.92C220.179 54.3333 220.254 53.624 220.254 52.792V37.784H225.054V52.68ZM241.563 52.184L239.051 45.08C238.902 44.7067 238.742 44.2693 238.571 43.768C238.411 43.2667 238.256 42.7227 238.107 42.136C237.958 42.7333 237.798 43.288 237.627 43.8C237.467 44.3013 237.312 44.7387 237.163 45.112L234.667 52.184H241.563ZM249.627 61H245.899C245.483 61 245.142 60.904 244.875 60.712C244.619 60.5093 244.427 60.2533 244.299 59.944L242.731 55.512H233.483L231.915 59.944C231.808 60.2107 231.622 60.456 231.355 60.68C231.088 60.8933 230.752 61 230.347 61H226.587L235.659 37.784H240.571L249.627 61ZM271.664 37.784V61H269.184C268.81 61 268.496 60.9413 268.24 60.824C267.984 60.696 267.733 60.4827 267.488 60.184L255.92 45.464C255.952 45.8373 255.973 46.2053 255.984 46.568C256.005 46.9307 256.016 47.2667 256.016 47.576V61H251.776V37.784H254.304C254.506 37.784 254.677 37.7947 254.816 37.816C254.965 37.8267 255.098 37.864 255.216 37.928C255.333 37.9813 255.445 38.056 255.552 38.152C255.658 38.248 255.776 38.376 255.904 38.536L267.552 53.32C267.509 52.9147 267.477 52.5253 267.456 52.152C267.434 51.768 267.424 51.4053 267.424 51.064V37.784H271.664Z" fill="white"/>
<rect x="940.5" y="26.5" width="67" height="51" rx="5.5" fill="#003049" fill-opacity="0.8" stroke="white"/>
<rect x="956" y="37" width="36" height="4" fill="white"/>
<rect x="956" y="48" width="36" height="4" fill="white"/>
<rect x="956" y="59" width="36" height="4" fill="white"/>
<defs>
<clipPath id="clip0_8_150">
<rect width="84" height="84" fill="white" transform="translate(16 10)"/>
</clipPath>
</defs>
</svg>
